<?xml version="1.0" encoding="utf-8"?>
<!-- Generator: Adobe Illustrator 24.3.0, SVG Export Plug-In . SVG Version: 6.00 Build 0)  -->
<svg version="1.1" id="Layer_1" xmlns="http://www.w3.org/2000/svg" xmlns:xlink="http://www.w3.org/1999/xlink" x="0px" y="0px"
	 viewBox="0 0 400 400" style="enable-background:new 0 0 400 400;" xml:space="preserve">
<style type="text/css">
	.st0{display:none;}
	.st1{display:inline;fill:#E04C38;}
	.st2{display:inline;fill:#7DD7DB;}
	.st3{display:inline;fill:#FCEEC4;}
	.st4{display:inline;fill:#F2B336;}
	.st5{display:inline;fill:#37EFB2;}
	.st6{display:inline;}
	.st7{fill:#FFFFFF;}
	.st8{font-family:'Montserrat-SemiBold';}
	.st9{font-size:13.4233px;}
	.st10{letter-spacing:1;}
	.st11{fill:#DE6CFF;}
	.st12{fill:#BA4EE7;}
	.st13{fill:#826B8C;}
	.st14{fill:#F76531;}
	.st15{fill:#DB4619;}
	.st16{fill:#70483C;}
	.st17{fill:#55AEFF;}
	.st18{fill:#339AD3;}
	.st19{fill:#35688C;}
	.st20{fill:#4AA8E7;}
	.st21{fill:#91FF03;}
	.st22{fill:#8FE300;}
	.st23{fill:#4E7806;}
	.st24{fill:#FF9808;}
	.st25{fill:#F28600;}
	.st26{fill:#C2781D;}
	.st27{fill:#916431;}
</style>
<g class="st0">
	<rect class="st1" width="40" height="40"/>
	<rect x="40" class="st2" width="40" height="40"/>
	<rect x="120" class="st3" width="40" height="40"/>
	<rect x="80" class="st4" width="40" height="40"/>
	<rect x="240" class="st2" width="40" height="40"/>
	<rect x="160" class="st5" width="40" height="40"/>
	<rect x="200" class="st4" width="40" height="40"/>
	<rect y="40" class="st3" width="40" height="40"/>
	<rect x="40" y="40" class="st4" width="40" height="40"/>
	<rect x="120" y="40" class="st5" width="40" height="40"/>
	<rect x="80" y="40" class="st2" width="40" height="40"/>
	<rect x="280" y="40" class="st5" width="40" height="40"/>
	<rect x="240" y="40" class="st1" width="40" height="40"/>
	<rect x="160" y="40" class="st1" width="40" height="40"/>
	<rect x="200" y="40" class="st2" width="40" height="40"/>
	<rect y="80" class="st2" width="40" height="40"/>
	<rect x="40" y="80" class="st1" width="40" height="40"/>
	<rect x="120" y="80" class="st3" width="40" height="40"/>
	<rect x="80" y="80" class="st5" width="40" height="40"/>
	<rect x="280" y="80" class="st4" width="40" height="40"/>
	<rect x="240" y="80" class="st5" width="40" height="40"/>
	<rect x="160" y="80" class="st4" width="40" height="40"/>
	<rect x="200" y="80" class="st3" width="40" height="40"/>
	<rect y="120" class="st5" width="40" height="40"/>
	<rect x="40" y="120" class="st4" width="40" height="40"/>
	<rect x="120" y="120" class="st1" width="40" height="40"/>
	<rect x="80" y="120" class="st3" width="40" height="40"/>
	<rect x="280" y="120" class="st2" width="40" height="40"/>
	<rect x="240" y="120" class="st4" width="40" height="40"/>
	<rect x="160" y="120" class="st2" width="40" height="40"/>
	<rect x="200" y="120" class="st1" width="40" height="40"/>
	<rect y="160" class="st1" width="40" height="40"/>
	<rect x="40" y="160" class="st2" width="40" height="40"/>
	<rect x="120" y="160" class="st3" width="40" height="40"/>
	<rect x="80" y="160" class="st4" width="40" height="40"/>
	<rect x="280" y="160" class="st1" width="40" height="40"/>
	<rect x="240" y="160" class="st2" width="40" height="40"/>
	<rect x="160" y="160" class="st5" width="40" height="40"/>
	<rect x="200" y="160" class="st4" width="40" height="40"/>
	<rect y="200" class="st3" width="40" height="40"/>
	<rect x="40" y="200" class="st4" width="40" height="40"/>
	<rect x="120" y="200" class="st5" width="40" height="40"/>
	<rect x="80" y="200" class="st2" width="40" height="40"/>
	<rect x="280" y="200" class="st5" width="40" height="40"/>
	<rect x="240" y="200" class="st1" width="40" height="40"/>
	<rect x="160" y="200" class="st1" width="40" height="40"/>
	<rect x="200" y="200" class="st2" width="40" height="40"/>
	<rect y="240" class="st2" width="40" height="40"/>
	<rect x="40" y="240" class="st1" width="40" height="40"/>
	<rect x="120" y="240" class="st3" width="40" height="40"/>
	<rect x="80" y="240" class="st5" width="40" height="40"/>
	<rect x="280" y="240" class="st4" width="40" height="40"/>
	<rect x="240" y="240" class="st5" width="40" height="40"/>
	<rect x="160" y="240" class="st4" width="40" height="40"/>
	<rect x="200" y="240" class="st3" width="40" height="40"/>
	<rect y="280" class="st5" width="40" height="40"/>
	<rect x="40" y="280" class="st4" width="40" height="40"/>
	<rect x="120" y="280" class="st1" width="40" height="40"/>
	<rect x="80" y="280" class="st3" width="40" height="40"/>
	<rect x="280" y="280" class="st2" width="40" height="40"/>
	<rect x="240" y="280" class="st4" width="40" height="40"/>
	<rect x="160" y="280" class="st2" width="40" height="40"/>
	<rect x="200" y="280" class="st1" width="40" height="40"/>
	<rect x="280" class="st1" width="40" height="40"/>
	<rect x="320" class="st5" width="40" height="40"/>
	<rect x="360" y="40" class="st4" width="40" height="40"/>
	<rect x="320" y="40" class="st3" width="40" height="40"/>
	<rect x="360" y="80" class="st2" width="40" height="40"/>
	<rect x="320" y="80" class="st1" width="40" height="40"/>
	<rect x="360" y="120" class="st5" width="40" height="40"/>
	<rect x="320" y="120" class="st3" width="40" height="40"/>
	<rect x="360" y="160" class="st3" width="40" height="40"/>
	<rect x="320" y="160" class="st5" width="40" height="40"/>
	<rect x="360" y="200" class="st4" width="40" height="40"/>
	<rect x="320" y="200" class="st3" width="40" height="40"/>
	<rect x="360" y="240" class="st2" width="40" height="40"/>
	<rect x="320" y="240" class="st1" width="40" height="40"/>
	<rect x="360" y="280" class="st5" width="40" height="40"/>
	<rect x="320" y="280" class="st3" width="40" height="40"/>
	<rect x="360" class="st3" width="40" height="40"/>
	<rect y="320" class="st1" width="40" height="40"/>
	<rect x="40" y="320" class="st2" width="40" height="40"/>
	<rect x="120" y="320" class="st3" width="40" height="40"/>
	<rect x="80" y="320" class="st4" width="40" height="40"/>
	<rect x="280" y="320" class="st1" width="40" height="40"/>
	<rect x="240" y="320" class="st2" width="40" height="40"/>
	<rect x="160" y="320" class="st5" width="40" height="40"/>
	<rect x="200" y="320" class="st4" width="40" height="40"/>
	<rect y="360" class="st3" width="40" height="40"/>
	<rect x="40" y="360" class="st4" width="40" height="40"/>
	<rect x="120" y="360" class="st5" width="40" height="40"/>
	<rect x="80" y="360" class="st2" width="40" height="40"/>
	<rect x="280" y="360" class="st5" width="40" height="40"/>
	<rect x="240" y="360" class="st1" width="40" height="40"/>
	<rect x="160" y="360" class="st1" width="40" height="40"/>
	<rect x="200" y="360" class="st2" width="40" height="40"/>
	<rect x="360" y="320" class="st3" width="40" height="40"/>
	<rect x="320" y="320" class="st5" width="40" height="40"/>
	<rect x="360" y="360" class="st4" width="40" height="40"/>
	<rect x="320" y="360" class="st3" width="40" height="40"/>
	<g class="st6">
		<g>
			<text transform="matrix(1 0 0 1 30.3965 377.6592)" class="st7 st8 st9 st10">1</text>
			<text transform="matrix(1 0 0 1 64.5762 377.6592)" class="st7 st8 st9 st10">2</text>
			<text transform="matrix(1 0 0 1 107.9609 377.6592)" class="st7 st8 st9 st10">3</text>
			<text transform="matrix(1 0 0 1 144.7207 377.6592)" class="st7 st8 st9 st10">4</text>
			<text transform="matrix(1 0 0 1 183.1299 377.6592)" class="st7 st8 st9 st10">5</text>
			<text transform="matrix(1 0 0 1 208.041 377.6592)" class="st7 st8 st9 st10">6</text>
			<text transform="matrix(1 0 0 1 245.7422 377.6592)" class="st7 st8 st9 st10">7</text>
			<text transform="matrix(1 0 0 1 283.8525 377.6592)" class="st7 st8 st9 st10">8</text>
			<text transform="matrix(1 0 0 1 324.1719 377.6592)" class="st7 st8 st9 st10">9</text>
			<text transform="matrix(1 0 0 1 365.2432 377.6592)" class="st7 st8 st9 st10">10</text>
		</g>
		<text transform="matrix(1 0 0 1 19.2109 336.5039)" class="st7 st8 st9 st10">20</text>
		<text transform="matrix(1 0 0 1 60.1025 336.5039)" class="st7 st8 st9 st10">19</text>
		<text transform="matrix(1 0 0 1 103.4863 336.5039)" class="st7 st8 st9 st10">18</text>
		<text transform="matrix(1 0 0 1 140.2461 336.5039)" class="st7 st8 st9 st10">17</text>
		<text transform="matrix(1 0 0 1 178.6562 336.5039)" class="st7 st8 st9 st10">16</text>
		<text transform="matrix(1 0 0 1 203.5664 336.5039)" class="st7 st8 st9 st10">15</text>
		<text transform="matrix(1 0 0 1 241.2686 336.5039)" class="st7 st8 st9 st10">14</text>
		<text transform="matrix(1 0 0 1 279.3789 336.5039)" class="st7 st8 st9 st10">13</text>
		<text transform="matrix(1 0 0 1 319.6973 336.5039)" class="st7 st8 st9 st10">12</text>
		<text transform="matrix(1 0 0 1 360.7695 336.5039)" class="st7 st8 st9 st10">11</text>
		<text transform="matrix(1 0 0 1 20.292 295.3486)" class="st7 st8 st9 st10">21</text>
		<text transform="matrix(1 0 0 1 57.8652 295.3486)" class="st7 st8 st9 st10">22</text>
		<text transform="matrix(1 0 0 1 103.4863 295.3486)" class="st7 st8 st9 st10">23</text>
		<text transform="matrix(1 0 0 1 140.2461 295.3486)" class="st7 st8 st9 st10">24</text>
		<text transform="matrix(1 0 0 1 180.8926 295.3486)" class="st7 st8 st9 st10">25</text>
		<text transform="matrix(1 0 0 1 210.2783 295.3486)" class="st7 st8 st9 st10">26</text>
		<text transform="matrix(1 0 0 1 247.9795 295.3486)" class="st7 st8 st9 st10">27</text>
		<text transform="matrix(1 0 0 1 288.3271 295.3486)" class="st7 st8 st9 st10">28</text>
		<text transform="matrix(1 0 0 1 328.6465 295.3486)" class="st7 st8 st9 st10">29</text>
		<text transform="matrix(1 0 0 1 365.2432 295.3486)" class="st7 st8 st9 st10">30</text>
		<text transform="matrix(1 0 0 1 12.499 256.1846)" class="st7 st8 st9 st10">40</text>
		<text transform="matrix(1 0 0 1 60.1025 256.1846)" class="st7 st8 st9 st10">39</text>
		<text transform="matrix(1 0 0 1 101.249 256.1846)" class="st7 st8 st9 st10">38</text>
		<text transform="matrix(1 0 0 1 140.2461 256.1846)" class="st7 st8 st9 st10">37</text>
		<text transform="matrix(1 0 0 1 180.8926 256.1846)" class="st7 st8 st9 st10">36</text>
		<text transform="matrix(1 0 0 1 210.2783 256.1846)" class="st7 st8 st9 st10">35</text>
		<text transform="matrix(1 0 0 1 247.9795 256.1846)" class="st7 st8 st9 st10">34</text>
		<text transform="matrix(1 0 0 1 288.3271 256.1846)" class="st7 st8 st9 st10">33</text>
		<text transform="matrix(1 0 0 1 328.6465 256.1846)" class="st7 st8 st9 st10">32</text>
		<text transform="matrix(1 0 0 1 365.2432 256.1846)" class="st7 st8 st9 st10">31</text>
		<text transform="matrix(1 0 0 1 23.0215 215.0293)" class="st7 st8 st9 st10">41</text>
		<text transform="matrix(1 0 0 1 59.4385 215.0293)" class="st7 st8 st9 st10">42</text>
		<text transform="matrix(1 0 0 1 100.585 215.0293)" class="st7 st8 st9 st10">43</text>
		<text transform="matrix(1 0 0 1 139.583 215.0293)" class="st7 st8 st9 st10">44</text>
		<text transform="matrix(1 0 0 1 180.2295 215.0293)" class="st7 st8 st9 st10">45</text>
		<text transform="matrix(1 0 0 1 209.6143 215.0293)" class="st7 st8 st9 st10">46</text>
		<text transform="matrix(1 0 0 1 247.3164 215.0293)" class="st7 st8 st9 st10">47</text>
		<text transform="matrix(1 0 0 1 287.6631 215.0293)" class="st7 st8 st9 st10">48</text>
		<text transform="matrix(1 0 0 1 327.9824 215.0293)" class="st7 st8 st9 st10">49</text>
		<text transform="matrix(1 0 0 1 364.5801 215.0293)" class="st7 st8 st9 st10">50</text>
		<text transform="matrix(1 0 0 1 14.0723 176.5293)" class="st7 st8 st9 st10">60</text>
		<text transform="matrix(1 0 0 1 59.4385 176.5293)" class="st7 st8 st9 st10">59</text>
		<text transform="matrix(1 0 0 1 100.585 176.5293)" class="st7 st8 st9 st10">58</text>
		<text transform="matrix(1 0 0 1 139.583 176.5293)" class="st7 st8 st9 st10">57</text>
		<text transform="matrix(1 0 0 1 180.2295 176.5293)" class="st7 st8 st9 st10">56</text>
		<text transform="matrix(1 0 0 1 209.6143 176.5293)" class="st7 st8 st9 st10">55</text>
		<text transform="matrix(1 0 0 1 247.3164 176.5293)" class="st7 st8 st9 st10">54</text>
		<text transform="matrix(1 0 0 1 287.6631 176.5293)" class="st7 st8 st9 st10">53</text>
		<text transform="matrix(1 0 0 1 327.9824 176.5293)" class="st7 st8 st9 st10">52</text>
		<text transform="matrix(1 0 0 1 364.5801 176.5293)" class="st7 st8 st9 st10">51</text>
		<text transform="matrix(1 0 0 1 23.0215 136.0371)" class="st7 st8 st9 st10">61</text>
		<text transform="matrix(1 0 0 1 59.4385 136.0371)" class="st7 st8 st9 st10">62</text>
		<text transform="matrix(1 0 0 1 100.585 136.0371)" class="st7 st8 st9 st10">63</text>
		<text transform="matrix(1 0 0 1 139.583 136.0371)" class="st7 st8 st9 st10">64</text>
		<text transform="matrix(1 0 0 1 180.2295 136.0371)" class="st7 st8 st9 st10">65</text>
		<text transform="matrix(1 0 0 1 209.6143 136.0371)" class="st7 st8 st9 st10">66</text>
		<text transform="matrix(1 0 0 1 247.3164 136.0371)" class="st7 st8 st9 st10">67</text>
		<text transform="matrix(1 0 0 1 287.6631 136.0371)" class="st7 st8 st9 st10">68</text>
		<text transform="matrix(1 0 0 1 327.9824 136.0371)" class="st7 st8 st9 st10">69</text>
		<text transform="matrix(1 0 0 1 364.5801 136.0371)" class="st7 st8 st9 st10">70</text>
		<text transform="matrix(1 0 0 1 16.3096 96.21)" class="st7 st8 st9 st10">80</text>
		<text transform="matrix(1 0 0 1 59.4385 96.21)" class="st7 st8 st9 st10">79</text>
		<text transform="matrix(1 0 0 1 100.585 96.21)" class="st7 st8 st9 st10">78</text>
		<text transform="matrix(1 0 0 1 139.583 96.21)" class="st7 st8 st9 st10">77</text>
		<text transform="matrix(1 0 0 1 180.2295 96.21)" class="st7 st8 st9 st10">76</text>
		<text transform="matrix(1 0 0 1 209.6143 96.21)" class="st7 st8 st9 st10">75</text>
		<text transform="matrix(1 0 0 1 247.3164 96.21)" class="st7 st8 st9 st10">74</text>
		<text transform="matrix(1 0 0 1 287.6631 96.21)" class="st7 st8 st9 st10">73</text>
		<text transform="matrix(1 0 0 1 327.9824 96.21)" class="st7 st8 st9 st10">72</text>
		<text transform="matrix(1 0 0 1 364.5801 96.21)" class="st7 st8 st9 st10">71</text>
		<text transform="matrix(1 0 0 1 23.0215 55.0547)" class="st7 st8 st9 st10">81</text>
		<text transform="matrix(1 0 0 1 59.4385 55.0547)" class="st7 st8 st9 st10">82</text>
		<text transform="matrix(1 0 0 1 100.585 55.0547)" class="st7 st8 st9 st10">83</text>
		<text transform="matrix(1 0 0 1 139.583 55.0547)" class="st7 st8 st9 st10">84</text>
		<text transform="matrix(1 0 0 1 180.2295 55.0547)" class="st7 st8 st9 st10">85</text>
		<text transform="matrix(1 0 0 1 209.6143 55.0547)" class="st7 st8 st9 st10">86</text>
		<text transform="matrix(1 0 0 1 247.3164 55.0547)" class="st7 st8 st9 st10">87</text>
		<text transform="matrix(1 0 0 1 287.6631 55.0547)" class="st7 st8 st9 st10">88</text>
		<text transform="matrix(1 0 0 1 327.9824 55.0547)" class="st7 st8 st9 st10">89</text>
		<text transform="matrix(1 0 0 1 364.5801 55.0547)" class="st7 st8 st9 st10">90</text>
		<text transform="matrix(1 0 0 1 7.6953 16.5547)" class="st7 st8 st9 st10">100</text>
		<text transform="matrix(1 0 0 1 59.4385 16.5547)" class="st7 st8 st9 st10">99</text>
		<text transform="matrix(1 0 0 1 100.585 16.5547)" class="st7 st8 st9 st10">98</text>
		<text transform="matrix(1 0 0 1 139.583 16.5547)" class="st7 st8 st9 st10">97</text>
		<text transform="matrix(1 0 0 1 180.2295 16.5547)" class="st7 st8 st9 st10">96</text>
		<text transform="matrix(1 0 0 1 209.6143 16.5547)" class="st7 st8 st9 st10">95</text>
		<text transform="matrix(1 0 0 1 247.3164 16.5547)" class="st7 st8 st9 st10">94</text>
		<text transform="matrix(1 0 0 1 287.6631 16.5547)" class="st7 st8 st9 st10">93</text>
		<text transform="matrix(1 0 0 1 327.9824 16.5547)" class="st7 st8 st9 st10">92</text>
		<text transform="matrix(1 0 0 1 364.5801 16.5547)" class="st7 st8 st9 st10">91</text>
	</g>
</g>
<g>
	<path class="st11" d="M313.97,356.11c2.21-9.24-0.25-19.19-4.76-28.28c-4.53-9.15-11.09-17.49-17.38-25.19
		c-11.61-14.24-20.39-30.4-25.51-48.19c-3.48-12.03-6.38-24.01-10.38-36.03c-3.51-10.58-8.05-21.69-16.21-27.95
		c-1.37-1.16-2.89-2.14-4.4-3.1c-4.28-2.69-9.24-4.32-12.82-8.01c-0.39-0.41-0.96-0.59-1.54-0.56c-1.02,0.06-1.89,1.19-2.08,2.27
		s0.12,2.12,0.43,3.1l2.32,7.49c1.12,3.6,2.24,7.25,4.29,10.25c2.05,3,5.17,5.32,8.9,5.43c0.37,0.01,0.72-0.02,1.08-0.04
		c7.98,12.24,12.71,26.42,17.1,40.48c4.43,14.09,8.52,27.94,15.71,40.38c5.84,10.05,13.65,18.89,20.66,28.6
		c7,9.62,13.13,20.32,14.76,31.98c0.99,7.38,0.05,14.17-0.84,20.52c-0.91,6.39-1.7,12.3-0.32,19.05
		c-0.39-5.66,1.74-10.45,4.14-15.61C309.61,367.6,312.46,362.19,313.97,356.11z"/>
	<path class="st12" d="M291.83,302.64c-11.61-14.24-20.39-30.4-25.51-48.19c-3.48-12.03-6.38-24.01-10.38-36.03
		c-2.91-8.77-6.53-17.89-12.33-24.32c-1.46,4.44,0.21,10.17,2.69,14.46c3,5.19,7.08,10.13,7.68,16.23
		c0.37,3.87-0.72,7.85,0.43,11.51c1.69,5.35,7.59,7.99,9.56,13.28c1.98,5.33-0.75,11.36,0.64,16.77c1.51,6.03,7.51,9.42,10.65,14.79
		c3.14,5.38,3.14,12.2,6.27,17.48c4.05,6.86,12.75,10.06,16.48,17.59c3.14,6.44,1.81,14.37,6.13,19.97c1.7,2.27,4.22,3.99,5.56,6.58
		c1.46,2.95,1.4,5.07-0.05,7.56c-3.6,6.07,0.96,9,0.19,12.65c-0.49,2.06-2.23,2.34-3.57,3.45c-1.35,1.11-2.26,3.01-1.49,8.23
		c0.32,1.86-0.32,3.51-0.93,5.11c-0.6,1.61-1.26,3.16-1.18,4.92c0.04,0.73,0.14,1.58,0.29,2.47c-0.01-5.33,2.06-9.99,4.44-14.98
		c2.43-4.96,5.14-10.22,6.58-16.08c2.21-9.24-0.25-19.19-4.76-28.28C304.68,318.68,298.11,310.34,291.83,302.64z"/>
	<path class="st11" d="M216.71,176.99c-1.33-1.43-2.25-3.49-1.79-5.61c-1.06,1.74-0.78,3.97,0.15,5.56
		c0.92,1.59,2.38,2.69,3.74,3.85c1.36,1.16,2.7,2.48,3.26,4.28c0.31,0.99,0.36,2.09,0.79,3.01c1.8,3.85,4.48-1.3,2.22-4.2
		C222.84,181.01,219.15,179.62,216.71,176.99z"/>
	<g>
		<path class="st13" d="M230.99,189.41c1.06-0.02,2.23,0.73,2.92,1.93c0.33,0.57,0.52,1.22,0.58,1.86c0.07,0.71-0.06,1.26-0.25,1.86
			c-0.11,0.35,0.35,0.82,0.54,0.49c0.64-1.17,0.38-3.12-0.41-4.47c-0.82-1.4-2.2-2.26-3.44-2.16
			C230.69,188.93,230.73,189.41,230.99,189.41z"/>
	</g>
	<path class="st13" d="M233.7,193.77c-0.72,0.52-1.69,0.26-2.17-0.57c-0.47-0.83-0.27-1.93,0.45-2.45c0.72-0.52,1.69-0.26,2.17,0.57
		C234.63,192.16,234.43,193.25,233.7,193.77z"/>
	<g>
		<path class="st13" d="M218.63,181.49c0.49,0.88,1.15,1.64,1.92,2.21c0.72,0.53,1.68,1.08,2.56,0.93c0.24-0.04,0.36-0.42,0.1-0.56
			c-0.37-0.21-0.76-0.33-1.15-0.49c-0.38-0.16-0.75-0.37-1.1-0.61c-0.69-0.49-1.3-1.11-1.77-1.87
			C218.94,180.69,218.4,181.08,218.63,181.49z"/>
	</g>
	<path class="st12" d="M251.75,224.05c-0.6,0.4-1.4,0.17-1.77-0.51c-0.38-0.69-0.2-1.57,0.41-1.98c0.6-0.41,1.4-0.18,1.78,0.51
		C252.54,222.76,252.36,223.65,251.75,224.05z"/>
	<path class="st11" d="M258.26,235.5c-0.61,0.39-1.4,0.15-1.77-0.54c-0.37-0.69-0.18-1.57,0.43-1.97c0.61-0.39,1.4-0.15,1.77,0.54
		C259.06,234.23,258.87,235.11,258.26,235.5z"/>
	<path class="st11" d="M268.22,268.45c-0.63,0.35-1.42,0.08-1.76-0.62c-0.34-0.7-0.12-1.55,0.51-1.91c0.63-0.36,1.42-0.08,1.76,0.62
		C269.07,267.24,268.84,268.1,268.22,268.45z"/>
	<path class="st11" d="M284.34,299.14c-0.66,0.29-1.45-0.04-1.76-0.75c-0.32-0.71-0.04-1.53,0.61-1.83c0.65-0.3,1.44,0.04,1.76,0.75
		C285.27,298.02,284.99,298.84,284.34,299.14z"/>
	<path class="st11" d="M304.57,332.05c-0.7,0.18-1.48-0.28-1.73-1.04c-0.26-0.76,0.1-1.53,0.79-1.72c0.7-0.2,1.47,0.27,1.73,1.04
		C305.63,331.09,305.27,331.87,304.57,332.05z"/>
	<path class="st11" d="M311.1,356.96c-0.73,0.07-1.47-0.49-1.68-1.26c-0.2-0.77,0.22-1.46,0.95-1.55c0.73-0.09,1.49,0.47,1.7,1.25
		C312.28,356.19,311.83,356.89,311.1,356.96z"/>
	<path class="st11" d="M246.65,201.99c-0.6,0.42-1.39,0.2-1.78-0.49c-0.38-0.69-0.22-1.58,0.38-2c0.59-0.42,1.39-0.2,1.78,0.49
		C247.41,200.68,247.24,201.57,246.65,201.99z"/>
	<path class="st12" d="M262.26,252.09c-0.62,0.38-1.41,0.12-1.77-0.58c-0.36-0.69-0.15-1.56,0.47-1.94
		c0.62-0.38,1.41-0.12,1.77,0.58C263.09,250.85,262.88,251.72,262.26,252.09z"/>
	<path class="st12" d="M274,284.29c-0.64,0.33-1.43,0.03-1.76-0.67c-0.33-0.7-0.08-1.54,0.56-1.87s1.43-0.03,1.76,0.67
		C274.89,283.13,274.64,283.96,274,284.29z"/>
	<path class="st12" d="M296.08,317.17c-0.68,0.24-1.46-0.16-1.75-0.9c-0.29-0.73,0.02-1.53,0.69-1.77c0.68-0.25,1.46,0.15,1.76,0.89
		C297.08,316.14,296.77,316.93,296.08,317.17z"/>
	<path class="st12" d="M308.34,346.57c-0.72,0.12-1.48-0.4-1.71-1.16c-0.22-0.76,0.17-1.49,0.89-1.63c0.71-0.14,1.48,0.38,1.71,1.16
		C309.46,345.72,309.06,346.44,308.34,346.57z"/>
	<path class="st12" d="M308.04,363.12c-0.74,0.04-1.48-0.52-1.66-1.27c-0.18-0.75,0.27-1.4,1.01-1.46c0.74-0.06,1.48,0.51,1.66,1.27
		C309.23,362.43,308.78,363.08,308.04,363.12z"/>
</g>
<g>
	<path class="st14" d="M146.51,320.01c2.98-12.74-5.07-19.17-12.19-25.81c-6.58-6.12-10.4-15.12-10.9-25.65
		c-0.35-7.15-0.08-14.35-0.47-21.44c-0.33-6.25-1.15-12.71-5.55-15.85c-0.72-0.59-1.57-1.07-2.43-1.53
		c-2.43-1.29-5.58-1.87-7.29-3.9c-0.19-0.22-0.55-0.29-0.96-0.22c-0.73,0.13-1.6,0.92-1.97,1.62c-0.37,0.7-0.38,1.34-0.39,1.93
		l0,4.56c0,2.19,0.01,4.42,0.81,6.14c0.81,1.72,2.53,2.9,5.14,2.6c0.26-0.03,0.52-0.09,0.77-0.14c6.13,13.9,1.85,34.06,8.65,47.67
		c5.5,11,18.13,16.3,20.04,29.53c1.21,8.41-2.02,18.45,1.64,25.25C139.38,338.17,144.54,328.39,146.51,320.01z"/>
	<path class="st15" d="M134.32,294.2c-6.58-6.12-10.4-15.12-10.9-25.65c-0.35-7.15-0.08-14.35-0.47-21.44
		c-0.27-5.18-0.89-10.5-3.59-13.96c-1.99,2.95-2.04,6.41-1.18,8.85c1.04,2.96,2.9,5.59,2.1,9.39c-0.51,2.4-2.07,5.1-1.96,7.28
		c0.18,3.21,3.87,4.06,4.3,7.13c0.44,3.09-2.55,7.41-2.47,10.7c0.1,3.66,3.82,4.79,5.26,7.62c1.43,2.84,0.48,7.27,2.06,9.99
		c2.05,3.56,7.88,3.37,9.77,7.02c1.63,3.09,0.13,8.54,2.9,10.56c1.1,0.81,2.78,0.95,3.61,2.03c0.94,1.22,0.82,2.52-0.2,4.6
		c-2.52,5.17,0.69,5.07,0.23,7.58c-0.52,2.92-4.61,3.78-2.74,9.49c0.67,2.02-0.9,5.22-0.31,7.3c0.12,0.43,0.3,0.9,0.51,1.37
		c-1.49-6.59,3.37-15.96,5.26-24.06C149.49,307.27,141.43,300.84,134.32,294.2z"/>
	<path class="st14" d="M104.12,224.82c-0.62-0.79-0.82-2.02-0.02-3.4c-1.13,1.19-1.43,2.58-1.13,3.51c0.3,0.93,1.09,1.5,1.79,2.12
		c0.71,0.62,1.36,1.34,1.36,2.43c0,0.6-0.2,1.29-0.1,1.84c0.43,2.28,3.45-1.23,2.49-2.86C107.56,226.84,105.26,226.28,104.12,224.82
		z"/>
	<g>
		<path class="st16" d="M111.47,231.42c0.75-0.11,1.42,0.25,1.64,0.95c0.11,0.33,0.1,0.73,0.01,1.12c-0.11,0.44-0.32,0.81-0.58,1.2
			c-0.15,0.23,0.07,0.49,0.28,0.26c0.71-0.8,0.95-2.02,0.68-2.8c-0.27-0.81-1.06-1.22-1.96-1.04
			C111.36,231.15,111.29,231.45,111.47,231.42z"/>
	</g>
	<path class="st16" d="M112.44,233.93c-0.62,0.4-1.25,0.33-1.41-0.15c-0.15-0.48,0.23-1.2,0.85-1.59c0.62-0.4,1.25-0.33,1.41,0.15
		C113.44,232.82,113.06,233.53,112.44,233.93z"/>
	<g>
		<path class="st16" d="M104.48,227.51c0.15,0.51,0.45,0.94,0.87,1.23c0.39,0.27,0.95,0.54,1.6,0.36c0.18-0.05,0.35-0.3,0.2-0.37
			c-0.22-0.1-0.47-0.14-0.7-0.21c-0.24-0.07-0.45-0.17-0.64-0.29c-0.38-0.25-0.67-0.59-0.84-1.03
			C104.88,226.97,104.41,227.27,104.48,227.51z"/>
	</g>
	<path class="st15" d="M118.85,251.2c-0.51,0.33-1.02,0.28-1.15-0.11c-0.13-0.39,0.18-0.98,0.69-1.31s1.02-0.28,1.15,0.11
		C119.67,250.28,119.36,250.86,118.85,251.2z"/>
	<path class="st14" d="M121.21,257.64c-0.51,0.33-1.02,0.29-1.15-0.1c-0.13-0.39,0.18-0.98,0.68-1.31c0.51-0.33,1.02-0.29,1.15,0.1
		C122.02,256.72,121.72,257.3,121.21,257.64z"/>
	<path class="st14" d="M122.39,277.23c-0.51,0.34-1.02,0.3-1.16-0.09c-0.13-0.39,0.17-0.98,0.68-1.32c0.51-0.34,1.02-0.3,1.16,0.09
		C123.2,276.3,122.9,276.89,122.39,277.23z"/>
	<path class="st14" d="M129.42,293.79c-0.5,0.34-1.02,0.31-1.16-0.08c-0.14-0.39,0.16-0.98,0.67-1.33c0.5-0.34,1.02-0.31,1.16,0.08
		C130.22,292.85,129.92,293.44,129.42,293.79z"/>
	<path class="st14" d="M140.69,308.96c-0.5,0.35-1.02,0.32-1.16-0.06c-0.14-0.38,0.16-0.98,0.66-1.33c0.5-0.35,1.02-0.32,1.16,0.06
		C141.49,308.01,141.19,308.6,140.69,308.96z"/>
	<path class="st14" d="M144.55,321.73c-0.5,0.35-1.02,0.33-1.16-0.05c-0.14-0.38,0.15-0.98,0.65-1.34c0.5-0.35,1.02-0.33,1.16,0.05
		C145.35,320.78,145.05,321.37,144.55,321.73z"/>
	<path class="st14" d="M119.82,237.81c-0.51,0.33-1.02,0.28-1.15-0.12c-0.13-0.39,0.18-0.98,0.69-1.3c0.51-0.33,1.02-0.28,1.15,0.12
		C120.64,236.89,120.33,237.48,119.82,237.81z"/>
	<path class="st15" d="M120.96,267.67c-0.51,0.34-1.02,0.29-1.16-0.1c-0.13-0.39,0.17-0.98,0.68-1.32c0.51-0.34,1.02-0.29,1.16,0.1
		C121.77,266.74,121.47,267.33,120.96,267.67z"/>
	<path class="st15" d="M124.07,286.4c-0.5,0.34-1.02,0.3-1.16-0.09c-0.13-0.39,0.17-0.98,0.67-1.32c0.5-0.34,1.02-0.3,1.16,0.09
		C124.87,285.47,124.57,286.06,124.07,286.4z"/>
	<path class="st15" d="M135.82,302.28c-0.5,0.35-1.02,0.32-1.16-0.07c-0.14-0.39,0.16-0.98,0.66-1.33c0.5-0.35,1.02-0.32,1.16,0.07
		C136.61,301.34,136.32,301.93,135.82,302.28z"/>
	<path class="st15" d="M142.73,316.54c-0.5,0.35-1.02,0.33-1.16-0.06c-0.14-0.38,0.16-0.98,0.66-1.34c0.5-0.35,1.02-0.33,1.16,0.06
		C143.53,315.59,143.23,316.18,142.73,316.54z"/>
	<path class="st15" d="M142.59,326.78c-0.5,0.36-1.02,0.33-1.16-0.05c-0.14-0.38,0.15-0.98,0.65-1.34c0.5-0.36,1.02-0.33,1.16,0.05
		C143.38,325.83,143.09,326.43,142.59,326.78z"/>
</g>
<g>
	<path class="st17" d="M36.77,219.71c0.92-10.33,3.6-18.17,7.35-26.54c1.88-4.14,3.92-8.4,6.07-12.77
		c2.08-4.39,4.24-9.03,6.22-13.77c3.68-8.79,6.18-18.75,7.68-28.93c1.51-10.21,2.04-20.63,1.93-31.09
		c-0.07-7.11-0.17-14.16,0.01-21.36c0.19-7.23,0.75-14.56,1.88-21.99c1.02-6.53,2.49-13.36,4.97-19.41
		c2.45-6.03,5.79-11.33,9.97-14.43c1.43-1.15,3-1.98,4.49-2.75c4.42-1.99,8.94-1.98,12.89-3.76c0.43-0.21,0.92-0.12,1.37,0.26
		c0.79,0.67,1.09,2.25,0.94,3.43c-0.14,1.2-0.63,2.05-1.1,2.85c-0.61,0.99-1.18,2.03-1.71,3.14c-0.53,1.1-1.1,2.09-1.57,3.23
		c-1.43,3.22-2.7,6.47-4.54,9.07c-1.88,2.55-4.51,4.48-7.74,4.32c-0.32-0.02-0.62-0.07-0.93-0.12c-3.5,6.45-5.8,14.05-7.23,21.89
		c-1.45,7.88-1.99,15.9-2.22,24.01c-0.47,16.2,0.19,32.5-2.8,49.16c-2.42,13.44-7.23,26.39-12.4,38.42
		c-5.2,12.13-10.55,22.81-14.52,35.15c-2.54,7.85-4.47,16.02-7.72,23.69c-3.19,7.58-7.89,14.68-14.59,17.87
		c5.47-3.63,8.75-10.64,10.49-17.87C35.74,234.07,36.16,226.55,36.77,219.71z"/>
	<path class="st18" d="M56.41,166.63c3.68-8.79,6.18-18.75,7.68-28.93c1.51-10.21,2.04-20.63,1.93-31.09
		c-0.07-7.11-0.17-14.16,0.01-21.36c0.19-7.23,0.75-14.56,1.88-21.99c1.58-10.8,4.93-22.5,10.94-29.93
		c0.83,5.5-0.99,11.94-3.04,17.13c-2.55,6.17-5.74,12.64-5.44,19.73c0.19,4.48,1.8,8.63,1.51,12.9c-0.42,6.22-4.74,10.99-5.12,17.44
		c-0.36,6.47,3.47,11.91,3.75,18.22c0.32,7.03-3.71,12.93-4.96,19.86c-1.24,6.9,0.37,14.51-1.23,21.4
		c-2.11,8.99-8.92,14.01-11.34,22.13c-1.06,3.49-1.29,7.45-1.8,11.31c-0.28,1.9-0.58,3.8-1.1,5.53c-0.54,1.71-1.23,3.28-2.22,4.55
		c-1.65,1.98-3.78,2.95-5.2,5.05c-1.55,2.47-1.9,4.51-1.36,7.98c0.54,4.18-0.26,6.59-1.35,8.16c-1.07,1.64-2.27,2.69-2.75,4.75
		c-0.54,2.43,0.42,4.15,0.66,6.39c0.21,2.18-0.13,5.28-3.96,9.71c-1.37,1.52-2.3,3.6-3.29,5.78c-1.06,2.01-2.13,4.23-3.75,5.5
		c-0.67,0.52-1.48,1.05-2.32,1.56c5.02-3.91,8.01-10.73,9.59-17.77c1.62-7.1,2.03-14.32,2.63-20.91c0.92-10.33,3.6-18.17,7.35-26.54
		c1.88-4.14,3.92-8.4,6.07-12.77C52.26,176.01,54.43,171.37,56.41,166.63z"/>
	<path class="st17" d="M105.41,23.99c1.43-0.49,2.79-1.63,3.29-3.99c0.05,2.4-0.9,4.24-2.09,5.02c-1.16,0.87-2.53,1.05-3.92,1.32
		c-1.32,0.43-2.76,1.01-3.62,2.58c-0.46,0.89-0.73,1.99-1.26,2.73c-2.18,3.18-3.5-3.16-0.89-5.33
		C99.49,24.25,102.81,24.91,105.41,23.99z"/>
	<g>
		<path class="st19" d="M90.75,30.12c-0.94-0.37-2.04,0.23-2.85,1.42c-0.38,0.57-0.65,1.26-0.8,1.96c-0.17,0.76-0.1,1.45-0.01,2.15
			c0.06,0.42-0.39,0.87-0.52,0.46c-0.46-1.45,0.03-3.64,0.96-4.98c0.94-1.41,2.29-2.06,3.35-1.54C91.1,29.69,90.97,30.2,90.75,30.12
			z"/>
	</g>
	<path class="st19" d="M87.72,34.31c0.57,0.73,1.45,0.68,1.97-0.12c0.52-0.8,0.51-2.07-0.03-2.84c-0.54-0.77-1.42-0.72-1.97,0.12
		C87.14,32.31,87.15,33.58,87.72,34.31z"/>
	<g>
		<path class="st19" d="M102.64,27.15c-0.6,0.61-1.29,1.01-2.04,1.16c-0.7,0.14-1.6,0.2-2.26-0.33c-0.18-0.15-0.2-0.6,0.05-0.64
			c0.34-0.06,0.7,0.03,1.05,0.06c0.35,0.04,0.7,0.02,1.03-0.04c0.67-0.12,1.3-0.42,1.86-0.93
			C102.62,26.16,102.92,26.86,102.64,27.15z"/>
	</g>
	<path class="st20" d="M72.2,68.88c0.58,0.34,1.24-0.07,1.49-0.9c0.25-0.83-0.02-1.8-0.59-2.16c-0.57-0.36-1.23,0.04-1.49,0.9
		C71.36,67.58,71.62,68.55,72.2,68.88z"/>
	<path class="st17" d="M68.45,83.28c0.59,0.26,1.22-0.24,1.4-1.11c0.17-0.87-0.14-1.79-0.73-2.06c-0.59-0.28-1.24,0.21-1.42,1.1
		C67.52,82.1,67.86,83.02,68.45,83.28z"/>
	<path class="st17" d="M68.07,122.32c0.61,0.15,1.19-0.44,1.3-1.32c0.1-0.87-0.31-1.71-0.92-1.86c-0.61-0.15-1.19,0.44-1.3,1.32
		C67.04,121.33,67.45,122.17,68.07,122.32z"/>
	<path class="st17" d="M62.07,161.25c0.61,0.18,1.2-0.39,1.32-1.28c0.12-0.89-0.27-1.75-0.88-1.92c-0.61-0.17-1.2,0.4-1.32,1.28
		C61.06,160.21,61.46,161.07,62.07,161.25z"/>
	<path class="st17" d="M47.78,198.76c0.56,0.38,1.23,0.06,1.49-0.72c0.24-0.79-0.03-1.73-0.6-2.09c-0.57-0.36-1.21-0.02-1.45,0.75
		C46.97,197.46,47.22,198.38,47.78,198.76z"/>
	<path class="st17" d="M38.49,222.46c0.48,0.57,1.18,0.51,1.56-0.17c0.36-0.69,0.25-1.69-0.25-2.24c-0.49-0.54-1.17-0.44-1.52,0.22
		C37.93,220.93,38.01,221.89,38.49,222.46z"/>
	<path class="st17" d="M75.54,42.72c0.52,0.48,1.25,0.22,1.62-0.59c0.37-0.81,0.26-1.88-0.25-2.39c-0.51-0.51-1.24-0.25-1.62,0.59
		C74.91,41.17,75.02,42.23,75.54,42.72z"/>
	<path class="st20" d="M68.79,102.62c0.61,0.19,1.2-0.36,1.33-1.23c0.13-0.86-0.26-1.73-0.86-1.92c-0.61-0.2-1.2,0.35-1.33,1.23
		C67.8,101.57,68.18,102.43,68.79,102.62z"/>
	<path class="st20" d="M67.36,141.62c0.61,0.15,1.19-0.46,1.29-1.35c0.1-0.89-0.32-1.72-0.93-1.87c-0.61-0.14-1.19,0.46-1.29,1.34
		C66.34,140.63,66.75,141.47,67.36,141.62z"/>
	<path class="st20" d="M54.67,183.19c0.59,0.28,1.23-0.18,1.4-1.03c0.18-0.85-0.16-1.75-0.76-2.01c-0.59-0.26-1.22,0.21-1.39,1.04
		C53.76,182.03,54.08,182.92,54.67,183.19z"/>
	<path class="st20" d="M43.07,213.2c0.51,0.48,1.23,0.31,1.53-0.44c0.31-0.75,0.13-1.72-0.41-2.18c-0.53-0.46-1.2-0.25-1.5,0.47
		C42.4,211.77,42.54,212.7,43.07,213.2z"/>
	<path class="st20" d="M38.29,230.97c0.45,0.62,1.17,0.59,1.6-0.08c0.45-0.65,0.39-1.71-0.08-2.3c-0.47-0.59-1.15-0.51-1.58,0.11
		C37.82,229.33,37.84,230.35,38.29,230.97z"/>
</g>
<g>
	<path class="st21" d="M328.01,191.84c-1.37-8.67-4.11-13.45-7.96-17.6c-3.81-4.1-8.63-7.54-13.09-11.89
		c-4.11-4.02-7.5-9.83-9.99-16.77c-2.49-6.96-4.12-14.95-5.01-23.56c-1.22-11.68-1.97-23.53-4.05-35.1
		c-0.91-5.09-2.15-10.21-3.97-14.44c-0.9-2.12-2.02-3.93-3.22-5.45c-1.25-1.47-2.68-2.53-4.22-3.15c-1.07-0.48-2.26-0.63-3.42-0.75
		c-1.61-0.2-3.4,0.2-5.08,0.47c-0.84,0.14-1.65,0.21-2.44,0.23c-0.81,0.06-1.58,0.02-2.29-0.21c-0.31-0.1-0.72,0.15-1.11,0.61
		c-0.69,0.82-1.15,2.57-1.17,3.74c-0.03,1.17,0.27,1.91,0.56,2.6c0.76,1.67,1.35,3.71,2.01,5.5c0.48,1.28,0.87,2.76,1.36,4.01
		c0.48,1.28,1.08,2.31,1.75,3.26c0.7,0.9,1.59,1.48,2.66,1.61c1.05,0.17,2.24-0.05,3.6-0.92c0.27-0.17,0.53-0.38,0.78-0.57
		c2.72,4.33,4.63,9.95,6.01,16.11c1.42,6.12,2.32,12.81,3.16,19.53c1.7,13.46,3.04,27.18,7.64,38.42c3.75,9,9.51,15.23,15.11,20.79
		c5.66,5.62,10.95,10.54,15.02,18.42c2.54,5.16,4.64,10.95,7.45,16.1c2.82,4.99,6.6,8.78,11.56,8.65c-4.05-1-6.78-5.53-8.39-11.39
		c-0.41-1.46-0.77-2.95-1.1-4.44c-0.32-1.52-0.57-3.17-0.82-4.72c-0.24-1.54-0.48-3.07-0.71-4.59
		C328.45,194.76,328.24,193.26,328.01,191.84z"/>
	<path class="st22" d="M306.96,162.35c-4.11-4.02-7.5-9.83-9.99-16.77c-2.49-6.96-4.12-14.95-5.01-23.56
		c-1.22-11.68-1.97-23.53-4.05-35.1c-1.5-8.39-3.94-17.05-8.42-21.14c-0.47,2.71-0.45,5.43-0.07,7.86c0.4,2.41,1.08,4.62,1.9,6.4
		c2.04,4.22,4.7,8.09,4.64,14.38c-0.06,4-1.26,8.6-0.78,12.07c0.68,5.11,4.75,6.06,5.6,11.09c0.86,5.05-1.83,12.28-1.39,17.65
		c0.5,5.97,4.56,7.67,6.46,12.22c1.86,4.55,1.52,11.84,3.71,16.07c2.91,5.45,9.17,3.82,12.07,8.55c1.29,1.96,1.84,5.16,2.66,7.93
		c0.4,1.39,0.84,2.73,1.4,3.82c0.58,1.05,1.31,1.8,2.23,2.11c1.45,0.55,3.32-0.4,4.61,0.41c1.43,0.99,1.84,2.57,1.68,5.98
		c-0.21,4.28,0.65,5.65,1.59,6.36c0.94,0.73,1.94,0.87,2.43,2.41c0.56,1.86-0.08,4.05-0.18,6.36c-0.12,2.36,0.4,4.7,3.46,6.6
		c1.09,0.61,1.89,1.99,2.71,3.5c0.8,1.55,1.71,2.89,2.94,3.26c0.51,0.16,1.11,0.28,1.74,0.35c-1.85-0.79-3.48-2.04-4.71-4.25
		c-1.28-2.07-2.29-4.54-3.03-7.46c-0.39-1.41-0.73-2.85-1.04-4.29c-0.28-1.52-0.53-3.07-0.77-4.57c-0.23-1.48-0.46-2.96-0.68-4.42
		c-0.2-1.51-0.4-2.96-0.63-4.33c-1.37-8.67-4.11-13.45-7.96-17.6C316.24,170.14,311.42,166.7,306.96,162.35z"/>
	<path class="st21" d="M259.1,65.84c-1.06-0.21-1.91-1.32-1.93-3.67c-0.41,2.5,0.05,4.3,0.84,4.97c0.81,0.64,1.89,0.48,2.9,0.59
		c1.02,0.08,2.08,0.3,2.6,1.63c0.27,0.76,0.38,1.79,0.72,2.39c1.46,2.5,3.08-4.25,1.27-5.64c-0.87-0.71-2.06-0.53-3.17-0.43
		C261.2,65.82,260.1,65.99,259.1,65.84z"/>
	<g>
		<path class="st23" d="M270.06,67.79c0.76-0.66,1.64-0.59,2.19,0.25c0.26,0.4,0.43,0.95,0.5,1.56c0.08,0.67-0.02,1.35-0.14,2.06
			c-0.08,0.43,0.27,0.66,0.39,0.22c0.47-1.58,0.22-3.48-0.43-4.38c-0.66-0.96-1.71-1.03-2.58-0.18
			C269.82,67.48,269.88,67.95,270.06,67.79z"/>
	</g>
	<path class="st23" d="M272.2,70.63c-0.51,0.94-1.23,1.25-1.6,0.69c-0.37-0.56-0.27-1.79,0.23-2.75c0.5-0.96,1.21-1.27,1.6-0.69
		C272.82,68.46,272.71,69.69,272.2,70.63z"/>
	<g>
		<path class="st23" d="M260.86,68.53c0.41,0.46,0.92,0.68,1.5,0.64c0.54-0.05,1.26-0.24,1.84-0.96c0.16-0.21,0.22-0.66,0.03-0.63
			c-0.27,0.04-0.56,0.23-0.84,0.36c-0.28,0.13-0.55,0.21-0.82,0.24c-0.52,0.06-0.99-0.08-1.38-0.44
			C260.99,67.53,260.66,68.31,260.86,68.53z"/>
	</g>
	<path class="st22" d="M284.37,94.41c-0.48,0.64-1.05,0.68-1.27,0.09c-0.22-0.59-0.01-1.6,0.46-2.25c0.48-0.65,1.04-0.69,1.27-0.09
		C285.05,92.76,284.85,93.77,284.37,94.41z"/>
	<path class="st21" d="M288.1,104.39c-0.49,0.61-1.05,0.61-1.25-0.01c-0.2-0.62,0.03-1.62,0.52-2.23c0.49-0.62,1.05-0.62,1.25,0.01
		C288.82,102.78,288.59,103.78,288.1,104.39z"/>
	<path class="st21" d="M291.84,136.29c-0.5,0.58-1.05,0.54-1.24-0.09c-0.18-0.63,0.07-1.62,0.57-2.2c0.5-0.58,1.05-0.54,1.24,0.09
		C292.6,134.73,292.34,135.71,291.84,136.29z"/>
	<path class="st21" d="M301.61,162.66c-0.48,0.64-1.05,0.67-1.27,0.07c-0.22-0.6,0.01-1.61,0.49-2.24c0.49-0.63,1.04-0.64,1.26-0.05
		C302.3,161.02,302.09,162.02,301.61,162.66z"/>
	<path class="st21" d="M317.55,181.84c-0.42,0.75-1.01,1.02-1.27,0.52c-0.27-0.49-0.13-1.49,0.3-2.23c0.43-0.75,0.99-0.97,1.25-0.49
		C318.09,180.13,317.98,181.08,317.55,181.84z"/>
	<path class="st21" d="M326.81,195.58c-0.35,0.86-0.9,1.29-1.24,0.96c-0.34-0.33-0.33-1.28,0.03-2.13c0.36-0.85,0.91-1.28,1.24-0.97
		C327.17,193.77,327.15,194.72,326.81,195.58z"/>
	<path class="st21" d="M281.77,72.82c-0.45,0.71-1.04,0.84-1.32,0.28c-0.28-0.55-0.15-1.59,0.3-2.31c0.44-0.72,1.04-0.85,1.32-0.29
		C282.36,71.08,282.22,72.11,281.77,72.82z"/>
	<path class="st22" d="M289.24,120.76c-0.5,0.59-1.05,0.56-1.24-0.07c-0.19-0.63,0.07-1.61,0.56-2.2c0.5-0.59,1.05-0.56,1.24,0.07
		C289.99,119.18,289.74,120.17,289.24,120.76z"/>
	<path class="st22" d="M294.7,151.28c-0.49,0.6-1.05,0.57-1.25-0.07c-0.19-0.64,0.05-1.63,0.55-2.23c0.5-0.59,1.05-0.56,1.24,0.07
		C295.44,149.68,295.19,150.68,294.7,151.28z"/>
	<path class="st22" d="M310.36,174.29c-0.46,0.7-1.02,0.82-1.26,0.27c-0.24-0.55-0.06-1.55,0.4-2.24c0.46-0.69,1.03-0.81,1.26-0.27
		C310.99,172.58,310.81,173.59,310.36,174.29z"/>
	<path class="st22" d="M322.53,190.72c-0.39,0.83-0.95,1.17-1.25,0.74c-0.3-0.42-0.23-1.41,0.17-2.22c0.39-0.81,0.95-1.13,1.24-0.72
		C322.98,188.94,322.91,189.92,322.53,190.72z"/>
	<path class="st22" d="M327.44,203.24c-0.32,0.89-0.89,1.36-1.27,1.07c-0.39-0.27-0.39-1.32-0.06-2.17
		c0.34-0.89,0.87-1.27,1.25-1.01C327.72,201.41,327.76,202.36,327.44,203.24z"/>
</g>
<g>
	<path class="st24" d="M104.22,150.59c-3.75-11.28,4.39-16.7,11.47-22.8c6.54-5.58,9.83-13.89,9.25-23.31
		c-0.37-6.38-1.5-12.75-1.99-19.03c-0.44-5.55-0.49-11.29,3.66-14.59c0.66-0.61,1.48-1.14,2.31-1.66c2.33-1.46,5.57-2.4,7.02-4.46
		c0.16-0.23,0.53-0.34,0.97-0.34c0.78,0,1.81,0.58,2.31,1.16c0.5,0.58,0.61,1.14,0.7,1.68l0.68,4.09c0.32,1.97,0.64,3.98,0.04,5.63
		c-0.61,1.65-2.26,2.94-5.03,2.98c-0.28,0-0.55-0.01-0.83-0.03c-2.28,6.59-1.67,14.21-1.34,21.88c0.36,7.66,0.5,15.39-2.56,21.68
		c-2.45,5.11-7.01,8.94-11.07,12.91c-4.08,3.97-7.67,8.04-8.39,13.92c-0.9,7.44,2.85,16.52-0.95,22.48
		C112.51,166.93,106.7,158.03,104.22,150.59z"/>
	<path class="st25" d="M115.69,127.8c6.54-5.58,9.83-13.89,9.25-23.31c-0.37-6.38-1.5-12.75-1.99-19.03
		c-0.38-4.6-0.44-9.32,1.88-12.68c2.49,2.36,3.05,5.43,2.46,7.68c-0.7,2.73-2.29,5.25-1,8.53c0.83,2.08,2.81,4.34,2.94,6.3
		c0.17,2.88-3.61,3.95-3.74,6.7c-0.14,2.78,3.48,6.42,3.71,9.38c0.23,3.28-3.58,4.54-4.88,7.13c-1.27,2.6,0.12,6.53-1.37,9.02
		c-1.9,3.27-8.15,3.22-9.89,6.47c-1.55,2.73,0.41,7.59-2.46,9.36c-1.13,0.71-2.91,0.82-3.74,1.76c-0.93,1.07-0.76,2.2,0.43,4.07
		c2.92,4.63-0.5,4.48,0.07,6.71c0.66,2.6,5.07,3.49,3.26,8.53c-0.66,1.77,1.1,4.69,0.51,6.53c-0.12,0.38-0.3,0.79-0.51,1.21
		c1.47-5.85-4.01-14.39-6.39-21.56C100.47,139.31,108.61,133.89,115.69,127.8z"/>
	<path class="st24" d="M139.49,63.31c0.52-0.8,0.54-1.93-0.51-3.04c1.37,0.88,1.89,2.08,1.72,2.96c-0.17,0.88-0.9,1.51-1.54,2.17
		c-0.64,0.66-1.21,1.4-1.04,2.38c0.09,0.53,0.4,1.13,0.37,1.63c-0.12,2.1-3.78-0.62-3.02-2.2
		C136.22,65.63,138.52,64.79,139.49,63.31z"/>
	<g>
		<path class="st26" d="M132.82,70.25c-0.8,0-1.44,0.41-1.57,1.06c-0.06,0.31,0,0.66,0.16,1c0.18,0.38,0.45,0.68,0.78,0.99
			c0.19,0.19-0.01,0.44-0.25,0.26c-0.85-0.62-1.28-1.67-1.12-2.4c0.16-0.75,0.93-1.22,1.89-1.18
			C132.9,69.99,133.02,70.25,132.82,70.25z"/>
	</g>
	<path class="st26" d="M132.19,72.6c0.71,0.27,1.36,0.13,1.45-0.32c0.09-0.45-0.41-1.04-1.12-1.31c-0.71-0.27-1.36-0.13-1.45,0.32
		C130.97,71.75,131.48,72.33,132.19,72.6z"/>
	<g>
		<path class="st26" d="M139.53,65.77c-0.08,0.48-0.32,0.91-0.71,1.23c-0.37,0.3-0.9,0.62-1.61,0.56c-0.19-0.02-0.41-0.22-0.26-0.3
			c0.21-0.12,0.46-0.2,0.7-0.29c0.23-0.09,0.44-0.22,0.62-0.35c0.36-0.28,0.61-0.63,0.71-1.05
			C139.03,65.35,139.57,65.54,139.53,65.77z"/>
	</g>
	<path class="st25" d="M127.77,88.67c0.58,0.24,1.11,0.15,1.2-0.21c0.09-0.36-0.31-0.85-0.88-1.09c-0.58-0.24-1.11-0.15-1.2,0.21
		C126.8,87.94,127.19,88.43,127.77,88.67z"/>
	<path class="st24" d="M126.06,94.61c0.57,0.25,1.11,0.17,1.21-0.19c0.09-0.36-0.3-0.85-0.88-1.1c-0.57-0.25-1.11-0.16-1.2,0.19
		C125.1,93.87,125.49,94.36,126.06,94.61z"/>
	<path class="st24" d="M126.9,112.16c0.57,0.27,1.11,0.2,1.22-0.16c0.1-0.36-0.27-0.87-0.84-1.14c-0.57-0.27-1.11-0.2-1.22,0.16
		C125.95,111.38,126.33,111.89,126.9,112.16z"/>
	<path class="st24" d="M120.87,127.29c0.56,0.29,1.11,0.24,1.22-0.11c0.11-0.35-0.25-0.87-0.81-1.16c-0.56-0.29-1.11-0.24-1.22,0.11
		C119.94,126.48,120.3,127,120.87,127.29z"/>
	<path class="st24" d="M109.87,140.92c0.55,0.31,1.11,0.29,1.23-0.05c0.13-0.34-0.23-0.87-0.78-1.18c-0.56-0.31-1.1-0.29-1.23,0.05
		C108.97,140.08,109.32,140.61,109.87,140.92z"/>
	<path class="st24" d="M106.39,152.16c0.55,0.33,1.1,0.32,1.23-0.02c0.13-0.34-0.21-0.87-0.76-1.2c-0.55-0.32-1.1-0.32-1.23,0.02
		C105.5,151.3,105.84,151.84,106.39,152.16z"/>
	<path class="st24" d="M125.01,76.92c0.58,0.23,1.11,0.13,1.19-0.23c0.08-0.36-0.33-0.84-0.91-1.07c-0.58-0.23-1.11-0.13-1.19,0.23
		C124.02,76.21,124.43,76.69,125.01,76.92z"/>
	<path class="st25" d="M127.44,103.52c0.57,0.26,1.11,0.18,1.21-0.18c0.1-0.36-0.28-0.86-0.86-1.12c-0.57-0.26-1.11-0.18-1.21,0.18
		C126.49,102.76,126.87,103.26,127.44,103.52z"/>
	<path class="st25" d="M125.95,120.47c0.57,0.28,1.11,0.22,1.22-0.14c0.11-0.36-0.26-0.87-0.83-1.15c-0.57-0.28-1.11-0.22-1.22,0.14
		C125.02,119.67,125.39,120.19,125.95,120.47z"/>
	<path class="st25" d="M114.66,134.99c0.56,0.3,1.11,0.27,1.23-0.08c0.12-0.35-0.24-0.87-0.8-1.17c-0.56-0.3-1.11-0.27-1.22,0.08
		C113.75,134.16,114.11,134.69,114.66,134.99z"/>
	<path class="st25" d="M108.1,147.61c0.55,0.32,1.11,0.31,1.24-0.03c0.13-0.34-0.22-0.87-0.77-1.19c-0.55-0.32-1.1-0.3-1.23,0.03
		C107.21,146.76,107.55,147.29,108.1,147.61z"/>
	<path class="st25" d="M108.69,156.7c0.55,0.33,1.1,0.32,1.24-0.01c0.14-0.34-0.2-0.88-0.75-1.21c-0.55-0.33-1.1-0.32-1.24,0.01
		C107.81,155.83,108.14,156.37,108.69,156.7z"/>
</g>
<g>
	<path class="st27" d="M38.76,278.75L38.76,278.75c-0.92-0.47-1.38-1.51-1.02-2.31l45.6-99.82c0.36-0.79,1.41-1.05,2.33-0.58
		c0.92,0.47,1.38,1.51,1.02,2.31l-45.6,99.82C40.74,278.97,39.69,279.23,38.76,278.75z"/>
	<path class="st27" d="M60.88,290.15c-0.92-0.47-1.38-1.51-1.02-2.31l45.6-99.82c0.36-0.79,1.41-1.05,2.33-0.58l0,0
		c0.92,0.47,1.38,1.51,1.02,2.31l-45.6,99.82C62.85,290.36,61.8,290.62,60.88,290.15z"/>
	<polygon class="st27" points="102.89,197.59 81.36,186.5 82.51,183.97 104.04,195.06 	"/>
	<polygon class="st27" points="97.59,209.18 76.06,198.09 77.22,195.56 98.74,206.66 	"/>
	<polygon class="st27" points="92.29,220.78 70.76,209.69 71.92,207.16 93.45,218.25 	"/>
	<polygon class="st27" points="86.99,232.38 65.47,221.29 66.62,218.76 88.15,229.85 	"/>
	<polygon class="st27" points="81.7,243.97 60.17,232.88 61.32,230.36 82.85,241.45 	"/>
	<polygon class="st27" points="76.4,255.57 54.87,244.48 56.02,241.95 77.55,253.04 	"/>
	<polygon class="st27" points="71.1,267.17 49.57,256.08 50.73,253.55 72.25,264.64 	"/>
	<polygon class="st27" points="65.8,278.77 44.27,267.67 45.43,265.15 66.96,276.24 	"/>
	<path class="st27" d="M13.26,334.57c-0.92-0.47-1.38-1.51-1.02-2.31l29.85-65.34c0.36-0.79,1.41-1.05,2.33-0.58
		c0.92,0.47,1.38,1.51,1.02,2.31L15.6,333.99C15.24,334.79,14.19,335.05,13.26,334.57z"/>
	<path class="st27" d="M35.38,345.97c-0.92-0.47-1.38-1.51-1.02-2.31l29.85-65.34c0.36-0.79,1.41-1.05,2.33-0.58l0,0
		c0.92,0.47,1.38,1.51,1.02,2.31l-29.85,65.34C37.35,346.18,36.3,346.44,35.38,345.97z"/>
	<polygon class="st27" points="61.64,287.88 40.11,276.79 41.26,274.26 62.79,285.36 	"/>
	<polygon class="st27" points="56.34,299.48 34.81,288.39 35.97,285.86 57.49,296.95 	"/>
	<polygon class="st27" points="51.04,311.08 29.51,299.99 30.67,297.46 52.2,308.55 	"/>
	<polygon class="st27" points="45.74,322.67 24.22,311.58 25.37,309.05 46.9,320.15 	"/>
	<polygon class="st27" points="40.45,334.27 18.92,323.18 20.07,320.65 41.6,331.74 	"/>
</g>
<g>
	<path class="st27" d="M295.77,208.93c-0.7-0.4-1.02-1.39-0.7-2.19c8.76-22.28,18.3-44.11,28.57-65.43
		c0.37-0.77,1.22-1.01,1.89-0.53c0.67,0.47,0.92,1.49,0.55,2.25c-10.23,21.23-19.73,42.98-28.46,65.18
		C297.31,209.01,296.48,209.33,295.77,208.93z"/>
	<path class="st27" d="M312.65,218.58c-0.7-0.4-1.03-1.37-0.72-2.15c8.54-21.71,17.83-42.99,27.85-63.77
		c0.36-0.75,1.2-0.97,1.88-0.5h0c0.67,0.47,0.93,1.47,0.57,2.22c-9.97,20.69-19.23,41.89-27.74,63.51
		C314.18,218.68,313.35,218.98,312.65,218.58z"/>
	<polygon class="st27" points="336.88,161.73 321.07,150.9 322.22,148.44 338,159.34 	"/>
	<polygon class="st27" points="331.78,172.77 315.84,162.21 316.97,159.74 332.88,170.36 	"/>
	<polygon class="st27" points="326.82,183.89 310.76,173.62 311.85,171.13 327.89,181.46 	"/>
	<polygon class="st27" points="322,195.11 305.81,185.12 306.87,182.6 323.04,192.66 	"/>
	<polygon class="st27" points="317.31,206.4 301,196.7 302.04,194.17 318.32,203.93 	"/>
</g>
<g>
	<path class="st27" d="M191.42,296.63c0.64-0.37,1.44-0.18,1.77,0.42c13.92,25.19,26.51,51.15,37.69,77.73
		c0.27,0.63-0.07,1.39-0.75,1.69c-0.68,0.3-1.45,0.02-1.72-0.61c-11.15-26.48-23.69-52.35-37.56-77.46
		C190.52,297.8,190.78,297,191.42,296.63z"/>
	<path class="st27" d="M175.98,305.54c0.64-0.37,1.43-0.19,1.76,0.39c13.61,24.63,25.91,50.01,36.85,75.98
		c0.26,0.62-0.08,1.37-0.76,1.66c-0.68,0.3-1.45,0.03-1.71-0.58c-10.9-25.89-23.16-51.18-36.72-75.72
		C175.08,306.69,175.34,305.91,175.98,305.54z"/>
	<polygon class="st27" points="210.59,375.53 226.39,368.43 227.26,370.43 211.44,377.49 	"/>
	<polygon class="st27" points="206.65,366.55 222.36,359.25 223.25,361.24 207.52,368.5 	"/>
	<polygon class="st27" points="202.6,357.62 218.22,350.12 219.13,352.11 203.49,359.57 	"/>
	<polygon class="st27" points="198.43,348.75 213.96,341.05 214.9,343.02 199.35,350.68 	"/>
	<polygon class="st27" points="194.16,339.93 209.59,332.03 210.55,333.99 195.1,341.85 	"/>
	<polygon class="st27" points="189.78,331.16 205.11,323.07 206.1,325.02 190.74,333.07 	"/>
	<polygon class="st27" points="185.29,322.45 200.53,314.16 201.54,316.1 186.28,324.34 	"/>
	<polygon class="st27" points="180.7,313.8 195.83,305.32 196.87,307.24 181.71,315.68 	"/>
</g>
<g>
	<path class="st27" d="M211.26,149.51c-0.52,1.07-1.32,1.26-1.77,0.42c-12.72-23.34-24.77-48.05-36.08-74
		c-0.41-0.93-0.27-2.47,0.31-3.42c0.58-0.95,1.38-0.96,1.79-0.04c11.24,25.79,23.22,50.37,35.87,73.57
		C211.83,146.87,211.78,148.44,211.26,149.51z"/>
	<path class="st27" d="M223.69,123.77c-0.52,1.07-1.3,1.29-1.74,0.48c-12.23-22.44-23.82-46.21-34.69-71.15
		c-0.39-0.9-0.24-2.41,0.34-3.36c0.58-0.95,1.37-0.99,1.76-0.1c10.81,24.8,22.32,48.42,34.48,70.72
		C224.28,121.16,224.21,122.7,223.69,123.77z"/>
	<polygon class="st27" points="192.54,61.49 179.23,84.1 177.92,81.17 191.28,58.67 	"/>
	<polygon class="st27" points="198.42,74.32 185.34,97.43 184,94.54 197.13,71.54 	"/>
	<polygon class="st27" points="204.42,86.92 191.57,110.52 190.2,107.69 203.1,84.19 	"/>
	<polygon class="st27" points="210.55,99.28 197.94,123.37 196.54,120.59 209.2,96.61 	"/>
	<polygon class="st27" points="216.8,111.42 204.44,135.98 203.01,133.25 215.43,108.79 	"/>
</g>
</svg>
