<?xml version="1.0" encoding="utf-8"?>
<!-- Generator: Adobe Illustrator 24.3.0, SVG Export Plug-In . SVG Version: 6.00 Build 0)  -->
<svg version="1.1" id="Layer_1" xmlns="http://www.w3.org/2000/svg" xmlns:xlink="http://www.w3.org/1999/xlink" x="0px" y="0px"
	 viewBox="0 0 400 400" style="enable-background:new 0 0 400 400;" xml:space="preserve">
<style type="text/css">
	.st0{display:none;}
	.st1{display:inline;fill:#E04C38;}
	.st2{display:inline;fill:#7DD7DB;}
	.st3{display:inline;fill:#FCEEC4;}
	.st4{display:inline;fill:#F2B336;}
	.st5{display:inline;fill:#37EFB2;}
	.st6{display:inline;}
	.st7{fill:#FFFFFF;}
	.st8{font-family:'Montserrat-SemiBold';}
	.st9{font-size:13.4095px;}
	.st10{letter-spacing:1;}
	.st11{fill:#892E00;}
	.st12{fill:#591B00;}
	.st13{fill:#C13B00;}
	.st14{fill:#55AEFF;}
	.st15{fill:#339AD3;}
	.st16{fill:#35688C;}
	.st17{fill:#4AA8E7;}
	.st18{fill:#91FF03;}
	.st19{fill:#8FE300;}
	.st20{fill:#4E7806;}
	.st21{fill:#FF9808;}
	.st22{fill:#F28600;}
	.st23{fill:#C2781D;}
	.st24{fill:#F76531;}
	.st25{fill:#DB4619;}
	.st26{fill:#70483C;}
	.st27{fill:#DE6CFF;}
	.st28{fill:#BA4EE7;}
	.st29{fill:#826B8C;}
</style>
<g class="st0">
	<rect x="0.41" y="0.21" class="st1" width="39.96" height="39.96"/>
	<rect x="40.37" y="0.21" class="st2" width="39.96" height="39.96"/>
	<rect x="120.29" y="0.21" class="st3" width="39.96" height="39.96"/>
	<rect x="80.33" y="0.21" class="st4" width="39.96" height="39.96"/>
	<rect x="240.16" y="0.21" class="st2" width="39.96" height="39.96"/>
	<rect x="160.25" y="0.21" class="st5" width="39.96" height="39.96"/>
	<rect x="200.2" y="0.21" class="st4" width="39.96" height="39.96"/>
	<rect x="0.41" y="40.17" class="st3" width="39.96" height="39.96"/>
	<rect x="40.37" y="40.17" class="st4" width="39.96" height="39.96"/>
	<rect x="120.29" y="40.17" class="st5" width="39.96" height="39.96"/>
	<rect x="80.33" y="40.17" class="st2" width="39.96" height="39.96"/>
	<rect x="280.12" y="40.17" class="st5" width="39.96" height="39.96"/>
	<rect x="240.16" y="40.17" class="st1" width="39.96" height="39.96"/>
	<rect x="160.25" y="40.17" class="st1" width="39.96" height="39.96"/>
	<rect x="200.2" y="40.17" class="st2" width="39.96" height="39.96"/>
	<rect x="0.41" y="80.13" class="st2" width="39.96" height="39.96"/>
	<rect x="40.37" y="80.13" class="st1" width="39.96" height="39.96"/>
	<rect x="120.29" y="80.13" class="st3" width="39.96" height="39.96"/>
	<rect x="80.33" y="80.13" class="st5" width="39.96" height="39.96"/>
	<rect x="280.12" y="80.13" class="st4" width="39.96" height="39.96"/>
	<rect x="240.16" y="80.13" class="st5" width="39.96" height="39.96"/>
	<rect x="160.25" y="80.13" class="st4" width="39.96" height="39.96"/>
	<rect x="200.2" y="80.13" class="st3" width="39.96" height="39.96"/>
	<rect x="0.41" y="120.09" class="st5" width="39.96" height="39.96"/>
	<rect x="40.37" y="120.09" class="st4" width="39.96" height="39.96"/>
	<rect x="120.29" y="120.09" class="st1" width="39.96" height="39.96"/>
	<rect x="80.33" y="120.09" class="st3" width="39.96" height="39.96"/>
	<rect x="280.12" y="120.09" class="st2" width="39.96" height="39.96"/>
	<rect x="240.16" y="120.09" class="st4" width="39.96" height="39.96"/>
	<rect x="160.25" y="120.09" class="st2" width="39.96" height="39.96"/>
	<rect x="200.2" y="120.09" class="st1" width="39.96" height="39.96"/>
	<rect x="0.41" y="160.04" class="st1" width="39.96" height="39.96"/>
	<rect x="40.37" y="160.04" class="st2" width="39.96" height="39.96"/>
	<rect x="120.29" y="160.04" class="st3" width="39.96" height="39.96"/>
	<rect x="80.33" y="160.04" class="st4" width="39.96" height="39.96"/>
	<rect x="280.12" y="160.04" class="st1" width="39.96" height="39.96"/>
	<rect x="240.16" y="160.04" class="st2" width="39.96" height="39.96"/>
	<rect x="160.25" y="160.04" class="st5" width="39.96" height="39.96"/>
	<rect x="200.2" y="160.04" class="st4" width="39.96" height="39.96"/>
	<rect x="0.41" y="200" class="st3" width="39.96" height="39.96"/>
	<rect x="40.37" y="200" class="st4" width="39.96" height="39.96"/>
	<rect x="120.29" y="200" class="st5" width="39.96" height="39.96"/>
	<rect x="80.33" y="200" class="st2" width="39.96" height="39.96"/>
	<rect x="280.12" y="200" class="st5" width="39.96" height="39.96"/>
	<rect x="240.16" y="200" class="st1" width="39.96" height="39.96"/>
	<rect x="160.25" y="200" class="st1" width="39.96" height="39.96"/>
	<rect x="200.2" y="200" class="st2" width="39.96" height="39.96"/>
	<rect x="0.41" y="239.96" class="st2" width="39.96" height="39.96"/>
	<rect x="40.37" y="239.96" class="st1" width="39.96" height="39.96"/>
	<rect x="120.29" y="239.96" class="st3" width="39.96" height="39.96"/>
	<rect x="80.33" y="239.96" class="st5" width="39.96" height="39.96"/>
	<rect x="280.12" y="239.96" class="st4" width="39.96" height="39.96"/>
	<rect x="240.16" y="239.96" class="st5" width="39.96" height="39.96"/>
	<rect x="160.25" y="239.96" class="st4" width="39.96" height="39.96"/>
	<rect x="200.2" y="239.96" class="st3" width="39.96" height="39.96"/>
	<rect x="0.41" y="279.92" class="st5" width="39.96" height="39.96"/>
	<rect x="40.37" y="279.92" class="st4" width="39.96" height="39.96"/>
	<rect x="120.29" y="279.92" class="st1" width="39.96" height="39.96"/>
	<rect x="80.33" y="279.92" class="st3" width="39.96" height="39.96"/>
	<rect x="280.12" y="279.92" class="st2" width="39.96" height="39.96"/>
	<rect x="240.16" y="279.92" class="st4" width="39.96" height="39.96"/>
	<rect x="160.25" y="279.92" class="st2" width="39.96" height="39.96"/>
	<rect x="200.2" y="279.92" class="st1" width="39.96" height="39.96"/>
	<rect x="280.12" y="0.21" class="st1" width="39.96" height="39.96"/>
	<rect x="320.08" y="0.21" class="st5" width="39.96" height="39.96"/>
	<rect x="360.04" y="40.17" class="st4" width="39.96" height="39.96"/>
	<rect x="320.08" y="40.17" class="st3" width="39.96" height="39.96"/>
	<rect x="360.04" y="80.13" class="st2" width="39.96" height="39.96"/>
	<rect x="320.08" y="80.13" class="st1" width="39.96" height="39.96"/>
	<rect x="360.04" y="120.09" class="st5" width="39.96" height="39.96"/>
	<rect x="320.08" y="120.09" class="st3" width="39.96" height="39.96"/>
	<rect x="360.04" y="160.04" class="st3" width="39.96" height="39.96"/>
	<rect x="320.08" y="160.04" class="st5" width="39.96" height="39.96"/>
	<rect x="360.04" y="200" class="st4" width="39.96" height="39.96"/>
	<rect x="320.08" y="200" class="st3" width="39.96" height="39.96"/>
	<rect x="360.04" y="239.96" class="st2" width="39.96" height="39.96"/>
	<rect x="320.08" y="239.96" class="st1" width="39.96" height="39.96"/>
	<rect x="360.04" y="279.92" class="st5" width="39.96" height="39.96"/>
	<rect x="320.08" y="279.92" class="st3" width="39.96" height="39.96"/>
	<rect x="360.04" y="0.21" class="st3" width="39.96" height="39.96"/>
	<rect x="0.41" y="319.88" class="st1" width="39.96" height="39.96"/>
	<rect x="40.37" y="319.88" class="st2" width="39.96" height="39.96"/>
	<rect x="120.29" y="319.88" class="st3" width="39.96" height="39.96"/>
	<rect x="80.33" y="319.88" class="st4" width="39.96" height="39.96"/>
	<rect x="280.12" y="319.88" class="st1" width="39.96" height="39.96"/>
	<rect x="240.16" y="319.88" class="st2" width="39.96" height="39.96"/>
	<rect x="160.25" y="319.88" class="st5" width="39.96" height="39.96"/>
	<rect x="200.2" y="319.88" class="st4" width="39.96" height="39.96"/>
	<rect x="0.41" y="359.84" class="st3" width="39.96" height="39.96"/>
	<rect x="40.37" y="359.84" class="st4" width="39.96" height="39.96"/>
	<rect x="120.29" y="359.84" class="st5" width="39.96" height="39.96"/>
	<rect x="80.33" y="359.84" class="st2" width="39.96" height="39.96"/>
	<rect x="280.12" y="359.84" class="st5" width="39.96" height="39.96"/>
	<rect x="240.16" y="359.84" class="st1" width="39.96" height="39.96"/>
	<rect x="160.25" y="359.84" class="st1" width="39.96" height="39.96"/>
	<rect x="200.2" y="359.84" class="st2" width="39.96" height="39.96"/>
	<rect x="360.04" y="319.88" class="st3" width="39.96" height="39.96"/>
	<rect x="320.08" y="319.88" class="st5" width="39.96" height="39.96"/>
	<rect x="360.04" y="359.84" class="st4" width="39.96" height="39.96"/>
	<rect x="320.08" y="359.84" class="st3" width="39.96" height="39.96"/>
	<g class="st6">
		<g>
			<text transform="matrix(1 0 0 1 30.7764 377.4824)" class="st7 st8 st9 st10">1</text>
			<text transform="matrix(1 0 0 1 64.9209 377.4824)" class="st7 st8 st9 st10">2</text>
			<text transform="matrix(1 0 0 1 108.2627 377.4824)" class="st7 st8 st9 st10">3</text>
			<text transform="matrix(1 0 0 1 144.9834 377.4824)" class="st7 st8 st9 st10">4</text>
			<text transform="matrix(1 0 0 1 183.3535 377.4824)" class="st7 st8 st9 st10">5</text>
			<text transform="matrix(1 0 0 1 208.2383 377.4824)" class="st7 st8 st9 st10">6</text>
			<text transform="matrix(1 0 0 1 245.9014 377.4824)" class="st7 st8 st9 st10">7</text>
			<text transform="matrix(1 0 0 1 283.9717 377.4824)" class="st7 st8 st9 st10">8</text>
			<text transform="matrix(1 0 0 1 324.25 377.4824)" class="st7 st8 st9 st10">9</text>
			<text transform="matrix(1 0 0 1 365.2812 377.4824)" class="st7 st8 st9 st10">10</text>
		</g>
		<text transform="matrix(1 0 0 1 19.6006 336.3711)" class="st7 st8 st9 st10">20</text>
		<text transform="matrix(1 0 0 1 60.4512 336.3711)" class="st7 st8 st9 st10">19</text>
		<text transform="matrix(1 0 0 1 103.793 336.3711)" class="st7 st8 st9 st10">18</text>
		<text transform="matrix(1 0 0 1 140.5137 336.3711)" class="st7 st8 st9 st10">17</text>
		<text transform="matrix(1 0 0 1 178.8838 336.3711)" class="st7 st8 st9 st10">16</text>
		<text transform="matrix(1 0 0 1 203.7686 336.3711)" class="st7 st8 st9 st10">15</text>
		<text transform="matrix(1 0 0 1 241.4316 336.3711)" class="st7 st8 st9 st10">14</text>
		<text transform="matrix(1 0 0 1 279.502 336.3711)" class="st7 st8 st9 st10">13</text>
		<text transform="matrix(1 0 0 1 319.7803 336.3711)" class="st7 st8 st9 st10">12</text>
		<text transform="matrix(1 0 0 1 360.8105 336.3711)" class="st7 st8 st9 st10">11</text>
		<text transform="matrix(1 0 0 1 20.6807 295.2568)" class="st7 st8 st9 st10">21</text>
		<text transform="matrix(1 0 0 1 58.2168 295.2568)" class="st7 st8 st9 st10">22</text>
		<text transform="matrix(1 0 0 1 103.793 295.2568)" class="st7 st8 st9 st10">23</text>
		<text transform="matrix(1 0 0 1 140.5137 295.2568)" class="st7 st8 st9 st10">24</text>
		<text transform="matrix(1 0 0 1 181.1182 295.2568)" class="st7 st8 st9 st10">25</text>
		<text transform="matrix(1 0 0 1 210.4746 295.2568)" class="st7 st8 st9 st10">26</text>
		<text transform="matrix(1 0 0 1 248.1357 295.2568)" class="st7 st8 st9 st10">27</text>
		<text transform="matrix(1 0 0 1 288.4414 295.2568)" class="st7 st8 st9 st10">28</text>
		<text transform="matrix(1 0 0 1 328.7197 295.2568)" class="st7 st8 st9 st10">29</text>
		<text transform="matrix(1 0 0 1 365.2812 295.2568)" class="st7 st8 st9 st10">30</text>
		<text transform="matrix(1 0 0 1 12.8965 256.1328)" class="st7 st8 st9 st10">40</text>
		<text transform="matrix(1 0 0 1 60.4512 256.1328)" class="st7 st8 st9 st10">39</text>
		<text transform="matrix(1 0 0 1 101.5576 256.1328)" class="st7 st8 st9 st10">38</text>
		<text transform="matrix(1 0 0 1 140.5137 256.1328)" class="st7 st8 st9 st10">37</text>
		<text transform="matrix(1 0 0 1 181.1182 256.1328)" class="st7 st8 st9 st10">36</text>
		<text transform="matrix(1 0 0 1 210.4746 256.1328)" class="st7 st8 st9 st10">35</text>
		<text transform="matrix(1 0 0 1 248.1357 256.1328)" class="st7 st8 st9 st10">34</text>
		<text transform="matrix(1 0 0 1 288.4414 256.1328)" class="st7 st8 st9 st10">33</text>
		<text transform="matrix(1 0 0 1 328.7197 256.1328)" class="st7 st8 st9 st10">32</text>
		<text transform="matrix(1 0 0 1 365.2812 256.1328)" class="st7 st8 st9 st10">31</text>
		<text transform="matrix(1 0 0 1 23.4092 215.0195)" class="st7 st8 st9 st10">41</text>
		<text transform="matrix(1 0 0 1 59.7891 215.0195)" class="st7 st8 st9 st10">42</text>
		<text transform="matrix(1 0 0 1 100.8945 215.0195)" class="st7 st8 st9 st10">43</text>
		<text transform="matrix(1 0 0 1 139.8506 215.0195)" class="st7 st8 st9 st10">44</text>
		<text transform="matrix(1 0 0 1 180.4551 215.0195)" class="st7 st8 st9 st10">45</text>
		<text transform="matrix(1 0 0 1 209.8105 215.0195)" class="st7 st8 st9 st10">46</text>
		<text transform="matrix(1 0 0 1 247.4736 215.0195)" class="st7 st8 st9 st10">47</text>
		<text transform="matrix(1 0 0 1 287.7803 215.0195)" class="st7 st8 st9 st10">48</text>
		<text transform="matrix(1 0 0 1 328.0566 215.0195)" class="st7 st8 st9 st10">49</text>
		<text transform="matrix(1 0 0 1 364.6182 215.0195)" class="st7 st8 st9 st10">50</text>
		<text transform="matrix(1 0 0 1 14.4697 176.5596)" class="st7 st8 st9 st10">60</text>
		<text transform="matrix(1 0 0 1 59.7891 176.5596)" class="st7 st8 st9 st10">59</text>
		<text transform="matrix(1 0 0 1 100.8945 176.5596)" class="st7 st8 st9 st10">58</text>
		<text transform="matrix(1 0 0 1 139.8506 176.5596)" class="st7 st8 st9 st10">57</text>
		<text transform="matrix(1 0 0 1 180.4551 176.5596)" class="st7 st8 st9 st10">56</text>
		<text transform="matrix(1 0 0 1 209.8105 176.5596)" class="st7 st8 st9 st10">55</text>
		<text transform="matrix(1 0 0 1 247.4736 176.5596)" class="st7 st8 st9 st10">54</text>
		<text transform="matrix(1 0 0 1 287.7803 176.5596)" class="st7 st8 st9 st10">53</text>
		<text transform="matrix(1 0 0 1 328.0566 176.5596)" class="st7 st8 st9 st10">52</text>
		<text transform="matrix(1 0 0 1 364.6182 176.5596)" class="st7 st8 st9 st10">51</text>
		<text transform="matrix(1 0 0 1 23.4092 136.1094)" class="st7 st8 st9 st10">61</text>
		<text transform="matrix(1 0 0 1 59.7891 136.1094)" class="st7 st8 st9 st10">62</text>
		<text transform="matrix(1 0 0 1 100.8945 136.1094)" class="st7 st8 st9 st10">63</text>
		<text transform="matrix(1 0 0 1 139.8506 136.1094)" class="st7 st8 st9 st10">64</text>
		<text transform="matrix(1 0 0 1 180.4551 136.1094)" class="st7 st8 st9 st10">65</text>
		<text transform="matrix(1 0 0 1 209.8105 136.1094)" class="st7 st8 st9 st10">66</text>
		<text transform="matrix(1 0 0 1 247.4736 136.1094)" class="st7 st8 st9 st10">67</text>
		<text transform="matrix(1 0 0 1 287.7803 136.1094)" class="st7 st8 st9 st10">68</text>
		<text transform="matrix(1 0 0 1 328.0566 136.1094)" class="st7 st8 st9 st10">69</text>
		<text transform="matrix(1 0 0 1 364.6182 136.1094)" class="st7 st8 st9 st10">70</text>
		<text transform="matrix(1 0 0 1 16.7041 96.3232)" class="st7 st8 st9 st10">80</text>
		<text transform="matrix(1 0 0 1 59.7891 96.3232)" class="st7 st8 st9 st10">79</text>
		<text transform="matrix(1 0 0 1 100.8945 96.3232)" class="st7 st8 st9 st10">78</text>
		<text transform="matrix(1 0 0 1 139.8506 96.3232)" class="st7 st8 st9 st10">77</text>
		<text transform="matrix(1 0 0 1 180.4551 96.3232)" class="st7 st8 st9 st10">76</text>
		<text transform="matrix(1 0 0 1 209.8105 96.3232)" class="st7 st8 st9 st10">75</text>
		<text transform="matrix(1 0 0 1 247.4736 96.3232)" class="st7 st8 st9 st10">74</text>
		<text transform="matrix(1 0 0 1 287.7803 96.3232)" class="st7 st8 st9 st10">73</text>
		<text transform="matrix(1 0 0 1 328.0566 96.3232)" class="st7 st8 st9 st10">72</text>
		<text transform="matrix(1 0 0 1 364.6182 96.3232)" class="st7 st8 st9 st10">71</text>
		<text transform="matrix(1 0 0 1 23.4092 55.209)" class="st7 st8 st9 st10">81</text>
		<text transform="matrix(1 0 0 1 59.7891 55.209)" class="st7 st8 st9 st10">82</text>
		<text transform="matrix(1 0 0 1 100.8945 55.209)" class="st7 st8 st9 st10">83</text>
		<text transform="matrix(1 0 0 1 139.8506 55.209)" class="st7 st8 st9 st10">84</text>
		<text transform="matrix(1 0 0 1 180.4551 55.209)" class="st7 st8 st9 st10">85</text>
		<text transform="matrix(1 0 0 1 209.8105 55.209)" class="st7 st8 st9 st10">86</text>
		<text transform="matrix(1 0 0 1 247.4736 55.209)" class="st7 st8 st9 st10">87</text>
		<text transform="matrix(1 0 0 1 287.7803 55.209)" class="st7 st8 st9 st10">88</text>
		<text transform="matrix(1 0 0 1 328.0566 55.209)" class="st7 st8 st9 st10">89</text>
		<text transform="matrix(1 0 0 1 364.6182 55.209)" class="st7 st8 st9 st10">90</text>
		<text transform="matrix(1 0 0 1 8.0977 16.749)" class="st7 st8 st9 st10">100</text>
		<text transform="matrix(1 0 0 1 59.7891 16.749)" class="st7 st8 st9 st10">99</text>
		<text transform="matrix(1 0 0 1 100.8945 16.749)" class="st7 st8 st9 st10">98</text>
		<text transform="matrix(1 0 0 1 139.8506 16.749)" class="st7 st8 st9 st10">97</text>
		<text transform="matrix(1 0 0 1 180.4551 16.749)" class="st7 st8 st9 st10">96</text>
		<text transform="matrix(1 0 0 1 209.8105 16.749)" class="st7 st8 st9 st10">95</text>
		<text transform="matrix(1 0 0 1 247.4736 16.749)" class="st7 st8 st9 st10">94</text>
		<text transform="matrix(1 0 0 1 287.7803 16.749)" class="st7 st8 st9 st10">93</text>
		<text transform="matrix(1 0 0 1 328.0566 16.749)" class="st7 st8 st9 st10">92</text>
		<text transform="matrix(1 0 0 1 364.6182 16.749)" class="st7 st8 st9 st10">91</text>
	</g>
</g>
<g>
	<g>
		<g>
			<path class="st11" d="M219.68,133.38L219.68,133.38c0.53-0.45,0.66-1.43,0.29-2.2L185.95,61.1c-0.37-0.77-1.11-1.03-1.64-0.59
				l0,0c-0.53,0.45-0.66,1.43-0.29,2.2l34.02,70.07C218.42,133.56,219.15,133.82,219.68,133.38z"/>
			<path class="st12" d="M218.04,132.79l-34.02-70.07c-0.31-0.64-0.27-1.43,0.06-1.94c0.25-0.06,0.53,0.09,0.69,0.42l34.63,71.33
				c0.16,0.33,0.15,0.72,0,1C218.92,133.72,218.36,133.43,218.04,132.79z"/>
		</g>
		<g>
			<path class="st11" d="M212.16,139.69L212.16,139.69c-0.53,0.45-1.27,0.18-1.64-0.59L176.5,69.04c-0.37-0.77-0.25-1.76,0.29-2.2
				l0,0c0.53-0.45,1.27-0.18,1.64,0.59l34.02,70.07C212.82,138.26,212.69,139.25,212.16,139.69z"/>
			<path class="st12" d="M212.45,137.49l-34.02-70.07c-0.31-0.64-0.88-0.93-1.36-0.74c-0.15,0.28-0.16,0.67,0,1l34.63,71.33
				c0.16,0.33,0.44,0.48,0.69,0.42C212.72,138.92,212.76,138.13,212.45,137.49z"/>
		</g>
	</g>
	<path class="st13" d="M187.89,87.66l6.68-3.25c0.31-0.15,0.44-0.52,0.29-0.83l0,0c-0.15-0.31-0.52-0.44-0.83-0.29l-6.68,3.25
		c-0.31,0.15-0.44,0.52-0.29,0.83l0,0C187.2,87.68,187.58,87.81,187.89,87.66z"/>
	<path class="st13" d="M184.38,80.46l6.68-3.25c0.31-0.15,0.44-0.52,0.29-0.83l0,0c-0.15-0.31-0.52-0.44-0.83-0.29l-6.68,3.25
		c-0.31,0.15-0.44,0.52-0.29,0.83l0,0C183.69,80.48,184.07,80.61,184.38,80.46z"/>
	<path class="st13" d="M181.44,73.26l6.68-3.25c0.31-0.15,0.44-0.52,0.29-0.83l0,0c-0.15-0.31-0.52-0.44-0.83-0.29l-6.68,3.25
		c-0.31,0.15-0.44,0.52-0.29,0.83l0,0C180.76,73.28,181.13,73.41,181.44,73.26z"/>
	<path class="st13" d="M192,96.1l6.68-3.25c0.31-0.15,0.44-0.52,0.29-0.83l0,0c-0.15-0.31-0.52-0.44-0.83-0.29l-6.68,3.25
		c-0.31,0.15-0.44,0.52-0.29,0.83l0,0C191.32,96.13,191.69,96.26,192,96.1z"/>
	<path class="st13" d="M196.11,104.55l6.68-3.25c0.31-0.15,0.44-0.52,0.29-0.83l0,0c-0.15-0.31-0.52-0.44-0.83-0.29l-6.68,3.25
		c-0.31,0.15-0.44,0.52-0.29,0.83l0,0C195.43,104.57,195.8,104.7,196.11,104.55z"/>
	<path class="st13" d="M200.23,112.99l6.68-3.25c0.31-0.15,0.44-0.52,0.29-0.83l0,0c-0.15-0.31-0.52-0.44-0.83-0.29l-6.68,3.25
		c-0.31,0.15-0.44,0.52-0.29,0.83l0,0C199.54,113.02,199.92,113.14,200.23,112.99z"/>
	<path class="st13" d="M204.34,121.44l6.68-3.25c0.31-0.15,0.44-0.52,0.29-0.83l0,0c-0.15-0.31-0.52-0.44-0.83-0.29l-6.68,3.25
		c-0.31,0.15-0.44,0.52-0.29,0.83l0,0C203.66,121.46,204.03,121.59,204.34,121.44z"/>
	<path class="st13" d="M208.45,129.88l6.68-3.25c0.31-0.15,0.44-0.52,0.29-0.83l0,0c-0.15-0.31-0.52-0.44-0.83-0.29l-6.68,3.25
		c-0.31,0.15-0.44,0.52-0.29,0.83l0,0C207.77,129.9,208.14,130.03,208.45,129.88z"/>
</g>
<g>
	<g>
		<g>
			<path class="st11" d="M215.04,385.44L215.04,385.44c-0.56,0.39-1.29,0.03-1.63-0.82l-31.5-77.22c-0.35-0.85-0.18-1.86,0.38-2.25
				l0,0c0.56-0.39,1.29-0.03,1.63,0.82l31.5,77.22C215.76,384.04,215.59,385.05,215.04,385.44z"/>
			<path class="st12" d="M215.42,383.19l-31.51-77.22c-0.29-0.71-0.85-1.08-1.35-0.95c-0.16,0.27-0.19,0.68-0.04,1.04l32.07,78.61
				c0.15,0.36,0.42,0.56,0.68,0.53C215.63,384.72,215.71,383.9,215.42,383.19z"/>
		</g>
		<g>
			<path class="st11" d="M222.89,379.86L222.89,379.86c0.56-0.39,0.73-1.4,0.38-2.25l-31.5-77.22c-0.35-0.85-1.08-1.22-1.63-0.82
				l0,0c-0.56,0.39-0.72,1.4-0.38,2.25l31.5,77.22C221.61,379.89,222.34,380.26,222.89,379.86z"/>
			<path class="st12" d="M221.26,379.04l-31.51-77.22c-0.29-0.71-0.21-1.52,0.14-2.01c0.26-0.03,0.53,0.17,0.68,0.53l32.07,78.61
				c0.15,0.36,0.12,0.77-0.04,1.04C222.11,380.12,221.55,379.75,221.26,379.04z"/>
		</g>
	</g>
	<path class="st13" d="M201.92,331.54l-6.8,2.98c-0.32,0.14-0.68-0.01-0.82-0.32l0,0c-0.14-0.32,0.01-0.68,0.32-0.82l6.8-2.98
		c0.32-0.14,0.68,0.01,0.82,0.32l0,0C202.38,331.04,202.23,331.4,201.92,331.54z"/>
	<path class="st13" d="M205.69,340.14l-6.8,2.98c-0.32,0.14-0.68-0.01-0.82-0.32l0,0c-0.14-0.32,0.01-0.68,0.32-0.82l6.8-2.98
		c0.32-0.14,0.68,0.01,0.82,0.32l0,0C206.15,339.64,206,340.01,205.69,340.14z"/>
	<path class="st13" d="M194.51,313.87l-6.8,2.98c-0.32,0.14-0.68-0.01-0.82-0.32l0,0c-0.14-0.32,0.01-0.68,0.32-0.82l6.8-2.98
		c0.32-0.14,0.68,0.01,0.82,0.32l0,0C194.97,313.36,194.83,313.73,194.51,313.87z"/>
	<path class="st13" d="M198.29,322.47l-6.8,2.98c-0.32,0.14-0.68-0.01-0.82-0.32l0,0c-0.14-0.32,0.01-0.68,0.32-0.82l6.8-2.98
		c0.32-0.14,0.68,0.01,0.82,0.32l0,0C198.75,321.97,198.6,322.33,198.29,322.47z"/>
	<path class="st13" d="M209.46,348.75l-6.8,2.98c-0.32,0.14-0.68-0.01-0.82-0.32l0,0c-0.14-0.32,0.01-0.68,0.32-0.82l6.8-2.98
		c0.32-0.14,0.68,0.01,0.82,0.32l0,0C209.92,348.24,209.78,348.61,209.46,348.75z"/>
	<path class="st13" d="M213.23,357.35l-6.8,2.98c-0.32,0.14-0.68-0.01-0.82-0.32l0,0c-0.14-0.32,0.01-0.68,0.32-0.82l6.8-2.98
		c0.32-0.14,0.68,0.01,0.82,0.32l0,0C213.69,356.84,213.55,357.21,213.23,357.35z"/>
	<path class="st13" d="M217,365.95l-6.8,2.98c-0.32,0.14-0.68-0.01-0.82-0.32l0,0c-0.14-0.32,0.01-0.68,0.32-0.82l6.8-2.98
		c0.32-0.14,0.68,0.01,0.82,0.32l0,0C217.46,365.45,217.32,365.81,217,365.95z"/>
	<path class="st13" d="M220.77,374.56l-6.8,2.98c-0.32,0.14-0.68-0.01-0.82-0.32l0,0c-0.14-0.32,0.01-0.68,0.32-0.82l6.8-2.98
		c0.32-0.14,0.68,0.01,0.82,0.32l0,0C221.23,374.05,221.09,374.42,220.77,374.56z"/>
</g>
<g>
	<g>
		<path class="st11" d="M21.28,332.94L21.28,332.94c-0.36-0.94-0.07-3.03,0.65-4.68l64.99-149.93c0.71-1.65,1.58-2.23,1.94-1.29l0,0
			c0.36,0.94,0.07,3.03-0.65,4.68L23.22,331.65C22.5,333.3,21.64,333.88,21.28,332.94z"/>
		<path class="st12" d="M23.22,331.65l65-149.94c0.6-1.38,0.89-3.06,0.76-4.12c-0.24-0.12-0.59,0.22-0.89,0.92L21.93,331.14
			c-0.3,0.7-0.46,1.54-0.43,2.13C21.92,333.64,22.62,333.03,23.22,331.65z"/>
	</g>
	<g>
		<path class="st11" d="M29.94,340.62L29.94,340.62c0.36,0.94,1.24,0.34,1.96-1.35l66.04-153.51c0.73-1.69,1.02-3.82,0.67-4.76l0,0
			c-0.36-0.94-1.24-0.34-1.96,1.35L30.61,335.86C29.88,337.55,29.59,339.68,29.94,340.62z"/>
		<path class="st12" d="M30.61,335.86l66.04-153.51c0.61-1.41,1.32-2.05,1.74-1.68c0.03,0.59-0.13,1.45-0.44,2.17L30.73,339.11
			c-0.31,0.72-0.66,1.06-0.9,0.95C29.7,338.98,30,337.27,30.61,335.86z"/>
	</g>
	<g>
		<path class="st13" d="M52.78,283.15l-6.8-2.99c-0.32-0.14-0.46-0.51-0.32-0.82l0,0c0.14-0.32,0.51-0.46,0.82-0.32l6.8,2.99
			c0.32,0.14,0.46,0.51,0.32,0.82l0,0C53.47,283.15,53.1,283.29,52.78,283.15z"/>
		<path class="st13" d="M49,291.75l-6.8-2.99c-0.32-0.14-0.46-0.51-0.32-0.82l0,0c0.14-0.32,0.51-0.46,0.82-0.32l6.8,2.99
			c0.32,0.14,0.46,0.51,0.32,0.82l0,0C49.69,291.75,49.32,291.89,49,291.75z"/>
		<path class="st13" d="M45.22,300.35l-6.8-2.99c-0.32-0.14-0.46-0.51-0.32-0.82l0,0c0.14-0.32,0.51-0.46,0.82-0.32l6.8,2.99
			c0.32,0.14,0.46,0.51,0.32,0.82l0,0C45.91,300.35,45.54,300.49,45.22,300.35z"/>
		<path class="st13" d="M41.44,308.95l-6.8-2.99c-0.32-0.14-0.46-0.51-0.32-0.82l0,0c0.14-0.32,0.51-0.46,0.82-0.32l6.8,2.99
			c0.32,0.14,0.46,0.51,0.32,0.82l0,0C42.12,308.94,41.76,309.09,41.44,308.95z"/>
		<path class="st13" d="M37.66,317.55l-6.8-2.99c-0.32-0.14-0.46-0.51-0.32-0.82l0,0c0.14-0.32,0.51-0.46,0.82-0.32l6.8,2.99
			c0.32,0.14,0.46,0.51,0.32,0.82l0,0C38.34,317.54,37.97,317.69,37.66,317.55z"/>
		<path class="st13" d="M33.88,326.15l-6.8-2.99c-0.32-0.14-0.46-0.51-0.32-0.82l0,0c0.14-0.32,0.51-0.46,0.82-0.32l6.8,2.99
			c0.32,0.14,0.46,0.51,0.32,0.82l0,0C34.56,326.14,34.19,326.28,33.88,326.15z"/>
	</g>
	<g>
		<path class="st13" d="M75.51,231.49l-6.8-2.99c-0.32-0.14-0.46-0.51-0.32-0.82l0,0c0.14-0.32,0.51-0.46,0.82-0.32l6.8,2.99
			c0.32,0.14,0.46,0.51,0.32,0.82l0,0C76.19,231.49,75.82,231.63,75.51,231.49z"/>
		<path class="st13" d="M71.72,240.09l-6.8-2.99c-0.32-0.14-0.46-0.51-0.32-0.82l0,0c0.14-0.32,0.51-0.46,0.82-0.32l6.8,2.99
			c0.32,0.14,0.46,0.51,0.32,0.82l0,0C72.41,240.09,72.04,240.23,71.72,240.09z"/>
		<path class="st13" d="M67.94,248.69l-6.8-2.99c-0.32-0.14-0.46-0.51-0.32-0.82l0,0c0.14-0.32,0.51-0.46,0.82-0.32l6.8,2.99
			c0.32,0.14,0.46,0.51,0.32,0.82l0,0C68.63,248.68,68.26,248.83,67.94,248.69z"/>
		<path class="st13" d="M64.16,257.29l-6.8-2.99c-0.32-0.14-0.46-0.51-0.32-0.82l0,0c0.14-0.32,0.51-0.46,0.82-0.32l6.8,2.99
			c0.32,0.14,0.46,0.51,0.32,0.82l0,0C64.85,257.28,64.48,257.43,64.16,257.29z"/>
		<path class="st13" d="M60.38,265.88l-6.8-2.99c-0.32-0.14-0.46-0.51-0.32-0.82l0,0c0.14-0.32,0.51-0.46,0.82-0.32l6.8,2.99
			c0.32,0.14,0.46,0.51,0.32,0.82l0,0C61.06,265.88,60.7,266.02,60.38,265.88z"/>
		<path class="st13" d="M56.6,274.48l-6.8-2.99c-0.32-0.14-0.46-0.51-0.32-0.82l0,0c0.14-0.32,0.51-0.46,0.82-0.32l6.8,2.99
			c0.32,0.14,0.46,0.51,0.32,0.82l0,0C57.28,274.48,56.91,274.62,56.6,274.48z"/>
	</g>
	<path class="st13" d="M89.6,198.13l-6.8-2.99c-0.32-0.14-0.46-0.51-0.32-0.82l0,0c0.14-0.32,0.51-0.46,0.82-0.32l6.8,2.99
		c0.32,0.14,0.46,0.51,0.32,0.82l0,0C90.29,198.13,89.92,198.27,89.6,198.13z"/>
	<path class="st13" d="M85.82,206.73l-6.8-2.99c-0.32-0.14-0.46-0.51-0.32-0.82l0,0c0.14-0.32,0.51-0.46,0.82-0.32l6.8,2.99
		c0.32,0.14,0.46,0.51,0.32,0.82l0,0C86.51,206.73,86.14,206.87,85.82,206.73z"/>
	<path class="st13" d="M82.04,215.33l-6.8-2.99c-0.32-0.14-0.46-0.51-0.32-0.82l0,0c0.14-0.32,0.51-0.46,0.82-0.32l6.8,2.99
		c0.32,0.14,0.46,0.51,0.32,0.82l0,0C82.73,215.33,82.36,215.47,82.04,215.33z"/>
	<path class="st13" d="M78.26,223.93l-6.8-2.99c-0.32-0.14-0.46-0.51-0.32-0.82l0,0c0.14-0.32,0.51-0.46,0.82-0.32l6.8,2.99
		c0.32,0.14,0.46,0.51,0.32,0.82l0,0C78.94,223.93,78.58,224.07,78.26,223.93z"/>
</g>
<g>
	<path class="st14" d="M286.58,345.66c-1.55-8.41-4.29-14.64-7.92-21.22c-1.82-3.25-3.77-6.59-5.81-10.01
		c-1.99-3.44-4.08-7.08-6.02-10.82c-3.61-6.93-6.38-14.92-8.38-23.15c-2-8.26-3.25-16.77-3.99-25.36
		c-0.51-5.84-0.99-11.64-1.7-17.52c-0.72-5.92-1.74-11.89-3.24-17.9c-1.32-5.28-3.03-10.78-5.48-15.54
		c-2.42-4.76-5.48-8.85-9.04-11.08c-1.22-0.84-2.53-1.4-3.77-1.92c-3.65-1.29-7.23-0.94-10.5-2.1c-0.36-0.14-0.74-0.03-1.06,0.32
		c-0.57,0.61-0.68,1.93-0.47,2.89c0.21,0.97,0.66,1.63,1.1,2.26c0.56,0.76,1.1,1.58,1.6,2.45c0.51,0.86,1.03,1.63,1.5,2.53
		c1.38,2.53,2.65,5.1,4.31,7.09c1.69,1.95,3.93,3.33,6.47,2.95c0.25-0.04,0.49-0.11,0.73-0.17c3.28,5.02,5.7,11.09,7.46,17.41
		c1.77,6.36,2.84,12.9,3.67,19.53c1.66,13.26,2.43,26.68,6.11,40.13c2.98,10.84,7.82,21.1,12.86,30.57
		c5.08,9.56,10.16,17.91,14.28,27.73c2.64,6.25,4.81,12.8,7.99,18.85c3.13,5.97,7.41,11.44,12.96,13.54
		c-4.62-2.56-7.77-8.06-9.72-13.86C288.53,357.36,287.6,351.22,286.58,345.66z"/>
	<path class="st15" d="M266.82,303.6c-3.61-6.93-6.38-14.92-8.38-23.15c-2-8.26-3.25-16.77-3.99-25.36
		c-0.51-5.84-0.99-11.64-1.7-17.52c-0.72-5.92-1.74-11.89-3.24-17.9c-2.1-8.75-5.69-18.09-11.03-23.72
		c-0.22,4.57,1.73,9.73,3.76,13.82c2.51,4.87,5.54,9.93,5.87,15.77c0.2,3.69-0.74,7.22-0.17,10.7c0.82,5.07,4.62,8.66,5.43,13.92
		c0.8,5.28-1.8,10.04-1.52,15.24c0.31,5.79,3.96,10.33,5.5,15.92c1.53,5.57,0.86,11.93,2.67,17.47c2.38,7.22,8.17,10.82,10.73,17.29
		c1.12,2.78,1.61,6.02,2.32,9.15c0.37,1.54,0.76,3.07,1.31,4.45c0.56,1.36,1.23,2.6,2.12,3.56c1.47,1.49,3.22,2.13,4.52,3.74
		c1.42,1.9,1.86,3.56,1.71,6.44c-0.1,3.47,0.73,5.39,1.72,6.59c0.98,1.27,2.01,2.03,2.55,3.68c0.62,1.95,0,3.44-0.02,5.29
		c0.01,1.8,0.52,4.32,3.9,7.67c1.2,1.14,2.11,2.78,3.06,4.49c1,1.57,2.02,3.31,3.41,4.22c0.57,0.37,1.25,0.75,1.96,1.1
		c-4.28-2.82-7.19-8.19-9-13.85c-1.84-5.7-2.75-11.59-3.74-16.96c-1.55-8.41-4.29-14.64-7.92-21.22c-1.82-3.25-3.77-6.59-5.81-10.01
		C270.85,310.98,268.77,307.34,266.82,303.6z"/>
	<path class="st14" d="M216.73,190.31c-1.17-0.29-2.34-1.12-2.92-3.02c0.15,1.98,1.05,3.41,2.05,3.96c0.98,0.62,2.08,0.67,3.21,0.78
		c1.08,0.25,2.26,0.62,3.07,1.84c0.43,0.69,0.74,1.58,1.22,2.15c1.98,2.45,2.52-2.86,0.28-4.44
		C221.43,190.07,218.85,190.87,216.73,190.31z"/>
	<g>
		<path class="st16" d="M228.81,194.22c0.71-0.38,1.64,0.03,2.36,0.95c0.34,0.44,0.61,0.99,0.79,1.55c0.2,0.61,0.19,1.18,0.18,1.77
			c-0.01,0.35,0.38,0.68,0.45,0.34c0.25-1.22-0.31-2.99-1.16-4.01c-0.86-1.09-1.97-1.51-2.78-1
			C228.5,193.9,228.65,194.3,228.81,194.22z"/>
	</g>
	<path class="st16" d="M231.55,197.42c-0.39,0.64-1.09,0.67-1.57,0.05s-0.57-1.66-0.2-2.33c0.36-0.67,1.07-0.7,1.57-0.05
		C231.85,195.74,231.94,196.78,231.55,197.42z"/>
	<g>
		<path class="st16" d="M219.17,192.69c0.52,0.45,1.1,0.73,1.71,0.8c0.57,0.06,1.29,0.04,1.76-0.44c0.13-0.14,0.11-0.51-0.09-0.52
			c-0.27-0.03-0.55,0.08-0.83,0.13c-0.27,0.06-0.55,0.07-0.82,0.04c-0.54-0.05-1.06-0.25-1.54-0.62
			C219.11,191.88,218.92,192.47,219.17,192.69z"/>
	</g>
	<path class="st17" d="M246.57,224.61c-0.43,0.32-0.99,0.04-1.25-0.62c-0.26-0.66-0.13-1.48,0.29-1.81
		c0.42-0.34,0.98-0.06,1.25,0.62C247.13,223.47,247,224.29,246.57,224.61z"/>
	<path class="st14" d="M250.68,236.13c-0.45,0.26-0.99-0.1-1.2-0.8c-0.21-0.7-0.03-1.48,0.41-1.75c0.45-0.27,1,0.08,1.21,0.8
		C251.32,235.09,251.13,235.88,250.68,236.13z"/>
	<path class="st14" d="M254.08,268.13c-0.47,0.17-0.98-0.27-1.13-0.98c-0.15-0.71,0.11-1.42,0.58-1.6c0.47-0.17,0.98,0.27,1.13,0.98
		C254.81,267.25,254.55,267.97,254.08,268.13z"/>
	<path class="st14" d="M261.92,299.62c-0.47,0.2-0.98-0.23-1.15-0.95c-0.17-0.72,0.08-1.45,0.55-1.64c0.47-0.19,0.98,0.24,1.15,0.95
		C262.63,298.69,262.39,299.43,261.92,299.62z"/>
	<path class="st14" d="M276.2,329.31c-0.41,0.36-0.97,0.14-1.23-0.48c-0.25-0.63-0.11-1.42,0.31-1.76c0.42-0.34,0.96-0.11,1.21,0.5
		C276.74,328.18,276.62,328.95,276.2,329.31z"/>
	<path class="st14" d="M285.44,348.05c-0.33,0.5-0.9,0.51-1.25-0.02c-0.34-0.54-0.33-1.37,0.02-1.85c0.35-0.48,0.89-0.45,1.22,0.07
		C285.76,346.74,285.77,347.54,285.44,348.05z"/>
	<path class="st14" d="M241.85,203.39c-0.38,0.44-0.97,0.27-1.33-0.36c-0.36-0.64-0.35-1.52,0.01-1.98c0.36-0.46,0.96-0.3,1.33,0.36
		C242.23,202.07,242.22,202.96,241.85,203.39z"/>
	<path class="st17" d="M251.94,252.03c-0.47,0.2-0.98-0.21-1.15-0.91c-0.17-0.7,0.07-1.44,0.53-1.64c0.46-0.21,0.98,0.2,1.15,0.91
		C252.65,251.09,252.41,251.83,251.94,252.03z"/>
	<path class="st17" d="M256.17,283.92c-0.47,0.17-0.98-0.28-1.13-1c-0.15-0.72,0.11-1.44,0.59-1.6c0.47-0.16,0.98,0.28,1.13,1
		C256.9,283.03,256.64,283.75,256.17,283.92z"/>
	<path class="st17" d="M269.52,317.06c-0.45,0.27-0.99-0.05-1.19-0.74c-0.21-0.69-0.01-1.45,0.44-1.7c0.45-0.26,0.98,0.08,1.18,0.75
		C270.14,316.04,269.96,316.79,269.52,317.06z"/>
	<path class="st17" d="M281.08,340.79c-0.37,0.43-0.95,0.35-1.24-0.24c-0.3-0.59-0.24-1.4,0.15-1.82c0.38-0.42,0.93-0.3,1.23,0.27
		C281.49,339.57,281.46,340.35,281.08,340.79z"/>
	<path class="st17" d="M286.27,355.01c-0.31,0.54-0.88,0.57-1.28,0.06c-0.41-0.5-0.44-1.37-0.12-1.89c0.32-0.52,0.87-0.51,1.26-0.03
		C286.51,353.63,286.58,354.47,286.27,355.01z"/>
</g>
<g>
	<path class="st18" d="M33.52,215.93c-0.01-8.27,2.4-14.71,6.99-23.08c4.54-8.27,11.14-18.31,16.57-27.66
		c5-8.63,8.55-17.58,10.54-26.12c2-8.56,2.51-16.68,1.83-24.25c-0.92-10.28-1.93-19.62-2.2-31.42c0.44-4.04,0.7-10.19,2.36-15.81
		c0.81-2.8,0.8-5.97,2.17-8.75c1.46-2.8,3.28-5.56,5.35-8.14c1.43-1.83,3.11-3.59,4.75-5.27c2.27-2.37,4.94-4.54,7.42-6.67
		c1.24-1.06,2.42-2.12,3.56-3.19c1.18-1.07,2.27-2.16,3.25-3.31c0.43-0.51,1.07-0.89,1.73-1.08c1.18-0.34,2.24,0.31,2.54,1.13
		c0.3,0.83,0.05,1.78-0.21,2.68c-0.72,2.28-1.1,4.6-1.63,6.82c-0.39,1.6-0.62,3.23-1.04,4.83c-0.4,1.61-1.02,3.19-1.78,4.82
		c-0.8,1.62-1.95,3.28-3.46,4.85c-1.47,1.57-3.24,3.06-5.39,4.28c-0.43,0.25-0.84,0.45-1.26,0.66c-2.92,6.94-6.74,12.14-7.33,18.58
		c-0.64,6.46-0.52,14.15-0.2,20.26c0.64,12.24,1.12,22.67-2.93,37.3c-3.34,11.8-8.57,24.35-15.36,36.17
		c-6.86,11.94-12.69,23.99-16.74,35.4c-2.48,7.3-3.3,14.89-6.16,22.55c-2.93,7.57-7.49,15.56-14.66,22.31
		c5.6-6.32,9.85-14.1,10.83-20.64c0.26-1.64,0.31-2.22,0.44-3.78c0.12-1.56,0.12-2.91,0.14-4.4c-0.01-1.46-0.02-3.6-0.03-5.04
		C33.55,218.55,33.51,217.3,33.52,215.93z"/>
	<path class="st19" d="M57.36,164.58c5-8.63,8.55-17.58,10.54-26.12c2-8.56,2.51-16.68,1.83-24.25c-0.92-10.28-2.55-20.03-2.2-31.42
		c0.24-8.25,1.78-17.99,7.29-27.18c1.29,1.35,1.88,3.38,1.9,5.69c-0.02,2.32-0.5,4.89-1.27,7.33c-1.97,5.92-4.91,12.44-3.39,16.99
		c1.01,2.86,3.78,4.59,3.88,7.81c0.18,4.7-5.44,11.01-5.53,15.88c-0.08,4.9,5.45,6.51,6.03,11.08c0.64,5.09-4.82,11.94-6.5,17.9
		c-1.64,5.92,0.51,10.82-1.66,16.94c-2.95,8.03-12.33,15.46-15.42,22.94c-1.4,3.22-1.47,6.33-2.01,9.5
		c-0.26,1.58-0.58,3.17-1.14,4.74c-0.59,1.57-1.48,3.13-2.72,4.63c-1.96,2.4-4.87,4.29-6.53,6.66c-1.84,2.71-2.06,4.43-1.05,6.71
		c1.29,2.85,0.35,5.06-0.83,6.87c-1.19,1.84-2.59,3.31-2.94,5.12c-0.38,2.13,1.04,2.87,1.71,4.43c0.71,1.57,0.5,4.01-3.47,9.63
		c-1.44,1.96-2.27,4.07-3.1,6.31c-0.8,2.24-1.8,4.48-3.48,6.46c-0.69,0.82-1.53,1.74-2.42,2.66c2.48-3.13,4.54-6.29,5.81-9.63
		c1.36-3.28,2.26-6.5,2.66-9.67c0.23-1.57,0.39-3.1,0.52-4.59c0.06-1.51,0.06-3,0.06-4.43c-0.01-1.41-0.02-2.81-0.03-4.2
		c-0.06-1.38-0.1-2.73-0.09-4.05c-0.01-8.27,2.84-15.56,7.43-23.93C45.78,183.12,51.93,173.93,57.36,164.58z"/>
	<path class="st18" d="M101.65,28.15c1.48-1.62,2.45-3.61,1.94-5.37c1.17,1.27,0.91,3.23-0.08,4.82c-1.01,1.59-2.62,2.96-4.04,4.44
		c-1.44,1.46-2.93,3.09-3.37,4.78c-0.22,0.93-0.13,1.84-0.5,2.76c-1.53,3.85-5.41,1.12-3.11-2.4c1.09-1.72,2.84-3.23,4.47-4.69
		C98.63,31.03,100.25,29.63,101.65,28.15z"/>
	<g>
		<path class="st20" d="M86.32,44.7c-1.24,0.56-2.49,1.83-3.1,3.21c-0.29,0.66-0.41,1.3-0.37,1.84c0.03,0.61,0.34,0.97,0.68,1.32
			c0.21,0.21-0.23,0.85-0.52,0.7c-1.03-0.52-1.12-2.25-0.38-3.82c0.73-1.62,2.22-3.11,3.67-3.69C86.59,44.15,86.62,44.56,86.32,44.7
			z"/>
	</g>
	<path class="st20" d="M83.89,49.74c0.95-0.02,2.05-0.77,2.46-1.69c0.41-0.92-0.03-1.68-0.96-1.7c-0.94-0.02-2.04,0.74-2.46,1.69
		C82.51,49,82.94,49.76,83.89,49.74z"/>
	<g>
		<path class="st20" d="M99.73,32.55c-0.49,0.9-1.17,1.77-2.01,2.54c-0.79,0.72-1.86,1.56-2.87,1.83c-0.28,0.07-0.47-0.18-0.19-0.42
			c0.39-0.34,0.86-0.6,1.29-0.9c0.43-0.29,0.85-0.61,1.23-0.95c0.76-0.68,1.4-1.42,1.88-2.22C99.31,32,99.96,32.13,99.73,32.55z"/>
	</g>
	<path class="st19" d="M71.82,84.03c0.84-0.19,1.66-0.94,1.85-1.68c0.18-0.74-0.35-1.2-1.18-1.02s-1.66,0.93-1.85,1.68
		C70.45,83.76,70.98,84.22,71.82,84.03z"/>
	<path class="st18" d="M68.73,96.52c0.85-0.23,1.65-1,1.8-1.73c0.15-0.73-0.42-1.14-1.26-0.93c-0.85,0.22-1.65,0.99-1.8,1.73
		C67.31,96.34,67.88,96.75,68.73,96.52z"/>
	<path class="st18" d="M70.63,125.16c0.85-0.26,1.64-1.06,1.76-1.77s-0.48-1.09-1.33-0.83c-0.85,0.26-1.64,1.06-1.76,1.77
		C69.19,125.05,69.78,125.42,70.63,125.16z"/>
	<path class="st18" d="M62.61,158.03c0.84-0.2,1.67-0.96,1.85-1.7c0.18-0.75-0.38-1.17-1.22-0.97c-0.85,0.21-1.64,0.96-1.82,1.7
		C61.23,157.79,61.77,158.23,62.61,158.03z"/>
	<path class="st18" d="M44.04,194.15c0.78-0.03,1.68-0.64,1.94-1.36c0.27-0.73-0.15-1.28-0.94-1.23c-0.79,0.05-1.65,0.66-1.92,1.37
		C42.87,193.63,43.25,194.18,44.04,194.15z"/>
	<path class="st18" d="M33.86,217.03c0.69,0.16,1.59-0.29,2.01-1c0.42-0.71,0.18-1.39-0.53-1.52c-0.71-0.13-1.61,0.32-2.01,1
		C32.93,216.19,33.17,216.87,33.86,217.03z"/>
	<path class="st18" d="M70.61,64.56c0.81-0.1,1.69-0.82,1.97-1.62c0.28-0.79-0.15-1.37-0.96-1.29c-0.8,0.08-1.69,0.8-1.97,1.62
		C69.37,64.08,69.8,64.66,70.61,64.56z"/>
	<path class="st19" d="M70.83,110.14c0.85-0.25,1.64-1.04,1.77-1.76c0.13-0.72-0.46-1.1-1.31-0.85c-0.85,0.25-1.64,1.04-1.77,1.76
		C69.39,110.01,69.97,110.39,70.83,110.14z"/>
	<path class="st19" d="M69.95,140.13c0.85-0.24,1.64-1.04,1.78-1.77c0.13-0.74-0.45-1.13-1.3-0.88c-0.85,0.25-1.65,1.04-1.78,1.77
		C68.52,139.98,69.1,140.37,69.95,140.13z"/>
	<path class="st19" d="M52.67,178.66c0.82-0.11,1.66-0.81,1.88-1.55c0.22-0.74-0.26-1.23-1.08-1.1c-0.82,0.13-1.66,0.82-1.88,1.55
		C51.37,178.28,51.85,178.78,52.67,178.66z"/>
	<path class="st19" d="M38.91,207.55c0.75,0.07,1.64-0.45,1.97-1.18c0.34-0.73,0.01-1.36-0.75-1.41c-0.75-0.05-1.63,0.48-1.96,1.19
		C37.86,206.85,38.18,207.48,38.91,207.55z"/>
	<path class="st19" d="M34.7,223.54c0.66,0.21,1.59-0.22,2.07-0.96c0.5-0.74,0.26-1.51-0.41-1.68c-0.69-0.19-1.54,0.27-2.02,0.98
		C33.88,222.58,34.04,223.33,34.7,223.54z"/>
</g>
<g>
	<path class="st21" d="M105.74,128.21c-2.23-8.25,4.84-12.51,11.08-17.23c5.76-4.33,9.07-10.58,9.3-17.54
		c0.17-4.72-0.28-9.4-0.21-14.04c0.05-4.1,0.44-8.35,4.08-10.92c0.58-0.47,1.29-0.89,2.01-1.3c2.02-1.15,4.73-1.94,6.07-3.51
		c0.15-0.17,0.46-0.27,0.82-0.28c0.64-0.02,1.43,0.38,1.8,0.79c0.36,0.41,0.41,0.83,0.45,1.22l0.25,3.01
		c0.11,1.45,0.23,2.93-0.39,4.17c-0.62,1.24-2.06,2.25-4.34,2.36c-0.23,0.01-0.45,0.01-0.67,0c-2.36,4.95-2.43,10.58-2.73,16.25
		c-0.28,5.66-0.74,11.38-3.71,16.14c-2.38,3.85-6.4,6.83-10.01,9.89c-3.63,3.06-6.88,6.19-7.9,10.56
		c-1.29,5.54,1.1,12.16-2.45,16.68C111.29,140.07,107.21,133.64,105.74,128.21z"/>
	<path class="st22" d="M116.82,110.98c5.76-4.33,9.07-10.58,9.3-17.54c0.17-4.72-0.28-9.4-0.21-14.04c0.03-3.4,0.34-6.89,2.48-9.45
		c1.86,1.67,2.09,3.93,1.44,5.62c-0.78,2.05-2.27,3.96-1.45,6.35c0.52,1.52,1.97,3.13,1.93,4.58c-0.08,2.13-3.25,3.03-3.56,5.08
		c-0.32,2.06,2.36,4.66,2.33,6.84c-0.06,2.42-3.27,3.47-4.52,5.42c-1.23,1.96-0.39,4.83-1.79,6.72c-1.8,2.48-6.9,2.62-8.57,5.09
		c-1.47,2.07-0.23,5.61-2.71,7.01c-0.98,0.56-2.44,0.69-3.19,1.41c-0.84,0.82-0.79,1.65,0.05,3c2.04,3.34-0.74,3.34-0.44,4.97
		c0.35,1.91,3.89,2.43,2.03,6.22c-0.67,1.33,0.55,3.44-0.07,4.82c-0.13,0.29-0.3,0.6-0.51,0.91c1.64-4.38-2.21-10.54-3.62-15.78
		C103.51,119.96,110.57,115.7,116.82,110.98z"/>
	<path class="st21" d="M141.09,62.5c0.49-0.61,0.58-1.45-0.19-2.24c1.05,0.61,1.39,1.49,1.19,2.14c-0.2,0.65-0.85,1.15-1.42,1.65
		c-0.57,0.51-1.09,1.07-1.02,1.79c0.03,0.39,0.24,0.82,0.18,1.2c-0.25,1.56-3.05-0.35-2.31-1.54
		C138.24,64.32,140.18,63.63,141.09,62.5z"/>
	<g>
		<path class="st23" d="M135.12,67.83c-0.66,0.02-1.21,0.35-1.36,0.83c-0.07,0.23-0.05,0.49,0.06,0.74
			c0.12,0.28,0.32,0.49,0.56,0.71c0.14,0.13-0.04,0.33-0.23,0.2c-0.65-0.44-0.92-1.2-0.74-1.74c0.19-0.56,0.85-0.93,1.63-0.93
			C135.2,67.64,135.28,67.83,135.12,67.83z"/>
	</g>
	<path class="st23" d="M134.42,69.6c0.56,0.18,1.1,0.06,1.21-0.28c0.11-0.34-0.26-0.76-0.82-0.94c-0.56-0.18-1.1-0.05-1.21,0.28
		C133.49,69,133.86,69.42,134.42,69.6z"/>
	<g>
		<path class="st23" d="M140.94,64.32c-0.1,0.36-0.33,0.68-0.68,0.94c-0.32,0.24-0.78,0.49-1.36,0.46
			c-0.16-0.01-0.32-0.15-0.19-0.21c0.18-0.1,0.39-0.16,0.6-0.24c0.2-0.08,0.38-0.17,0.54-0.28c0.31-0.22,0.54-0.48,0.66-0.8
			C140.56,64.02,140.98,64.15,140.94,64.32z"/>
	</g>
	<path class="st22" d="M129.61,81.63c0.45,0.16,0.9,0.08,1-0.19s-0.19-0.62-0.64-0.78c-0.45-0.16-0.9-0.08-1,0.19
		C128.87,81.12,129.16,81.47,129.61,81.63z"/>
	<path class="st21" d="M127.77,86.09c0.45,0.17,0.9,0.09,1-0.18c0.1-0.27-0.18-0.62-0.63-0.79c-0.45-0.17-0.89-0.09-1,0.18
		C127.04,85.56,127.32,85.92,127.77,86.09z"/>
	<path class="st21" d="M127.15,99.06c0.44,0.18,0.89,0.12,1.01-0.15c0.11-0.27-0.16-0.63-0.6-0.82c-0.44-0.18-0.9-0.12-1.01,0.15
		C126.43,98.51,126.7,98.88,127.15,99.06z"/>
	<path class="st21" d="M121.08,110.45c0.44,0.2,0.89,0.15,1.01-0.12c0.12-0.26-0.14-0.64-0.58-0.84c-0.44-0.2-0.89-0.15-1.01,0.12
		S120.65,110.25,121.08,110.45z"/>
	<path class="st21" d="M111.08,120.87c0.43,0.22,0.88,0.18,1.01-0.07c0.13-0.26-0.12-0.64-0.55-0.85c-0.43-0.21-0.88-0.18-1.01,0.07
		C110.41,120.28,110.65,120.66,111.08,120.87z"/>
	<path class="st21" d="M107.39,129.3c0.42,0.23,0.88,0.2,1.01-0.05c0.13-0.25-0.1-0.64-0.53-0.87c-0.43-0.22-0.88-0.2-1.01,0.05
		C106.73,128.69,106.97,129.08,107.39,129.3z"/>
	<path class="st21" d="M128.23,73.01c0.46,0.16,0.9,0.06,0.99-0.21c0.09-0.27-0.21-0.61-0.66-0.77c-0.46-0.15-0.9-0.06-0.99,0.21
		C127.48,72.51,127.78,72.86,128.23,73.01z"/>
	<path class="st22" d="M128.24,92.65c0.45,0.18,0.9,0.1,1-0.17c0.11-0.27-0.17-0.63-0.62-0.81c-0.45-0.18-0.9-0.1-1,0.17
		C127.51,92.11,127.79,92.47,128.24,92.65z"/>
	<path class="st22" d="M125.75,105.24c0.44,0.19,0.89,0.13,1.01-0.14c0.12-0.27-0.15-0.64-0.59-0.83c-0.44-0.19-0.89-0.13-1.01,0.14
		C125.05,104.68,125.31,105.05,125.75,105.24z"/>
	<path class="st22" d="M115.44,116.34c0.43,0.21,0.89,0.17,1.01-0.09c0.12-0.26-0.13-0.64-0.56-0.85c-0.43-0.21-0.88-0.16-1.01,0.09
		C114.76,115.75,115.01,116.13,115.44,116.34z"/>
	<path class="st22" d="M109.13,125.88c0.43,0.22,0.88,0.2,1.01-0.06c0.13-0.26-0.11-0.64-0.54-0.86c-0.43-0.22-0.88-0.19-1.01,0.06
		C108.46,125.27,108.7,125.66,109.13,125.88z"/>
	<path class="st22" d="M108.93,132.59c0.42,0.23,0.88,0.21,1.02-0.05c0.14-0.25-0.09-0.64-0.52-0.87c-0.42-0.23-0.88-0.21-1.02,0.05
		C108.28,131.98,108.51,132.37,108.93,132.59z"/>
</g>
<g>
	<path class="st24" d="M139.8,311.18c1.9-11.47-4.33-16.67-9.86-22.12c-5.11-5.03-8.23-12.76-8.89-22.06
		c-0.45-6.31-0.45-12.7-0.93-18.96c-0.42-5.52-1.21-11.19-4.6-13.71c-0.55-0.48-1.21-0.85-1.87-1.21c-1.86-1-4.25-1.32-5.58-3.02
		c-0.15-0.19-0.42-0.22-0.73-0.14c-0.55,0.16-1.18,0.91-1.44,1.56c-0.26,0.65-0.25,1.21-0.24,1.74l0.12,4.04
		c0.06,1.94,0.13,3.91,0.78,5.39c0.65,1.48,1.98,2.42,3.93,1.99c0.2-0.04,0.39-0.11,0.58-0.17c4.98,11.94,2.31,30.06,7.79,41.7
		c4.43,9.41,14.07,13.34,15.86,24.95c1.14,7.38-1.02,16.47,1.92,22.27C134.93,327.69,138.55,318.73,139.8,311.18z"/>
	<path class="st25" d="M129.93,289.06c-5.11-5.03-8.23-12.76-8.89-22.06c-0.45-6.31-0.45-12.7-0.93-18.96
		c-0.35-4.57-0.96-9.24-3.08-12.15c-1.41,2.73-1.36,5.8-0.65,7.91c0.86,2.56,2.33,4.78,1.83,8.19c-0.32,2.16-1.42,4.64-1.27,6.57
		c0.22,2.83,3.02,3.36,3.42,6.05c0.42,2.71-1.72,6.72-1.56,9.63c0.17,3.23,3,4.01,4.16,6.43c1.15,2.43,0.56,6.41,1.82,8.73
		c1.64,3.03,6.01,2.51,7.54,5.62c1.31,2.64,0.33,7.56,2.46,9.18c0.85,0.65,2.12,0.68,2.77,1.58c0.74,1.03,0.69,2.18-0.02,4.09
		c-1.76,4.73,0.65,4.45,0.38,6.7c-0.31,2.62-3.36,3.63-1.8,8.57c0.56,1.75-0.54,4.68-0.04,6.48c0.1,0.37,0.25,0.78,0.42,1.18
		c-1.3-5.75,2.1-14.34,3.3-21.63C141.69,299.71,135.46,294.51,129.93,289.06z"/>
	<path class="st24" d="M105.35,229.43c-0.49-0.66-0.67-1.74-0.11-3.01c-0.82,1.12-1.01,2.37-0.75,3.17c0.25,0.8,0.86,1.27,1.4,1.77
		c0.55,0.5,1.06,1.1,1.08,2.07c0.02,0.53-0.12,1.16-0.02,1.63c0.39,2,2.56-1.3,1.79-2.69C107.99,231.01,106.25,230.65,105.35,229.43
		z"/>
	<g>
		<path class="st26" d="M111.06,234.83c0.56-0.14,1.07,0.14,1.26,0.74c0.09,0.29,0.1,0.64,0.03,1c-0.07,0.4-0.22,0.73-0.4,1.1
			c-0.11,0.22,0.07,0.43,0.21,0.21c0.51-0.75,0.66-1.84,0.44-2.52c-0.23-0.7-0.83-1.02-1.5-0.81
			C110.97,234.59,110.92,234.86,111.06,234.83z"/>
	</g>
	<path class="st26" d="M111.85,236.99c-0.46,0.39-0.93,0.37-1.06-0.05s0.14-1.07,0.6-1.46c0.46-0.39,0.93-0.37,1.06,0.05
		C112.58,235.95,112.31,236.6,111.85,236.99z"/>
	<g>
		<path class="st26" d="M105.7,231.79c0.13,0.45,0.36,0.81,0.69,1.04c0.3,0.22,0.73,0.42,1.21,0.23c0.13-0.05,0.25-0.28,0.14-0.34
			c-0.17-0.07-0.35-0.1-0.54-0.14c-0.18-0.04-0.34-0.12-0.49-0.22c-0.29-0.2-0.52-0.48-0.66-0.87
			C105.98,231.29,105.63,231.58,105.7,231.79z"/>
	</g>
	<path class="st25" d="M117.14,251.9c-0.37,0.32-0.76,0.31-0.87-0.03c-0.11-0.34,0.11-0.88,0.48-1.2s0.76-0.31,0.87,0.03
		C117.73,251.04,117.52,251.58,117.14,251.9z"/>
	<path class="st24" d="M119.09,257.46c-0.37,0.33-0.76,0.32-0.87-0.02c-0.11-0.34,0.11-0.88,0.48-1.2c0.37-0.33,0.76-0.31,0.87,0.02
		C119.68,256.6,119.46,257.14,119.09,257.46z"/>
	<path class="st24" d="M120.51,274.74c-0.37,0.33-0.76,0.33-0.87-0.01c-0.11-0.34,0.1-0.88,0.47-1.21c0.37-0.33,0.76-0.32,0.87,0.01
		C121.09,273.87,120.88,274.41,120.51,274.74z"/>
	<path class="st24" d="M126.24,288.99c-0.37,0.34-0.76,0.34-0.87,0c-0.11-0.34,0.1-0.88,0.47-1.22c0.37-0.34,0.76-0.34,0.87,0
		C126.82,288.11,126.61,288.65,126.24,288.99z"/>
	<path class="st24" d="M135.12,301.74c-0.37,0.34-0.76,0.35-0.87,0.02c-0.11-0.33,0.09-0.88,0.46-1.22
		c0.37-0.34,0.76-0.35,0.87-0.01C135.7,300.85,135.49,301.4,135.12,301.74z"/>
	<path class="st24" d="M138.37,312.82c-0.37,0.34-0.76,0.35-0.87,0.02c-0.12-0.33,0.09-0.88,0.45-1.22
		c0.37-0.34,0.76-0.35,0.87-0.02C138.94,311.93,138.74,312.48,138.37,312.82z"/>
	<path class="st24" d="M117.5,239.98c-0.37,0.32-0.76,0.31-0.87-0.03c-0.11-0.34,0.11-0.88,0.49-1.2c0.37-0.32,0.76-0.31,0.87,0.03
		C118.1,239.12,117.88,239.66,117.5,239.98z"/>
	<path class="st25" d="M119.17,266.36c-0.37,0.33-0.76,0.32-0.87-0.02s0.1-0.88,0.47-1.21c0.37-0.33,0.76-0.32,0.87,0.02
		C119.76,265.49,119.55,266.03,119.17,266.36z"/>
	<path class="st25" d="M122.02,282.77c-0.37,0.33-0.76,0.33-0.87-0.01c-0.11-0.34,0.1-0.88,0.47-1.21c0.37-0.33,0.76-0.33,0.87,0.01
		C122.6,281.89,122.39,282.43,122.02,282.77z"/>
	<path class="st25" d="M131.28,296.12c-0.37,0.34-0.76,0.34-0.87,0.01c-0.11-0.33,0.09-0.88,0.46-1.22
		c0.37-0.34,0.76-0.34,0.87-0.01C131.85,295.24,131.65,295.78,131.28,296.12z"/>
	<path class="st25" d="M136.86,308.33c-0.37,0.34-0.76,0.35-0.87,0.02c-0.11-0.33,0.09-0.88,0.46-1.22s0.76-0.35,0.87-0.02
		C137.43,307.44,137.23,307.99,136.86,308.33z"/>
	<path class="st25" d="M137.03,317.42c-0.37,0.35-0.76,0.36-0.87,0.02c-0.12-0.33,0.09-0.88,0.45-1.22
		c0.37-0.34,0.76-0.36,0.87-0.02C137.6,316.52,137.4,317.07,137.03,317.42z"/>
</g>
<g>
	<path class="st27" d="M331.04,196.79c1.75-6.41,0.3-13.49-2.59-20.04c-2.89-6.6-7.22-12.7-11.36-18.34
		c-7.65-10.44-13.31-22.11-16.4-34.8c-2.1-8.58-3.81-17.1-6.27-25.69c-2.16-7.56-5.01-15.54-10.48-20.24
		c-0.92-0.86-1.94-1.61-2.96-2.34c-2.88-2.05-6.26-3.38-8.64-6.11c-0.26-0.3-0.65-0.45-1.04-0.45c-0.71,0-1.33,0.76-1.49,1.52
		s0.03,1.49,0.22,2.19l1.42,5.35c0.68,2.57,1.37,5.18,2.71,7.36c1.34,2.18,3.43,3.93,6,4.15c0.26,0.02,0.5,0.01,0.74,0.01
		c5.2,8.89,8.11,19.03,10.79,29.07c2.7,10.06,5.18,19.94,9.83,28.95c3.78,7.28,8.94,13.78,13.53,20.87
		c4.58,7.02,8.55,14.76,9.38,23.02c0.5,5.22-0.31,9.96-1.08,14.38c-0.79,4.46-1.47,8.58-0.69,13.37c-0.13-3.99,1.45-7.28,3.24-10.81
		C327.75,204.7,329.85,201,331.04,196.79z"/>
	<path class="st28" d="M317.1,158.4c-7.65-10.44-13.31-22.11-16.4-34.8c-2.1-8.58-3.81-17.1-6.27-25.69
		c-1.79-6.27-4.06-12.81-7.9-17.54c-1.11,3.06-0.1,7.15,1.5,10.26c1.94,3.76,4.63,7.38,4.89,11.69c0.16,2.73-0.69,5.49,0.02,8.1
		c1.03,3.82,5.03,5.9,6.26,9.69c1.23,3.82-0.8,7.95,0.03,11.81c0.89,4.29,4.94,6.9,6.97,10.79c2.03,3.9,1.86,8.69,3.89,12.52
		c2.62,4.97,8.54,7.55,10.92,12.97c2.01,4.64,0.89,10.16,3.73,14.26c1.12,1.66,2.81,2.96,3.67,4.83c0.94,2.13,0.84,3.61-0.22,5.31
		c-2.63,4.13,0.44,6.36-0.18,8.89c-0.39,1.43-1.59,1.56-2.54,2.29c-0.96,0.73-1.63,2.03-1.23,5.73c0.17,1.32-0.31,2.45-0.77,3.56
		c-0.45,1.11-0.94,2.17-0.94,3.41c0.01,0.51,0.06,1.12,0.14,1.74c0.12-3.75,1.67-6.94,3.43-10.36c1.79-3.4,3.79-6.99,4.93-11.05
		c1.75-6.41,0.3-13.49-2.59-20.04C325.56,170.15,321.24,164.05,317.1,158.4z"/>
	<path class="st27" d="M268.42,67.33c-0.88-1.05-1.46-2.53-1.1-4.01c-0.77,1.18-0.63,2.76-0.03,3.91c0.6,1.15,1.58,1.98,2.49,2.84
		c0.91,0.87,1.8,1.84,2.14,3.13c0.19,0.7,0.2,1.48,0.47,2.14c1.14,2.77,3.12-0.75,1.63-2.87C272.55,70.38,270.04,69.27,268.42,67.33
		z"/>
	<g>
		<path class="st29" d="M277.96,76.58c0.73,0.03,1.52,0.59,1.96,1.47c0.21,0.42,0.33,0.88,0.36,1.33c0.03,0.5-0.08,0.89-0.22,1.3
			c-0.08,0.24,0.22,0.59,0.36,0.36c0.47-0.8,0.34-2.18-0.17-3.16c-0.53-1.01-1.46-1.67-2.31-1.65
			C277.76,76.24,277.78,76.58,277.96,76.58z"/>
	</g>
	<path class="st29" d="M279.72,79.75c-0.51,0.34-1.17,0.12-1.48-0.48c-0.31-0.6-0.14-1.36,0.37-1.7c0.51-0.34,1.17-0.12,1.48,0.48
		C280.39,78.66,280.23,79.42,279.72,79.75z"/>
	<g>
		<path class="st29" d="M269.63,70.56c0.32,0.63,0.75,1.2,1.27,1.62c0.49,0.4,1.13,0.82,1.74,0.75c0.17-0.02,0.26-0.28,0.08-0.39
			c-0.25-0.16-0.52-0.26-0.78-0.39c-0.26-0.13-0.51-0.29-0.74-0.47c-0.47-0.37-0.87-0.83-1.17-1.38
			C269.86,70.01,269.48,70.26,269.63,70.56z"/>
	</g>
	<path class="st28" d="M291.41,101.7c-0.43,0.26-0.97,0.07-1.21-0.43c-0.24-0.5-0.1-1.11,0.33-1.37c0.42-0.26,0.97-0.07,1.21,0.43
		C291.98,100.82,291.84,101.44,291.41,101.7z"/>
	<path class="st27" d="M295.62,109.98c-0.43,0.25-0.97,0.05-1.21-0.45c-0.24-0.5-0.08-1.11,0.34-1.37c0.43-0.25,0.97-0.05,1.21,0.45
		C296.2,109.12,296.04,109.73,295.62,109.98z"/>
	<path class="st27" d="M301.67,133.5c-0.44,0.22-0.98,0-1.2-0.5c-0.22-0.5-0.04-1.09,0.4-1.32c0.44-0.23,0.98,0,1.2,0.5
		C302.29,132.69,302.11,133.28,301.67,133.5z"/>
	<path class="st27" d="M312.02,155.66c-0.46,0.18-1-0.08-1.2-0.6s0.01-1.08,0.47-1.26c0.46-0.19,0.99,0.08,1.2,0.6
		C312.69,154.91,312.48,155.48,312.02,155.66z"/>
	<path class="st27" d="M325.16,179.54c-0.49,0.1-1.01-0.25-1.17-0.79c-0.16-0.54,0.11-1.07,0.59-1.18c0.48-0.11,1.01,0.24,1.17,0.79
		C325.91,178.91,325.64,179.43,325.16,179.54z"/>
	<path class="st27" d="M329.04,197.28c-0.51,0.02-1-0.4-1.13-0.94c-0.12-0.55,0.19-1.02,0.69-1.05c0.5-0.04,1.01,0.39,1.14,0.94
		C329.87,196.78,329.55,197.26,329.04,197.28z"/>
	<path class="st27" d="M288.44,86.01c-0.42,0.27-0.96,0.09-1.21-0.41c-0.25-0.5-0.11-1.12,0.31-1.39c0.42-0.27,0.96-0.09,1.21,0.41
		C289,85.12,288.86,85.74,288.44,86.01z"/>
	<path class="st28" d="M297.97,121.79c-0.44,0.24-0.97,0.03-1.2-0.47c-0.23-0.5-0.06-1.1,0.37-1.35c0.43-0.24,0.97-0.03,1.2,0.47
		C298.57,120.95,298.4,121.55,297.97,121.79z"/>
	<path class="st28" d="M305.26,144.84c-0.45,0.21-0.98-0.03-1.19-0.54c-0.21-0.5-0.02-1.08,0.43-1.29c0.45-0.21,0.98,0.03,1.19,0.54
		C305.91,144.06,305.71,144.64,305.26,144.84z"/>
	<path class="st28" d="M319.67,168.77c-0.47,0.14-1-0.17-1.19-0.69c-0.18-0.53,0.05-1.07,0.52-1.22c0.47-0.15,1,0.16,1.19,0.69
		C320.39,168.08,320.15,168.63,319.67,168.77z"/>
	<path class="st28" d="M327.4,189.88c-0.5,0.06-1.01-0.33-1.15-0.88c-0.14-0.54,0.16-1.04,0.65-1.11c0.5-0.07,1.01,0.32,1.15,0.88
		C328.19,189.32,327.89,189.82,327.4,189.88z"/>
	<path class="st28" d="M326.78,201.5c-0.51,0-1.01-0.42-1.11-0.95c-0.11-0.53,0.22-0.97,0.73-0.99c0.51-0.02,1.01,0.41,1.11,0.95
		C327.62,201.05,327.29,201.49,326.78,201.5z"/>
</g>
<g>
	<g>
		<g>
			<path class="st11" d="M294.62,213.59L294.62,213.59c-0.53-0.45-0.66-1.43-0.29-2.2l34.02-70.07c0.37-0.77,1.11-1.03,1.64-0.59
				l0,0c0.53,0.45,0.66,1.43,0.29,2.2l-34.02,70.07C295.89,213.78,295.15,214.04,294.62,213.59z"/>
			<path class="st12" d="M296.26,213.01l34.02-70.07c0.31-0.64,0.27-1.43-0.06-1.94c-0.25-0.06-0.53,0.09-0.69,0.42l-34.63,71.33
				c-0.16,0.33-0.15,0.72,0,1C295.38,213.93,295.95,213.65,296.26,213.01z"/>
		</g>
		<g>
			<path class="st11" d="M302.14,219.91L302.14,219.91c0.53,0.45,1.27,0.18,1.64-0.59l34.02-70.07c0.37-0.77,0.25-1.76-0.29-2.2l0,0
				c-0.53-0.45-1.27-0.18-1.64,0.59l-34.02,70.07C301.48,218.47,301.61,219.46,302.14,219.91z"/>
			<path class="st12" d="M301.86,217.71l34.02-70.07c0.31-0.64,0.88-0.93,1.36-0.74c0.15,0.28,0.16,0.67,0,1l-34.63,71.33
				c-0.16,0.33-0.44,0.48-0.69,0.42C301.59,219.14,301.54,218.35,301.86,217.71z"/>
		</g>
	</g>
	<path class="st13" d="M326.42,167.88l-6.68-3.25c-0.31-0.15-0.44-0.52-0.29-0.83l0,0c0.15-0.31,0.52-0.44,0.83-0.29l6.68,3.25
		c0.31,0.15,0.44,0.52,0.29,0.83l0,0C327.1,167.9,326.73,168.03,326.42,167.88z"/>
	<path class="st13" d="M329.92,160.67l-6.68-3.25c-0.31-0.15-0.44-0.52-0.29-0.83l0,0c0.15-0.31,0.52-0.44,0.83-0.29l6.68,3.25
		c0.31,0.15,0.44,0.52,0.29,0.83l0,0C330.61,160.7,330.23,160.83,329.92,160.67z"/>
	<path class="st13" d="M332.86,153.47l-6.68-3.25c-0.31-0.15-0.44-0.52-0.29-0.83l0,0c0.15-0.31,0.52-0.44,0.83-0.29l6.68,3.25
		c0.31,0.15,0.44,0.52,0.29,0.83l0,0C333.54,153.5,333.17,153.62,332.86,153.47z"/>
	<path class="st13" d="M322.3,176.32l-6.68-3.25c-0.31-0.15-0.44-0.52-0.29-0.83l0,0c0.15-0.31,0.52-0.44,0.83-0.29l6.68,3.25
		c0.31,0.15,0.44,0.52,0.29,0.83l0,0C322.99,176.34,322.61,176.47,322.3,176.32z"/>
	<path class="st13" d="M318.19,184.76l-6.68-3.25c-0.31-0.15-0.44-0.52-0.29-0.83l0,0c0.15-0.31,0.52-0.44,0.83-0.29l6.68,3.25
		c0.31,0.15,0.44,0.52,0.29,0.83l0,0C318.87,184.79,318.5,184.91,318.19,184.76z"/>
	<path class="st13" d="M314.08,193.21l-6.68-3.25c-0.31-0.15-0.44-0.52-0.29-0.83l0,0c0.15-0.31,0.52-0.44,0.83-0.29l6.68,3.25
		c0.31,0.15,0.44,0.52,0.29,0.83l0,0C314.76,193.23,314.39,193.36,314.08,193.21z"/>
	<path class="st13" d="M309.96,201.65l-6.68-3.25c-0.31-0.15-0.44-0.52-0.29-0.83l0,0c0.15-0.31,0.52-0.44,0.83-0.29l6.68,3.25
		c0.31,0.15,0.44,0.52,0.29,0.83l0,0C310.65,201.67,310.27,201.8,309.96,201.65z"/>
	<path class="st13" d="M305.85,210.1l-6.68-3.25c-0.31-0.15-0.44-0.52-0.29-0.83l0,0c0.15-0.31,0.52-0.44,0.83-0.29l6.68,3.25
		c0.31,0.15,0.44,0.52,0.29,0.83l0,0C306.53,210.12,306.16,210.25,305.85,210.1z"/>
</g>
</svg>
