<?xml version="1.0" encoding="utf-8"?>
<!-- Generator: Adobe Illustrator 24.3.0, SVG Export Plug-In . SVG Version: 6.00 Build 0)  -->
<svg version="1.1" id="Layer_1" xmlns="http://www.w3.org/2000/svg" xmlns:xlink="http://www.w3.org/1999/xlink" x="0px" y="0px"
	 viewBox="0 0 400 400" style="enable-background:new 0 0 400 400;" xml:space="preserve">
<style type="text/css">
	.st0{display:none;}
	.st1{display:inline;fill:#E04C38;}
	.st2{display:inline;fill:#7DD7DB;}
	.st3{display:inline;fill:#FCEEC4;}
	.st4{display:inline;fill:#F2B336;}
	.st5{display:inline;fill:#37EFB2;}
	.st6{display:inline;}
	.st7{fill:#FFFFFF;}
	.st8{font-family:'ArialMT';}
	.st9{font-size:13.4095px;}
	.st10{fill:#3DB7AE;}
	.st11{fill:#86E0D9;}
	.st12{fill:#0E471E;}
	.st13{fill:#20E861;}
	.st14{fill:#39BB74;}
	.st15{fill:#16EE55;}
</style>
<g class="st0">
	<rect x="0.4" y="0.2" class="st1" width="40" height="40"/>
	<rect x="40.4" y="0.2" class="st2" width="40" height="40"/>
	<rect x="120.3" y="0.2" class="st3" width="40" height="40"/>
	<rect x="80.3" y="0.2" class="st4" width="40" height="40"/>
	<rect x="240.2" y="0.2" class="st2" width="40" height="40"/>
	<rect x="160.2" y="0.2" class="st5" width="40" height="40"/>
	<rect x="200.2" y="0.2" class="st4" width="40" height="40"/>
	<rect x="0.4" y="40.2" class="st3" width="40" height="40"/>
	<rect x="40.4" y="40.2" class="st4" width="40" height="40"/>
	<rect x="120.3" y="40.2" class="st5" width="40" height="40"/>
	<rect x="80.3" y="40.2" class="st2" width="40" height="40"/>
	<rect x="280.1" y="40.2" class="st5" width="40" height="40"/>
	<rect x="240.2" y="40.2" class="st1" width="40" height="40"/>
	<rect x="160.2" y="40.2" class="st1" width="40" height="40"/>
	<rect x="200.2" y="40.2" class="st2" width="40" height="40"/>
	<rect x="0.4" y="80.1" class="st2" width="40" height="40"/>
	<rect x="40.4" y="80.1" class="st1" width="40" height="40"/>
	<rect x="120.3" y="80.1" class="st3" width="40" height="40"/>
	<rect x="80.3" y="80.1" class="st5" width="40" height="40"/>
	<rect x="280.1" y="80.1" class="st4" width="40" height="40"/>
	<rect x="240.2" y="80.1" class="st5" width="40" height="40"/>
	<rect x="160.2" y="80.1" class="st4" width="40" height="40"/>
	<rect x="200.2" y="80.1" class="st3" width="40" height="40"/>
	<rect x="0.4" y="120.1" class="st5" width="40" height="40"/>
	<rect x="40.4" y="120.1" class="st4" width="40" height="40"/>
	<rect x="120.3" y="120.1" class="st1" width="40" height="40"/>
	<rect x="80.3" y="120.1" class="st3" width="40" height="40"/>
	<rect x="280.1" y="120.1" class="st2" width="40" height="40"/>
	<rect x="240.2" y="120.1" class="st4" width="40" height="40"/>
	<rect x="160.2" y="120.1" class="st2" width="40" height="40"/>
	<rect x="200.2" y="120.1" class="st1" width="40" height="40"/>
	<rect x="0.4" y="160" class="st1" width="40" height="40"/>
	<rect x="40.4" y="160" class="st2" width="40" height="40"/>
	<rect x="120.3" y="160" class="st3" width="40" height="40"/>
	<rect x="80.3" y="160" class="st4" width="40" height="40"/>
	<rect x="280.1" y="160" class="st1" width="40" height="40"/>
	<rect x="240.2" y="160" class="st2" width="40" height="40"/>
	<rect x="160.2" y="160" class="st5" width="40" height="40"/>
	<rect x="200.2" y="160" class="st4" width="40" height="40"/>
	<rect x="0.4" y="200" class="st3" width="40" height="40"/>
	<rect x="40.4" y="200" class="st4" width="40" height="40"/>
	<rect x="120.3" y="200" class="st5" width="40" height="40"/>
	<rect x="80.3" y="200" class="st2" width="40" height="40"/>
	<rect x="280.1" y="200" class="st5" width="40" height="40"/>
	<rect x="240.2" y="200" class="st1" width="40" height="40"/>
	<rect x="160.2" y="200" class="st1" width="40" height="40"/>
	<rect x="200.2" y="200" class="st2" width="40" height="40"/>
	<rect x="0.4" y="240" class="st2" width="40" height="40"/>
	<rect x="40.4" y="240" class="st1" width="40" height="40"/>
	<rect x="120.3" y="240" class="st3" width="40" height="40"/>
	<rect x="80.3" y="240" class="st5" width="40" height="40"/>
	<rect x="280.1" y="240" class="st4" width="40" height="40"/>
	<rect x="240.2" y="240" class="st5" width="40" height="40"/>
	<rect x="160.2" y="240" class="st4" width="40" height="40"/>
	<rect x="200.2" y="240" class="st3" width="40" height="40"/>
	<rect x="0.4" y="279.9" class="st5" width="40" height="40"/>
	<rect x="40.4" y="279.9" class="st4" width="40" height="40"/>
	<rect x="120.3" y="279.9" class="st1" width="40" height="40"/>
	<rect x="80.3" y="279.9" class="st3" width="40" height="40"/>
	<rect x="280.1" y="279.9" class="st2" width="40" height="40"/>
	<rect x="240.2" y="279.9" class="st4" width="40" height="40"/>
	<rect x="160.2" y="279.9" class="st2" width="40" height="40"/>
	<rect x="200.2" y="279.9" class="st1" width="40" height="40"/>
	<rect x="280.1" y="0.2" class="st1" width="40" height="40"/>
	<rect x="320.1" y="0.2" class="st5" width="40" height="40"/>
	<rect x="360" y="40.2" class="st4" width="40" height="40"/>
	<rect x="320.1" y="40.2" class="st3" width="40" height="40"/>
	<rect x="360" y="80.1" class="st2" width="40" height="40"/>
	<rect x="320.1" y="80.1" class="st1" width="40" height="40"/>
	<rect x="360" y="120.1" class="st5" width="40" height="40"/>
	<rect x="320.1" y="120.1" class="st3" width="40" height="40"/>
	<rect x="360" y="160" class="st3" width="40" height="40"/>
	<rect x="320.1" y="160" class="st5" width="40" height="40"/>
	<rect x="360" y="200" class="st4" width="40" height="40"/>
	<rect x="320.1" y="200" class="st3" width="40" height="40"/>
	<rect x="360" y="240" class="st2" width="40" height="40"/>
	<rect x="320.1" y="240" class="st1" width="40" height="40"/>
	<rect x="360" y="279.9" class="st5" width="40" height="40"/>
	<rect x="320.1" y="279.9" class="st3" width="40" height="40"/>
	<rect x="360" y="0.2" class="st3" width="40" height="40"/>
	<rect x="0.4" y="319.9" class="st1" width="40" height="40"/>
	<rect x="40.4" y="319.9" class="st2" width="40" height="40"/>
	<rect x="120.3" y="319.9" class="st3" width="40" height="40"/>
	<rect x="80.3" y="319.9" class="st4" width="40" height="40"/>
	<rect x="280.1" y="319.9" class="st1" width="40" height="40"/>
	<rect x="240.2" y="319.9" class="st2" width="40" height="40"/>
	<rect x="160.2" y="319.9" class="st5" width="40" height="40"/>
	<rect x="200.2" y="319.9" class="st4" width="40" height="40"/>
	<rect x="0.4" y="359.8" class="st3" width="40" height="40"/>
	<rect x="40.4" y="359.8" class="st4" width="40" height="40"/>
	<rect x="120.3" y="359.8" class="st5" width="40" height="40"/>
	<rect x="80.3" y="359.8" class="st2" width="40" height="40"/>
	<rect x="280.1" y="359.8" class="st5" width="40" height="40"/>
	<rect x="240.2" y="359.8" class="st1" width="40" height="40"/>
	<rect x="160.2" y="359.8" class="st1" width="40" height="40"/>
	<rect x="200.2" y="359.8" class="st2" width="40" height="40"/>
	<rect x="360" y="319.9" class="st3" width="40" height="40"/>
	<rect x="320.1" y="319.9" class="st5" width="40" height="40"/>
	<rect x="360" y="359.8" class="st4" width="40" height="40"/>
	<rect x="320.1" y="359.8" class="st3" width="40" height="40"/>
	<g class="st6">
		<g>
			<text transform="matrix(1 0 0 1 30.7764 377.4824)" class="st7 st8 st9">1</text>
			<text transform="matrix(1 0 0 1 64.9209 377.4824)" class="st7 st8 st9">2</text>
			<text transform="matrix(1 0 0 1 108.2627 377.4824)" class="st7 st8 st9">3</text>
			<text transform="matrix(1 0 0 1 144.9834 377.4824)" class="st7 st8 st9">4</text>
			<text transform="matrix(1 0 0 1 183.3535 377.4824)" class="st7 st8 st9">5</text>
			<text transform="matrix(1 0 0 1 208.2383 377.4824)" class="st7 st8 st9">6</text>
			<text transform="matrix(1 0 0 1 245.9014 377.4824)" class="st7 st8 st9">7</text>
			<text transform="matrix(1 0 0 1 283.9717 377.4824)" class="st7 st8 st9">8</text>
			<text transform="matrix(1 0 0 1 324.25 377.4824)" class="st7 st8 st9">9</text>
			<text transform="matrix(1 0 0 1 365.2812 377.4824)" class="st7 st8 st9">10</text>
		</g>
		<text transform="matrix(1 0 0 1 19.6006 336.3711)" class="st7 st8 st9">20</text>
		<text transform="matrix(1 0 0 1 60.4512 336.3711)" class="st7 st8 st9">19</text>
		<text transform="matrix(1 0 0 1 103.793 336.3711)" class="st7 st8 st9">18</text>
		<text transform="matrix(1 0 0 1 140.5137 336.3711)" class="st7 st8 st9">17</text>
		<text transform="matrix(1 0 0 1 178.8838 336.3711)" class="st7 st8 st9">16</text>
		<text transform="matrix(1 0 0 1 203.7686 336.3711)" class="st7 st8 st9">15</text>
		<text transform="matrix(1 0 0 1 241.4316 336.3711)" class="st7 st8 st9">14</text>
		<text transform="matrix(1 0 0 1 279.502 336.3711)" class="st7 st8 st9">13</text>
		<text transform="matrix(1 0 0 1 319.7803 336.3711)" class="st7 st8 st9">12</text>
		<text transform="matrix(1 0 0 1 360.8105 336.3711)" class="st7 st8 st9">11</text>
		<text transform="matrix(1 0 0 1 20.6807 295.2568)" class="st7 st8 st9">21</text>
		<text transform="matrix(1 0 0 1 58.2168 295.2568)" class="st7 st8 st9">22</text>
		<text transform="matrix(1 0 0 1 103.793 295.2568)" class="st7 st8 st9">23</text>
		<text transform="matrix(1 0 0 1 140.5137 295.2568)" class="st7 st8 st9">24</text>
		<text transform="matrix(1 0 0 1 181.1182 295.2568)" class="st7 st8 st9">25</text>
		<text transform="matrix(1 0 0 1 210.4746 295.2568)" class="st7 st8 st9">26</text>
		<text transform="matrix(1 0 0 1 248.1357 295.2568)" class="st7 st8 st9">27</text>
		<text transform="matrix(1 0 0 1 288.4414 295.2568)" class="st7 st8 st9">28</text>
		<text transform="matrix(1 0 0 1 328.7197 295.2568)" class="st7 st8 st9">29</text>
		<text transform="matrix(1 0 0 1 365.2812 295.2568)" class="st7 st8 st9">30</text>
		<text transform="matrix(1 0 0 1 12.8965 256.1328)" class="st7 st8 st9">40</text>
		<text transform="matrix(1 0 0 1 60.4512 256.1328)" class="st7 st8 st9">39</text>
		<text transform="matrix(1 0 0 1 101.5576 256.1328)" class="st7 st8 st9">38</text>
		<text transform="matrix(1 0 0 1 140.5137 256.1328)" class="st7 st8 st9">37</text>
		<text transform="matrix(1 0 0 1 181.1182 256.1328)" class="st7 st8 st9">36</text>
		<text transform="matrix(1 0 0 1 210.4746 256.1328)" class="st7 st8 st9">35</text>
		<text transform="matrix(1 0 0 1 248.1357 256.1328)" class="st7 st8 st9">34</text>
		<text transform="matrix(1 0 0 1 288.4414 256.1328)" class="st7 st8 st9">33</text>
		<text transform="matrix(1 0 0 1 328.7197 256.1328)" class="st7 st8 st9">32</text>
		<text transform="matrix(1 0 0 1 365.2812 256.1328)" class="st7 st8 st9">31</text>
		<text transform="matrix(1 0 0 1 23.4092 215.0195)" class="st7 st8 st9">41</text>
		<text transform="matrix(1 0 0 1 59.7891 215.0195)" class="st7 st8 st9">42</text>
		<text transform="matrix(1 0 0 1 100.8945 215.0195)" class="st7 st8 st9">43</text>
		<text transform="matrix(1 0 0 1 139.8506 215.0195)" class="st7 st8 st9">44</text>
		<text transform="matrix(1 0 0 1 180.4551 215.0195)" class="st7 st8 st9">45</text>
		<text transform="matrix(1 0 0 1 209.8105 215.0195)" class="st7 st8 st9">46</text>
		<text transform="matrix(1 0 0 1 247.4736 215.0195)" class="st7 st8 st9">47</text>
		<text transform="matrix(1 0 0 1 287.7803 215.0195)" class="st7 st8 st9">48</text>
		<text transform="matrix(1 0 0 1 328.0566 215.0195)" class="st7 st8 st9">49</text>
		<text transform="matrix(1 0 0 1 364.6182 215.0195)" class="st7 st8 st9">50</text>
		<text transform="matrix(1 0 0 1 14.4697 176.5596)" class="st7 st8 st9">60</text>
		<text transform="matrix(1 0 0 1 59.7891 176.5596)" class="st7 st8 st9">59</text>
		<text transform="matrix(1 0 0 1 100.8945 176.5596)" class="st7 st8 st9">58</text>
		<text transform="matrix(1 0 0 1 139.8506 176.5596)" class="st7 st8 st9">57</text>
		<text transform="matrix(1 0 0 1 180.4551 176.5596)" class="st7 st8 st9">56</text>
		<text transform="matrix(1 0 0 1 209.8105 176.5596)" class="st7 st8 st9">55</text>
		<text transform="matrix(1 0 0 1 247.4736 176.5596)" class="st7 st8 st9">54</text>
		<text transform="matrix(1 0 0 1 287.7803 176.5596)" class="st7 st8 st9">53</text>
		<text transform="matrix(1 0 0 1 328.0566 176.5596)" class="st7 st8 st9">52</text>
		<text transform="matrix(1 0 0 1 364.6182 176.5596)" class="st7 st8 st9">51</text>
		<text transform="matrix(1 0 0 1 23.4092 136.1094)" class="st7 st8 st9">61</text>
		<text transform="matrix(1 0 0 1 59.7891 136.1094)" class="st7 st8 st9">62</text>
		<text transform="matrix(1 0 0 1 100.8945 136.1094)" class="st7 st8 st9">63</text>
		<text transform="matrix(1 0 0 1 139.8506 136.1094)" class="st7 st8 st9">64</text>
		<text transform="matrix(1 0 0 1 180.4551 136.1094)" class="st7 st8 st9">65</text>
		<text transform="matrix(1 0 0 1 209.8105 136.1094)" class="st7 st8 st9">66</text>
		<text transform="matrix(1 0 0 1 247.4736 136.1094)" class="st7 st8 st9">67</text>
		<text transform="matrix(1 0 0 1 287.7803 136.1094)" class="st7 st8 st9">68</text>
		<text transform="matrix(1 0 0 1 328.0566 136.1094)" class="st7 st8 st9">69</text>
		<text transform="matrix(1 0 0 1 364.6182 136.1094)" class="st7 st8 st9">70</text>
		<text transform="matrix(1 0 0 1 16.7041 96.3232)" class="st7 st8 st9">80</text>
		<text transform="matrix(1 0 0 1 59.7891 96.3232)" class="st7 st8 st9">79</text>
		<text transform="matrix(1 0 0 1 100.8945 96.3232)" class="st7 st8 st9">78</text>
		<text transform="matrix(1 0 0 1 139.8506 96.3232)" class="st7 st8 st9">77</text>
		<text transform="matrix(1 0 0 1 180.4551 96.3232)" class="st7 st8 st9">76</text>
		<text transform="matrix(1 0 0 1 209.8105 96.3232)" class="st7 st8 st9">75</text>
		<text transform="matrix(1 0 0 1 247.4736 96.3232)" class="st7 st8 st9">74</text>
		<text transform="matrix(1 0 0 1 287.7803 96.3232)" class="st7 st8 st9">73</text>
		<text transform="matrix(1 0 0 1 328.0566 96.3232)" class="st7 st8 st9">72</text>
		<text transform="matrix(1 0 0 1 364.6182 96.3232)" class="st7 st8 st9">71</text>
		<text transform="matrix(1 0 0 1 23.4092 55.209)" class="st7 st8 st9">81</text>
		<text transform="matrix(1 0 0 1 59.7891 55.209)" class="st7 st8 st9">82</text>
		<text transform="matrix(1 0 0 1 100.8945 55.209)" class="st7 st8 st9">83</text>
		<text transform="matrix(1 0 0 1 139.8506 55.209)" class="st7 st8 st9">84</text>
		<text transform="matrix(1 0 0 1 180.4551 55.209)" class="st7 st8 st9">85</text>
		<text transform="matrix(1 0 0 1 209.8105 55.209)" class="st7 st8 st9">86</text>
		<text transform="matrix(1 0 0 1 247.4736 55.209)" class="st7 st8 st9">87</text>
		<text transform="matrix(1 0 0 1 287.7803 55.209)" class="st7 st8 st9">88</text>
		<text transform="matrix(1 0 0 1 328.0566 55.209)" class="st7 st8 st9">89</text>
		<text transform="matrix(1 0 0 1 364.6182 55.209)" class="st7 st8 st9">90</text>
		<text transform="matrix(1 0 0 1 8.0977 16.749)" class="st7 st8 st9">100</text>
		<text transform="matrix(1 0 0 1 59.7891 16.749)" class="st7 st8 st9">99</text>
		<text transform="matrix(1 0 0 1 100.8945 16.749)" class="st7 st8 st9">98</text>
		<text transform="matrix(1 0 0 1 139.8506 16.749)" class="st7 st8 st9">97</text>
		<text transform="matrix(1 0 0 1 180.4551 16.749)" class="st7 st8 st9">96</text>
		<text transform="matrix(1 0 0 1 209.8105 16.749)" class="st7 st8 st9">95</text>
		<text transform="matrix(1 0 0 1 247.4736 16.749)" class="st7 st8 st9">94</text>
		<text transform="matrix(1 0 0 1 287.7803 16.749)" class="st7 st8 st9">93</text>
		<text transform="matrix(1 0 0 1 328.0566 16.749)" class="st7 st8 st9">92</text>
		<text transform="matrix(1 0 0 1 364.6182 16.749)" class="st7 st8 st9">91</text>
	</g>
</g>
<path class="st10" d="M219.7,133.4L219.7,133.4c0.5-0.4,0.7-1.4,0.3-2.2l-34-70.1c-0.4-0.8-1.1-1-1.6-0.6l0,0
	c-0.5,0.5-0.7,1.4-0.3,2.2l34,70.1C218.4,133.6,219.1,133.8,219.7,133.4z"/>
<path class="st11" d="M218,132.8l-34-70.1c-0.3-0.6-0.3-1.4,0.1-1.9c0.2-0.1,0.5,0.1,0.7,0.4l34.6,71.3c0.2,0.3,0.1,0.7,0,1
	C218.9,133.7,218.4,133.4,218,132.8z"/>
<path class="st11" d="M212.2,139.7L212.2,139.7c-0.5,0.4-1.3,0.2-1.6-0.6l-34-70.1c-0.4-0.8-0.2-1.8,0.3-2.2l0,0
	c0.5-0.4,1.3-0.2,1.6,0.6l34,70.1C212.8,138.3,212.7,139.2,212.2,139.7z"/>
<path class="st10" d="M212.4,137.5l-34-70.1c-0.3-0.6-0.9-0.9-1.4-0.7c-0.1,0.3-0.2,0.7,0,1l34.6,71.3c0.2,0.3,0.4,0.5,0.7,0.4
	C212.7,138.9,212.8,138.1,212.4,137.5z"/>
<path class="st10" d="M187.9,87.7l6.7-3.2c0.3-0.2,0.4-0.5,0.3-0.8l0,0c-0.1-0.3-0.5-0.4-0.8-0.3l-6.7,3.2c-0.3,0.2-0.4,0.5-0.3,0.8
	l0,0C187.2,87.7,187.6,87.8,187.9,87.7z"/>
<path class="st10" d="M184.4,80.5l6.7-3.2c0.3-0.2,0.4-0.5,0.3-0.8l0,0c-0.1-0.3-0.5-0.4-0.8-0.3l-6.7,3.2c-0.3,0.2-0.4,0.5-0.3,0.8
	l0,0C183.7,80.5,184.1,80.6,184.4,80.5z"/>
<path class="st10" d="M181.4,73.3l6.7-3.2c0.3-0.2,0.4-0.5,0.3-0.8l0,0c-0.1-0.3-0.5-0.4-0.8-0.3l-6.7,3.2c-0.3,0.2-0.4,0.5-0.3,0.8
	l0,0C180.8,73.3,181.1,73.4,181.4,73.3z"/>
<path class="st10" d="M192,96.1l6.7-3.2c0.3-0.2,0.4-0.5,0.3-0.8l0,0c-0.1-0.3-0.5-0.4-0.8-0.3l-6.7,3.2c-0.3,0.2-0.4,0.5-0.3,0.8
	l0,0C191.3,96.1,191.7,96.3,192,96.1z"/>
<path class="st10" d="M196.1,104.6l6.7-3.2c0.3-0.2,0.4-0.5,0.3-0.8l0,0c-0.1-0.3-0.5-0.4-0.8-0.3l-6.7,3.2
	c-0.3,0.2-0.4,0.5-0.3,0.8l0,0C195.4,104.6,195.8,104.7,196.1,104.6z"/>
<path class="st10" d="M200.2,113l6.7-3.2c0.3-0.2,0.4-0.5,0.3-0.8l0,0c-0.1-0.3-0.5-0.4-0.8-0.3l-6.7,3.2c-0.3,0.2-0.4,0.5-0.3,0.8
	l0,0C199.5,113,199.9,113.1,200.2,113z"/>
<path class="st10" d="M204.3,121.4l6.7-3.2c0.3-0.2,0.4-0.5,0.3-0.8l0,0c-0.1-0.3-0.5-0.4-0.8-0.3l-6.7,3.2
	c-0.3,0.2-0.4,0.5-0.3,0.8l0,0C203.7,121.5,204,121.6,204.3,121.4z"/>
<path class="st10" d="M208.4,129.9l6.7-3.2c0.3-0.2,0.4-0.5,0.3-0.8l0,0c-0.1-0.3-0.5-0.4-0.8-0.3l-6.7,3.3
	c-0.3,0.1-0.4,0.5-0.3,0.8l0,0C207.8,129.9,208.1,130,208.4,129.9z"/>
<path class="st11" d="M215,385.4L215,385.4c-0.6,0.4-1.3,0-1.6-0.8l-31.5-77.2c-0.4-0.9-0.2-1.9,0.4-2.2l0,0c0.6-0.4,1.3,0,1.6,0.8
	l31.5,77.2C215.8,384,215.6,385,215,385.4z"/>
<path class="st10" d="M215.4,383.2L183.9,306c-0.3-0.7-0.9-1.1-1.4-1c-0.2,0.3-0.2,0.7,0,1l32.1,78.6c0.1,0.4,0.4,0.6,0.7,0.5
	C215.6,384.7,215.7,383.9,215.4,383.2z"/>
<path class="st11" d="M222.9,379.9L222.9,379.9c0.6-0.4,0.7-1.4,0.4-2.2l-31.5-77.2c-0.4-0.9-1.1-1.2-1.6-0.8l0,0
	c-0.6,0.4-0.7,1.4-0.4,2.2l31.5,77.2C221.6,379.9,222.3,380.3,222.9,379.9z"/>
<path class="st10" d="M221.3,379l-31.5-77.2c-0.3-0.7-0.2-1.5,0.1-2c0.3,0,0.5,0.2,0.7,0.5l32.1,78.6c0.1,0.4,0.1,0.8,0,1
	C222.1,380.1,221.6,379.8,221.3,379z"/>
<path class="st10" d="M201.9,331.5l-6.8,3c-0.3,0.1-0.7,0-0.8-0.3l0,0c-0.1-0.3,0-0.7,0.3-0.8l6.8-3c0.3-0.1,0.7,0,0.8,0.3l0,0
	C202.4,331,202.2,331.4,201.9,331.5z"/>
<path class="st10" d="M205.7,340.1l-6.8,3c-0.3,0.1-0.7,0-0.8-0.3l0,0c-0.1-0.3,0-0.7,0.3-0.8l6.8-3c0.3-0.1,0.7,0,0.8,0.3l0,0
	C206.1,339.6,206,340,205.7,340.1z"/>
<path class="st10" d="M194.5,313.9l-6.8,3c-0.3,0.1-0.7,0-0.8-0.3l0,0c-0.1-0.3,0-0.7,0.3-0.8l6.8-3c0.3-0.1,0.7,0,0.8,0.3l0,0
	C195,313.4,194.8,313.7,194.5,313.9z"/>
<path class="st10" d="M198.3,322.5l-6.8,3c-0.3,0.1-0.7,0-0.8-0.3l0,0c-0.1-0.3,0-0.7,0.3-0.8l6.8-3c0.3-0.1,0.7,0,0.8,0.3l0,0
	C198.8,322,198.6,322.3,198.3,322.5z"/>
<path class="st10" d="M209.5,348.8l-6.8,3c-0.3,0.1-0.7,0-0.8-0.3l0,0c-0.1-0.3,0-0.7,0.3-0.8l6.8-3c0.3-0.1,0.7,0,0.8,0.3l0,0
	C209.9,348.2,209.8,348.6,209.5,348.8z"/>
<path class="st10" d="M213.2,357.4l-6.8,3c-0.3,0.1-0.7,0-0.8-0.3l0,0c-0.1-0.3,0-0.7,0.3-0.8l6.8-3c0.3-0.1,0.7,0,0.8,0.3l0,0
	C213.7,356.8,213.6,357.2,213.2,357.4z"/>
<path class="st10" d="M217,366l-6.8,3c-0.3,0.1-0.7,0-0.8-0.3l0,0c-0.1-0.3,0-0.7,0.3-0.8l6.8-3c0.3-0.1,0.7,0,0.8,0.3l0,0
	C217.5,365.5,217.3,365.8,217,366z"/>
<path class="st10" d="M220.8,374.6l-6.8,3c-0.3,0.1-0.7,0-0.8-0.3l0,0c-0.1-0.3,0-0.7,0.3-0.8l6.8-3c0.3-0.1,0.7,0,0.8,0.3l0,0
	C221.2,374,221.1,374.4,220.8,374.6z"/>
<g>
	<path class="st10" d="M52.8,283.1l-6.8-3c-0.3-0.1-0.5-0.5-0.3-0.8l0,0c0.1-0.3,0.5-0.5,0.8-0.3l6.8,3c0.3,0.1,0.5,0.5,0.3,0.8l0,0
		C53.5,283.1,53.1,283.3,52.8,283.1z"/>
	<path class="st10" d="M49,291.8l-6.8-3c-0.3-0.1-0.5-0.5-0.3-0.8l0,0c0.1-0.3,0.5-0.5,0.8-0.3l6.8,3c0.3,0.1,0.5,0.5,0.3,0.8l0,0
		C49.7,291.8,49.3,291.9,49,291.8z"/>
	<path class="st10" d="M45.2,300.4l-6.8-3c-0.3-0.1-0.5-0.5-0.3-0.8l0,0c0.1-0.3,0.5-0.5,0.8-0.3l6.8,3c0.3,0.1,0.5,0.5,0.3,0.8l0,0
		C45.9,300.4,45.5,300.5,45.2,300.4z"/>
	<path class="st10" d="M41.4,309l-6.8-3c-0.3-0.1-0.5-0.5-0.3-0.8l0,0c0.1-0.3,0.5-0.5,0.8-0.3l6.8,3c0.3,0.1,0.5,0.5,0.3,0.8l0,0
		C42.1,308.9,41.8,309.1,41.4,309z"/>
	<path class="st10" d="M37.7,317.5l-6.8-3c-0.3-0.1-0.5-0.5-0.3-0.8l0,0c0.1-0.3,0.5-0.5,0.8-0.3l6.8,3c0.3,0.1,0.5,0.5,0.3,0.8l0,0
		C38.3,317.5,38,317.7,37.7,317.5z"/>
	<path class="st10" d="M33.9,326.1l-6.8-3c-0.3-0.1-0.5-0.5-0.3-0.8l0,0c0.1-0.3,0.5-0.5,0.8-0.3l6.8,3c0.3,0.1,0.5,0.5,0.3,0.8l0,0
		C34.6,326.1,34.2,326.3,33.9,326.1z"/>
</g>
<g>
	<path class="st10" d="M75.5,231.5l-6.8-3c-0.3-0.1-0.5-0.5-0.3-0.8l0,0c0.1-0.3,0.5-0.5,0.8-0.3l6.8,3c0.3,0.1,0.5,0.5,0.3,0.8l0,0
		C76.2,231.5,75.8,231.6,75.5,231.5z"/>
	<path class="st10" d="M71.7,240.1l-6.8-3c-0.3-0.1-0.5-0.5-0.3-0.8l0,0c0.1-0.3,0.5-0.5,0.8-0.3l6.8,3c0.3,0.1,0.5,0.5,0.3,0.8l0,0
		C72.4,240.1,72,240.2,71.7,240.1z"/>
	<path class="st10" d="M67.9,248.7l-6.8-3c-0.3-0.1-0.5-0.5-0.3-0.8l0,0c0.1-0.3,0.5-0.5,0.8-0.3l6.8,3c0.3,0.1,0.5,0.5,0.3,0.8l0,0
		C68.6,248.7,68.3,248.8,67.9,248.7z"/>
	<path class="st10" d="M64.2,257.3l-6.8-3c-0.3-0.1-0.5-0.5-0.3-0.8l0,0c0.1-0.3,0.5-0.5,0.8-0.3l6.8,3c0.3,0.1,0.5,0.5,0.3,0.8l0,0
		C64.8,257.3,64.5,257.4,64.2,257.3z"/>
	<path class="st10" d="M60.4,265.9l-6.8-3c-0.3-0.1-0.5-0.5-0.3-0.8l0,0c0.1-0.3,0.5-0.5,0.8-0.3l6.8,3c0.3,0.1,0.5,0.5,0.3,0.8l0,0
		C61.1,265.9,60.7,266,60.4,265.9z"/>
	<path class="st10" d="M56.6,274.5l-6.8-3c-0.3-0.1-0.5-0.5-0.3-0.8l0,0c0.1-0.3,0.5-0.5,0.8-0.3l6.8,3c0.3,0.1,0.5,0.5,0.3,0.8l0,0
		C57.3,274.5,56.9,274.6,56.6,274.5z"/>
</g>
<path class="st11" d="M21.3,332.9L21.3,332.9c-0.4-0.9-0.1-3,0.6-4.7l65-149.9c0.7-1.6,1.6-2.2,1.9-1.3l0,0c0.4,0.9,0.1,3-0.7,4.7
	l-65,149.9C22.5,333.3,21.6,333.9,21.3,332.9z"/>
<path class="st10" d="M23.2,331.6l65-149.9c0.6-1.4,0.9-3.1,0.8-4.1c-0.2-0.1-0.6,0.2-0.9,0.9L21.9,331.1c-0.3,0.7-0.5,1.5-0.4,2.1
	C21.9,333.6,22.6,333,23.2,331.6z"/>
<path class="st11" d="M29.9,340.6L29.9,340.6c0.4,0.9,1.2,0.3,2-1.4l66-153.5c0.7-1.7,1-3.8,0.7-4.8l0,0c-0.4-0.9-1.2-0.3-2,1.4
	l-66,153.5C29.9,337.5,29.6,339.7,29.9,340.6z"/>
<path class="st10" d="M30.6,335.9l66-153.5c0.6-1.4,1.3-2.1,1.7-1.7c0,0.6-0.1,1.4-0.4,2.2L30.7,339.1c-0.3,0.7-0.7,1.1-0.9,1
	C29.7,339,30,337.3,30.6,335.9z"/>
<path class="st10" d="M89.6,198.1l-6.8-3c-0.3-0.1-0.5-0.5-0.3-0.8l0,0c0.1-0.3,0.5-0.5,0.8-0.3l6.8,3c0.3,0.1,0.5,0.5,0.3,0.8l0,0
	C90.3,198.1,89.9,198.3,89.6,198.1z"/>
<path class="st10" d="M85.8,206.7l-6.8-3c-0.3-0.1-0.5-0.5-0.3-0.8l0,0c0.1-0.3,0.5-0.5,0.8-0.3l6.8,3c0.3,0.1,0.5,0.5,0.3,0.8l0,0
	C86.5,206.7,86.1,206.9,85.8,206.7z"/>
<path class="st10" d="M82,215.3l-6.8-3c-0.3-0.1-0.5-0.5-0.3-0.8l0,0c0.1-0.3,0.5-0.5,0.8-0.3l6.8,3c0.3,0.1,0.5,0.5,0.3,0.8l0,0
	C82.7,215.3,82.4,215.5,82,215.3z"/>
<path class="st10" d="M78.3,223.9l-6.8-3c-0.3-0.1-0.5-0.5-0.3-0.8l0,0c0.1-0.3,0.5-0.5,0.8-0.3l6.8,3c0.3,0.1,0.5,0.5,0.3,0.8l0,0
	C78.9,223.9,78.6,224.1,78.3,223.9z"/>
<g>
	<path class="st12" d="M21.5,253.2c5.7-6.4,9.7-14,10.6-20.1c0.3-1.6,0.3-2.2,0.4-3.7c0.1-1.3,0.1-2.5,0.1-3.7l0-0.6l0-5
		c-0.1-1.4-0.1-2.7-0.1-4c0-8.8,2.7-15.5,7.1-23.6c2.6-4.7,5.8-9.9,9.1-15.3c2.5-4.1,5.1-8.3,7.5-12.4c4.8-8.3,8.4-17.3,10.4-25.8
		c1.9-8.1,2.5-16.2,1.8-23.9c-0.1-1.6-0.3-3.1-0.4-4.7c-0.8-8.6-1.5-16.8-1.8-26.8l0-0.1l0-0.1c0.1-0.8,0.2-1.7,0.3-2.7
		c0.4-3.9,0.8-8.7,2.1-13.3c0.3-1,0.5-2.1,0.7-3.2c0.3-1.9,0.7-3.9,1.6-5.7c1.5-2.9,3.3-5.7,5.5-8.3c1.5-1.9,3.3-3.8,4.8-5.3
		c1.9-2,4-3.8,6.1-5.6l1.4-1.2c1.2-1,2.4-2.1,3.5-3.2c1.3-1.1,2.3-2.2,3.2-3.2c0.5-0.6,1.3-1.1,2.2-1.4c0.3-0.1,0.6-0.1,0.9-0.1
		c1.3,0,2.4,0.8,2.8,1.9c0.4,1.2,0.1,2.4-0.2,3.3c-0.5,1.5-0.8,3-1.1,4.5c-0.2,0.8-0.3,1.5-0.5,2.2c-0.2,0.7-0.3,1.5-0.5,2.2
		c-0.2,0.9-0.3,1.8-0.6,2.7c-0.4,1.5-1,3.1-1.8,5c-0.9,1.8-2.1,3.5-3.6,5.1c-1.7,1.8-3.6,3.3-5.6,4.5c-0.3,0.2-0.7,0.4-1,0.5
		c-1.2,2.7-2.6,5-4.1,7.3c-2.2,3.5-4.3,6.8-4.6,10.5l-0.2,1.6c-0.6,6.2-1.5,14.7-0.3,19.6l0,0.1l0,0.1c0.1,2.5,0.3,4.8,0.4,7.1
		c0.6,8.9,1.2,17.3-0.4,29.3c-2.6,12-9.1,23.3-15.3,34.1l-1.4,2.4c-2.4,4.1-5,8.1-7.5,12c-4.9,7.5-9.4,14.5-12.1,21.9
		c-1.1,3.4-1.3,7.1-1.4,11.1c-0.2,4.3-0.3,8.8-1.9,12.9c-3.5,9-8.5,16.7-14.9,22.7L21.5,253.2z"/>
	<path class="st13" d="M33.5,215.9c0-8.3,2.4-14.7,7-23.1c4.5-8.3,11.1-18.3,16.6-27.7c5-8.6,8.6-17.6,10.5-26.1
		c2-8.6,2.5-16.7,1.8-24.2c-0.9-10.3-1.9-19.6-2.2-31.4c0.4-4,0.7-10.2,2.4-15.8c0.8-2.8,0.8-6,2.2-8.8c1.5-2.8,3.3-5.6,5.3-8.1
		c1.4-1.8,3.1-3.6,4.8-5.3c2.3-2.4,4.9-4.5,7.4-6.7c1.2-1.1,2.4-2.1,3.6-3.2c1.2-1.1,2.3-2.2,3.2-3.3c0.4-0.5,1.1-0.9,1.7-1.1
		c1.2-0.3,2.2,0.3,2.5,1.1c0.3,0.8,0.1,1.8-0.2,2.7c-0.7,2.3-1.1,4.6-1.6,6.8c-0.4,1.6-0.6,3.2-1,4.8c-0.4,1.6-1,3.2-1.8,4.8
		c-0.8,1.6-1.9,3.3-3.5,4.8c-1.5,1.6-3.2,3.1-5.4,4.3c-0.4,0.2-0.8,0.5-1.3,0.7c-2.9,6.9-8.3,11.9-8.9,18.4
		c-0.6,6.5-1.8,16-0.4,21.5c0.6,12.2,2,21.3,0.1,36.3c-2.7,12.7-9.8,24.3-16.6,36.2c-6.9,11.9-15.6,22.6-19.6,34
		c-2.5,7.3-0.4,16.3-3.3,24c-2.9,7.6-7.5,15.6-14.7,22.3c5.6-6.3,9.8-14.1,10.8-20.6c0.3-1.6,0.3-2.2,0.4-3.8
		c0.1-1.6,0.1-2.9,0.1-4.4c0-1.5,0-3.6,0-5C33.5,218.6,33.5,217.3,33.5,215.9z"/>
	<path class="st13" d="M101.7,28.1c1.5-1.6,2.4-3.6,1.9-5.4c1.2,1.3,0.9,3.2-0.1,4.8c-1,1.6-2.6,3-4,4.4c-1.4,1.5-2.9,3.1-3.4,4.8
		c-0.2,0.9-0.1,1.8-0.5,2.8c-1.5,3.8-5.4,1.1-3.1-2.4c1.1-1.7,2.8-3.2,4.5-4.7C98.6,31,100.2,29.6,101.7,28.1z"/>
	<g>
		<path class="st12" d="M86.3,44.7c-1.2,0.6-2.5,1.8-3.1,3.2c-0.3,0.7-0.4,1.3-0.4,1.8c0,0.6,0.3,1,0.7,1.3c0.2,0.2-0.2,0.8-0.5,0.7
			c-1-0.5-1.1-2.2-0.4-3.8c0.7-1.6,2.2-3.1,3.7-3.7C86.6,44.2,86.6,44.6,86.3,44.7z"/>
	</g>
	<path class="st12" d="M83.9,49.7c0.9,0,2.1-0.8,2.5-1.7c0.4-0.9,0-1.7-1-1.7c-0.9,0-2,0.7-2.5,1.7C82.5,49,82.9,49.8,83.9,49.7z"/>
	<g>
		<path class="st12" d="M99.7,32.5c-0.5,0.9-1.2,1.8-2,2.5c-0.8,0.7-1.9,1.6-2.9,1.8c-0.3,0.1-0.5-0.2-0.2-0.4
			c0.4-0.3,0.9-0.6,1.3-0.9c0.4-0.3,0.8-0.6,1.2-1c0.8-0.7,1.4-1.4,1.9-2.2C99.3,32,100,32.1,99.7,32.5z"/>
	</g>
	<path class="st12" d="M68,79.2l-0.5-1.9c2.7-0.7,8.9-5.1,9.3-7.1c0.1-0.4-0.3-1.1-1-1.8c-1.5-1.5-4.1-2.6-5.4-2.3L70,64.1
		c2.2-0.5,5.5,1,7.2,2.8c1.2,1.2,1.8,2.5,1.5,3.7C78.1,73.6,70.8,78.4,68,79.2z"/>
	<path class="st14" d="M67.7,78.2c2.7-0.7,9.5-5.3,10.1-7.8c0.6-2.6-4.9-5.9-7.5-5.3"/>
	<path class="st12" d="M68.2,98.5l-0.5-1.9c1.9-0.5,5.9-5.8,6.3-7.6c0-0.1-0.1-0.4-0.8-1c-1.6-1.3-4.4-2.4-5.6-2.1l-0.5-1.9
		c2.2-0.5,6.1,1.2,7.8,2.9c1.1,1.1,1.2,2,1.1,2.6C75.4,91.7,71.1,97.8,68.2,98.5z"/>
	<path class="st14" d="M67.9,97.6c2.4-0.6,6.6-6.4,7-8.3c0.4-1.9-5.3-4.9-7.7-4.3"/>
	<path class="st12" d="M69.3,133.4l-0.8-1.8c2-0.9,6.7-4.5,6.9-6.2c0.1-0.8-1.3-2.9-3.2-4.3c-1.1-0.8-1.9-1-2-0.9l-0.8-1.8
		c1.3-0.6,2.9,0.3,4,1.1c1.7,1.2,4.2,4,4,6.2C77,128.5,71.2,132.5,69.3,133.4z"/>
	<path class="st14" d="M68.9,132.4c1.9-0.9,7.2-4.7,7.4-7c0.3-2.3-4.7-7.1-6.6-6.3"/>
	<path class="st12" d="M59,163.2l-0.5-1.9c2.6-0.6,7.6-3.3,7.8-4.3c0.1-0.2-0.1-0.5-0.4-0.8c-0.7-0.7-2.2-1.1-3.1-0.9l-0.5-1.9
		c1.6-0.4,3.8,0.2,5,1.4c0.8,0.8,1.1,1.7,0.9,2.6C67.6,160.1,60.4,162.8,59,163.2z"/>
	<path class="st14" d="M58.7,162.2c2-0.5,8.1-3.2,8.5-5.1c0.4-1.9-2.8-3.4-4.7-2.9"/>
	<path class="st12" d="M42,191.3l-0.1-2c2.2-0.1,6.9-1.6,7.3-2.5c0.1-0.4-0.2-0.8-0.3-1c-0.6-0.8-1.9-1.5-2.6-1.5l-0.1-2
		c1.5-0.1,3.3,0.9,4.4,2.3c0.7,1,0.9,2,0.6,2.9C50.1,190,43.1,191.3,42,191.3z"/>
	<path class="st14" d="M41.9,190.3c1.8-0.1,7.5-1.5,8.2-3.2c0.6-1.7-2.1-4-4-3.8"/>
	<path class="st12" d="M34,220.1c-0.2,0-0.4,0-0.6,0l0.4-2c0.9,0.2,2.7-0.6,3.5-1.3c-0.5-0.7-2.8-2.1-3.8-2.2l0.3-2
		c1.4,0.2,4.8,2,5.5,3.6c0.2,0.6,0.2,1.1-0.2,1.6C38.1,219,35.7,220.1,34,220.1z"/>
	<path class="st14" d="M33.6,219c1.3,0.2,3.8-0.8,4.6-1.9c0.8-1.1-3.3-3.4-4.6-3.6"/>
	<path class="st15" d="M70.6,64.6c0.8-0.1,1.7-0.8,2-1.6c0.3-0.8-0.2-1.4-1-1.3"/>
	<path class="st12" d="M77.1,114.9c-2.3-0.1-6.7-3.2-7.8-5.6c-0.3-0.6-0.4-1.5,0.4-2.8c1.3-2,4.7-4.1,6.6-4.1c0,0,0,0,0.1,0l-0.1,2
		c-1,0-3.9,1.6-4.9,3.2c-0.2,0.4-0.3,0.7-0.3,0.9c0.9,1.8,4.6,4.4,6,4.4L77.1,114.9z"/>
	<path class="st14" d="M76.3,103.5c-1.9-0.1-7.1,3.4-6.1,5.4c1,2.1,5,4.9,6.9,5"/>
	<path class="st12" d="M70.5,152.4c-0.1-0.4-0.2-1-0.4-1.8c-1.5-6.9-2.1-11.1-0.3-12.4c1.5-1.1,3.5-1.5,5.1-0.9
		c1.1,0.4,1.8,1.3,2,2.4l-2,0.4c-0.1-0.4-0.3-0.7-0.7-0.9c-0.9-0.3-2.2-0.1-3.1,0.6c-0.5,0.4-0.7,2.5,1,10.4
		c0.2,0.8,0.3,1.5,0.4,1.9L70.5,152.4z"/>
	<path class="st14" d="M75.9,139.8c-0.4-2.2-3.5-2.3-5.5-0.9c-2,1.5,0.7,11.1,1.1,13.2"/>
	<path class="st12" d="M55.3,181.6c-1.2,0-2.6-0.8-3.6-2.2c-0.9-1.3-1.3-2.7-1-3.8c0.6-2.1,3-4,5.4-4.4c0.6-0.1,1.4-0.2,2.1-0.2
		c0.4,0,1.7,0,2.3,0.9c0.3,0.4,0.5,1,0.2,1.9c-0.6,1.9-2.8,5.5-4.5,7.4l-0.2,0.3l-0.4,0.1C55.5,181.6,55.4,181.6,55.3,181.6
		L55.3,181.6z"/>
	<path class="st14" d="M55.5,180.6c1.6-1.7,3.7-5.2,4.3-7s-1.5-1.6-3.5-1.3c-2,0.3-4.1,2-4.6,3.7C51.1,177.7,53.5,180.8,55.5,180.6z
		"/>
	<path class="st12" d="M35.4,205.4c-0.1,0-0.1,0-0.1,0l0.2-2c0.9,0.1,4.5-1.2,5.4-2c-0.4-0.7-2.4-2.1-3.1-2.2l0.1-2
		c1.4,0.1,4,1.8,4.8,3.3c0.4,0.8,0.3,1.4,0.1,1.8C41.9,203.7,37,205.4,35.4,205.4z"/>
	<path class="st14" d="M35.3,204.4c1.2,0.1,5.9-1.6,6.5-2.6c0.6-1-2.8-3.5-4.1-3.6"/>
	<path class="st12" d="M33.8,233.3c-0.3,0-0.6,0-0.9-0.2l0.7-1.9c0.5,0.2,2-0.4,2.6-1.4c0.1-0.7-2-3.1-2.8-3.4l0.6-1.9
		c1.1,0.3,3.3,2.5,4,4.2c0.3,0.8,0.3,1.5,0,2.1C37.1,232.2,35.3,233.3,33.8,233.3z"/>
	<path class="st14" d="M33.2,232.2c1,0.4,3.1-0.5,3.8-1.9c0.8-1.4-2.4-4.5-3.4-4.9"/>
</g>
<g>
	<path class="st12" d="M331.6,213.3c-4-3.9-7-8.6-8-12.6c-0.3-1.1-0.3-1.4-0.5-2.4c-0.1-0.9-0.2-1.6-0.3-2.4l0-0.4l-0.3-3.3
		c-0.1-0.9-0.1-1.8-0.2-2.7c-0.5-5.8-2.7-10.1-6-15.1c-1.9-2.9-4.3-6.1-6.8-9.5c-1.9-2.5-3.8-5.1-5.5-7.7
		c-3.6-5.2-6.5-10.8-8.3-16.4c-1.7-5.2-2.6-10.5-2.7-15.6c0-1,0-2.1,0-3.1c0-5.7-0.1-11.1-0.6-17.7l0,0l0,0
		c-0.1-0.5-0.2-1.1-0.3-1.8c-0.5-2.5-1.1-5.7-2.2-8.6c-0.2-0.6-0.4-1.3-0.6-2.1c-0.3-1.2-0.7-2.5-1.4-3.7c-1.1-1.8-2.5-3.5-4-5.1
		c-1.1-1.2-2.3-2.3-3.4-3.2c-1.3-1.2-2.8-2.2-4.2-3.3l-1-0.7c-0.8-0.6-1.6-1.2-2.5-1.9c-0.9-0.7-1.6-1.3-2.2-1.9
		c-0.4-0.4-0.9-0.7-1.5-0.8c-0.2,0-0.4,0-0.6,0c-0.8,0.1-1.5,0.7-1.7,1.4c-0.2,0.8,0.1,1.6,0.3,2.2c0.4,1,0.7,2,1,2.9
		c0.2,0.5,0.3,1,0.5,1.4c0.2,0.5,0.3,0.9,0.4,1.4c0.2,0.6,0.3,1.1,0.5,1.7c0.3,1,0.8,2,1.5,3.2c0.7,1.1,1.6,2.2,2.6,3.1
		c1.2,1.1,2.5,2,3.9,2.6c0.2,0.1,0.4,0.2,0.7,0.3c0.9,1.7,2,3.1,3.1,4.5c1.6,2.2,3.2,4.2,3.6,6.6l0.2,1.1c0.8,4,1.9,9.6,1.4,12.9
		l0,0.1l0,0.1c0.1,1.6,0.1,3.2,0.2,4.7c0.2,5.9,0.3,11.5,2.1,19.3c2.4,7.8,7.3,14.7,11.9,21.5l1,1.5c1.8,2.6,3.7,5,5.5,7.4
		c3.6,4.6,6.9,9,9.1,13.7c0.9,2.1,1.3,4.6,1.6,7.2c0.4,2.8,0.8,5.8,2,8.4c2.8,5.7,6.5,10.4,10.9,14L331.6,213.3z"/>
	<path class="st13" d="M321.8,192.2c0.1,0.9,0.2,2.4,0.3,3.3c0.1,1,0.2,1.9,0.4,2.9c0.2,1,0.2,1.4,0.5,2.5c1,4.2,4.2,9.1,8.2,12.9
		c-5-4-8.4-9-10.8-13.8c-2.3-4.9-1.6-10.9-3.6-15.6c-3.3-7.3-9.5-13.7-14.7-21.2c-5.1-7.4-10.3-14.6-12.9-22.8
		c-2.2-9.7-1.9-15.8-2.2-23.9c0.5-3.7-0.8-9.9-1.6-14.1c-0.8-4.2-4.5-7.2-6.8-11.6c-0.3-0.1-0.6-0.2-0.8-0.4
		c-1.4-0.7-2.7-1.5-3.7-2.5c-1.1-0.9-1.9-2-2.5-3c-0.6-1-1.1-2-1.4-3.1c-0.4-1-0.6-2.1-1-3.1c-0.5-1.4-0.9-2.9-1.5-4.4
		c-0.2-0.6-0.4-1.2-0.3-1.8c0.1-0.6,0.8-1.1,1.5-0.9c0.4,0.1,0.9,0.3,1.2,0.6c0.7,0.7,1.5,1.3,2.3,2c0.8,0.6,1.6,1.3,2.5,1.9
		c1.7,1.2,3.6,2.5,5.2,3.9c1.2,1,2.3,2.1,3.4,3.2c1.5,1.6,2.8,3.3,3.9,5c1,1.7,1.2,3.8,1.9,5.6c1.4,3.6,2,7.6,2.5,10.3
		c0.6,7.8,0.5,14,0.6,20.8c0,5,0.9,10.3,2.7,15.8c1.8,5.5,4.6,11.2,8.4,16.5c4.1,5.8,8.9,12,12.3,17.2c3.5,5.2,5.4,9.3,5.9,14.8
		C321.7,190.4,321.7,191.3,321.8,192.2z"/>
	<path class="st13" d="M269.5,72.7c1.1,0.9,2.3,1.7,3.1,2.8c1.7,2.2-0.6,4.2-1.8,1.8c-0.3-0.6-0.3-1.2-0.5-1.8
		c-0.4-1.1-1.4-2.1-2.5-2.9c-1-0.9-2.1-1.7-2.9-2.7c-0.7-1-1-2.3-0.4-3.2c-0.2,1.2,0.5,2.4,1.6,3.4C267.2,71,268.4,71.9,269.5,72.7z
		"/>
	<g>
		<path class="st12" d="M277.1,79.8c1,0.3,2,1.2,2.6,2.2c0.6,1,0.6,2.1,0,2.5c-0.2,0.1-0.5-0.3-0.4-0.4c0.2-0.3,0.4-0.5,0.4-0.9
			c0-0.4-0.1-0.8-0.4-1.2c-0.5-0.9-1.4-1.6-2.2-1.9C276.9,80,276.9,79.8,277.1,79.8z"/>
	</g>
	<path class="st12" d="M279.5,82.1c-0.3-0.6-1.1-1-1.7-1c-0.6,0.1-0.8,0.6-0.5,1.2c0.3,0.6,1.1,1,1.7,1
		C279.6,83.2,279.8,82.7,279.5,82.1z"/>
	<g>
		<path class="st12" d="M268.2,72.8c0.4,0.5,0.8,0.9,1.3,1.3c0.3,0.2,0.6,0.4,0.8,0.5c0.3,0.2,0.6,0.3,0.9,0.5
			c0.2,0.1,0.1,0.3-0.1,0.3c-0.7-0.1-1.4-0.6-1.9-1c-0.6-0.5-1.1-1-1.4-1.5C267.6,72.7,268,72.5,268.2,72.8z"/>
	</g>
	<path class="st12" d="M291,101.6l0.2-1.3c-1.7-0.3-6-2.8-6.4-4.1c-0.1-0.3,0.1-0.8,0.5-1.2c0.9-1.1,2.5-1.9,3.3-1.8l0.2-1.3
		c-1.4-0.2-3.4,1-4.5,2.3c-0.7,0.9-1,1.7-0.7,2.5C284.2,98.6,289.1,101.4,291,101.6z"/>
	<path class="st14" d="M288.6,92.5c-1.7-0.2-5,2.3-4.5,3.9c0.5,1.6,5.2,4.3,6.9,4.5"/>
	<path class="st12" d="M292.1,114.4l0.2-1.3c-1.2-0.2-4.1-3.4-4.5-4.6c0,0,0.1-0.3,0.5-0.7c0.9-1,2.7-1.8,3.5-1.7l0.2-1.3
		c-1.4-0.2-3.8,1.1-4.8,2.4c-0.6,0.8-0.6,1.4-0.5,1.8C287,110.4,290.2,114.1,292.1,114.4z"/>
	<path class="st14" d="M291.8,105.4c-1.6-0.2-5,2.1-4.6,3.3c0.4,1.2,3.4,4.8,5,5.1"/>
	<path class="st12" d="M293.5,137.4l0.4-1.3c-1.4-0.5-4.5-2.6-4.8-3.6c-0.1-0.5,0.6-2,1.8-3c0.7-0.6,1.1-0.7,1.2-0.7l0.4-1.3
		c-0.9-0.3-1.8,0.4-2.5,1c-1,0.9-2.5,2.9-2.2,4.3C288.3,134.7,292.3,137,293.5,137.4z"/>
	<path class="st14" d="M292.4,128.1c-1.3-0.4-4.1,3-3.8,4.5s3.9,3.7,5.2,4.1"/>
	<path class="st12" d="M302,156.4l0.2-1.3c-1.7-0.3-5-1.7-5.3-2.4c0-0.2,0-0.3,0.2-0.5c0.4-0.5,1.3-0.9,1.9-0.8l0.2-1.3
		c-1.1-0.2-2.4,0.4-3.1,1.2c-0.5,0.6-0.6,1.2-0.4,1.8C296.3,154.9,301.1,156.3,302,156.4z"/>
	<path class="st14" d="M299.2,150.8c-1.3-0.2-3.2,1-2.8,2.2c0.4,1.2,4.5,2.6,5.8,2.8"/>
	<path class="st12" d="M314.6,173.9l-0.1-1.3c-1.4,0.1-4.5-0.7-4.8-1.2c-0.1-0.2,0.1-0.6,0.1-0.7c0.3-0.6,1.1-1.1,1.6-1.1l0-1.3
		c-0.9,0-2.1,0.8-2.6,1.8c-0.4,0.7-0.5,1.4-0.2,2C309.4,173.5,313.9,173.9,314.6,173.9z"/>
	<path class="st14" d="M311.5,168.8c-1.2,0-2.8,1.7-2.3,2.8c0.5,1.1,4.2,1.7,5.4,1.6"/>
	<path class="st12" d="M321.5,192.3c0.1,0,0.3,0,0.4-0.1l-0.4-1.3c-0.5,0.2-1.8-0.2-2.3-0.6c0.3-0.5,1.7-1.6,2.3-1.7l-0.3-1.3
		c-0.9,0.2-2.9,1.6-3.3,2.7c-0.1,0.4,0,0.8,0.2,1C318.8,191.8,320.4,192.4,321.5,192.3z"/>
	<path class="st14" d="M321.4,188c-0.9,0.2-3.3,2-2.7,2.7s2.2,1.2,3.1,1"/>
	<path class="st15" d="M287.5,90.4c-0.5,0-0.8,0.4-0.5,0.9c0.2,0.5,0.8,0.9,1.4,0.9"/>
	<path class="st12" d="M287.4,125.8c1.5-0.2,4.1-2.5,4.6-4.1c0.1-0.4,0.2-1-0.4-1.8c-0.9-1.2-3.3-2.4-4.5-2.3c0,0,0,0,0,0l0.2,1.3
		c0.6-0.1,2.6,0.8,3.4,1.8c0.2,0.2,0.3,0.4,0.2,0.5c-0.4,1.2-2.6,3.2-3.6,3.3L287.4,125.8z"/>
	<path class="st14" d="M287.3,125.1c1.2-0.2,3.6-2.3,4.1-3.7c0.5-1.4-3-3.4-4.3-3.2"/>
	<path class="st12" d="M294,150c0-0.3,0.1-0.7,0.1-1.2c0.6-4.6,0.6-7.4-0.6-8.2c-1-0.6-2.4-0.7-3.3-0.3c-0.7,0.3-1.1,0.9-1.1,1.7
		l1.3,0.1c0-0.3,0.2-0.5,0.4-0.6c0.5-0.3,1.4-0.2,2,0.2c0.3,0.2,0.6,1.6,0,6.9c-0.1,0.6-0.1,1-0.1,1.3L294,150z"/>
	<path class="st14" d="M293.3,149.9c0.1-1.4,1.2-7.9-0.2-8.8c-1.4-0.9-3.3-0.5-3.4,0.9"/>
	<path class="st12" d="M305.5,168.3c0.8-0.1,1.6-0.7,2.1-1.6c0.5-0.9,0.7-1.8,0.4-2.5c-0.5-1.3-2.2-2.5-3.7-2.6c-0.4,0-0.9,0-1.3,0
		c-0.3,0-1.1,0.1-1.4,0.7c-0.1,0.2-0.3,0.7,0,1.3c0.5,1.2,2.1,3.4,3.3,4.6l0.2,0.2l0.2,0C305.4,168.3,305.5,168.3,305.5,168.3
		L305.5,168.3z"/>
	<path class="st14" d="M307.5,164.3c-0.5-1.1-1.9-2.1-3.2-2.2s-2.6,0-2.1,1.1c0.5,1.1,2,3.3,3.2,4.3
		C306.6,167.7,307.9,165.4,307.5,164.3z"/>
	<path class="st12" d="M319.7,182.7C319.8,182.7,319.8,182.7,319.7,182.7l-0.1-1.3c-0.5,0.1-3-0.5-3.6-1c0.2-0.5,1.4-1.6,1.9-1.6
		l-0.2-1.3c-0.9,0.1-2.4,1.5-2.8,2.4c-0.2,0.6-0.1,0.9,0,1.2C315.5,182,318.7,182.8,319.7,182.7z"/>
	<path class="st14" d="M317.8,178.2c-0.8,0.1-2.8,1.9-2.4,2.6c0.4,0.6,3.5,1.5,4.3,1.3"/>
	<path class="st12" d="M322.5,201c0.2,0,0.4-0.1,0.6-0.2l-0.6-1.2c-0.3,0.1-1.3-0.2-1.7-0.8c-0.1-0.4,1.1-2.2,1.6-2.4l-0.5-1.2
		c-0.7,0.3-1.9,1.8-2.3,3c-0.2,0.6-0.1,1,0.1,1.4C320.3,200.5,321.6,201.1,322.5,201z"/>
	<path class="st14" d="M322.1,195.8c-0.6,0.3-2.4,2.6-1.9,3.4c0.6,0.8,1.9,1.3,2.5,1"/>
</g>
<g>
	<path class="st12" d="M298,375.3c-5.3-5.2-9.3-11.5-10.5-16.8c-0.3-1.4-0.4-1.9-0.6-3.2c-0.2-1.1-0.3-2.2-0.4-3.2l-0.1-0.5
		l-0.3-4.4c-0.1-1.2-0.1-2.3-0.2-3.5c-0.6-7.7-3.5-13.3-7.8-20c-2.5-3.9-5.6-8.2-8.9-12.7c-2.4-3.4-5-6.9-7.3-10.2
		c-4.7-6.9-8.4-14.4-10.8-21.8c-2.2-6.9-3.3-13.9-3.3-20.7c0-1.4,0-2.8,0-4.1c0-7.6,0.1-14.7-0.5-23.5l0-0.1l0-0.1
		c-0.1-0.7-0.3-1.5-0.4-2.3c-0.6-3.4-1.3-7.5-2.8-11.4c-0.3-0.9-0.6-1.8-0.8-2.7c-0.4-1.6-0.8-3.3-1.8-4.9c-1.5-2.4-3.3-4.7-5.3-6.9
		c-1.4-1.5-3.1-3-4.5-4.3c-1.7-1.6-3.7-3-5.6-4.4l-1.3-0.9c-1.1-0.8-2.2-1.6-3.2-2.5c-1.1-0.9-2.1-1.7-2.9-2.6
		c-0.5-0.5-1.2-0.9-2-1.1c-0.3-0.1-0.5-0.1-0.8,0c-1.1,0.1-2,0.8-2.3,1.8c-0.3,1.1,0.1,2.1,0.4,2.9c0.5,1.3,0.9,2.6,1.3,3.9
		c0.2,0.6,0.4,1.3,0.6,1.9c0.2,0.6,0.4,1.2,0.6,1.9c0.2,0.7,0.4,1.5,0.7,2.3c0.4,1.3,1,2.6,1.9,4.2c0.9,1.5,2.1,2.9,3.5,4.2
		c1.6,1.4,3.3,2.6,5.1,3.5c0.3,0.1,0.6,0.3,0.9,0.4c1.2,2.2,2.6,4.2,4,6.1c2.1,2.9,4.1,5.6,4.7,8.8l0.3,1.4c1,5.4,2.3,12.7,1.7,17
		l0,0.1l0,0.1c0.1,2.2,0.1,4.2,0.1,6.2c0.1,7.8,0.3,15.2,2.5,25.5c3.1,10.3,9.4,19.6,15.5,28.6l1.4,2c2.3,3.4,4.8,6.7,7.2,9.9
		c4.7,6.1,9.1,11.9,11.9,18.2c1.2,2.8,1.6,6.1,2,9.5c0.5,3.7,0.9,7.6,2.5,11.1c3.6,7.6,8.5,13.9,14.4,18.7L298,375.3z"/>
	<path class="st13" d="M285.2,347.2c0.1,1.3,0.2,3.1,0.3,4.4c0.1,1.3,0.2,2.5,0.4,3.8c0.2,1.4,0.3,1.9,0.7,3.3
		c1.3,5.6,5.5,12.1,10.7,17.2c-6.6-5.4-11.1-12-14.1-18.4c-3-6.5-1.9-14.5-4.6-20.6c-4.3-9.7-12.5-18.3-19.2-28.2
		c-6.6-9.8-13.5-19.5-16.8-30.3c-2.7-12.9-2.2-20.9-2.6-31.6c0.8-4.9-0.9-13.1-1.9-18.7c-1-5.6-5.9-9.5-8.9-15.4
		c-0.4-0.2-0.7-0.3-1.1-0.5c-1.9-0.9-3.5-2.1-4.9-3.3c-1.4-1.3-2.5-2.6-3.3-4c-0.8-1.4-1.4-2.7-1.9-4.1c-0.5-1.4-0.8-2.8-1.2-4.1
		c-0.6-1.9-1.1-3.9-1.9-5.8c-0.3-0.8-0.6-1.6-0.4-2.3c0.2-0.7,1-1.4,2.1-1.2c0.6,0.1,1.1,0.4,1.6,0.8c0.9,0.9,1.9,1.8,3,2.7
		c1,0.9,2.1,1.7,3.3,2.5c2.3,1.7,4.7,3.4,6.8,5.3c1.5,1.3,3.1,2.8,4.4,4.3c2,2.1,3.7,4.4,5.2,6.7c1.4,2.3,1.6,5.1,2.5,7.5
		c1.8,4.8,2.5,10.1,3.2,13.6c0.6,10.3,0.5,18.5,0.4,27.5c0,6.6,1,13.7,3.3,21c2.3,7.3,6,14.8,10.9,22c5.3,7.8,11.7,16,16.1,22.9
		c4.5,7,7,12.4,7.6,19.6C285.1,344.9,285.1,346,285.2,347.2z"/>
	<path class="st13" d="M217.5,188.4c1.5,1.2,3.1,2.3,4.1,3.8c2.2,2.9-0.9,5.6-2.5,2.3c-0.4-0.8-0.4-1.6-0.6-2.4
		c-0.5-1.4-1.9-2.8-3.2-3.9c-1.3-1.2-2.8-2.3-3.8-3.6c-1-1.3-1.3-3-0.4-4.2c-0.3,1.6,0.7,3.2,2,4.5
		C214.5,186.2,216,187.3,217.5,188.4z"/>
	<g>
		<path class="st12" d="M227.4,197.9c1.3,0.4,2.7,1.6,3.4,3c0.7,1.3,0.8,2.8,0,3.4c-0.2,0.2-0.7-0.4-0.5-0.6
			c0.3-0.3,0.5-0.7,0.5-1.2c0-0.5-0.2-1-0.5-1.6c-0.6-1.2-1.8-2.2-2.9-2.6C227.2,198.2,227.2,197.8,227.4,197.9z"/>
	</g>
	<path class="st12" d="M230.6,201c-0.4-0.8-1.4-1.4-2.2-1.3c-0.8,0.1-1.1,0.8-0.7,1.6c0.4,0.8,1.4,1.3,2.2,1.3
		C230.7,202.5,231,201.8,230.6,201z"/>
	<g>
		<path class="st12" d="M215.7,188.5c0.5,0.7,1.1,1.3,1.8,1.8c0.3,0.3,0.7,0.5,1.1,0.7c0.4,0.2,0.8,0.4,1.2,0.7
			c0.3,0.2,0.1,0.4-0.1,0.4c-0.9-0.2-1.9-0.8-2.6-1.4c-0.8-0.6-1.4-1.3-1.9-2.1C214.9,188.3,215.5,188.2,215.7,188.5z"/>
	</g>
	<path class="st12" d="M245.6,227l0.3-1.7c-2.3-0.4-7.9-3.8-8.5-5.5c-0.1-0.4,0.1-1,0.7-1.6c1.2-1.4,3.3-2.5,4.4-2.4l0.2-1.7
		c-1.9-0.3-4.6,1.3-6,2.9c-1,1.2-1.3,2.3-1,3.3C236.6,222.9,243.1,226.6,245.6,227z"/>
	<path class="st14" d="M242.6,214.9c-2.3-0.4-6.7,2.9-6,5.1c0.7,2.2,6.8,5.7,9.1,6.1"/>
	<path class="st12" d="M246.8,243.9l0.3-1.7c-1.6-0.3-5.4-4.6-5.9-6.2c0-0.1,0.1-0.4,0.6-1c1.2-1.3,3.6-2.4,4.6-2.2l0.2-1.7
		c-1.9-0.3-5.1,1.5-6.4,3.1c-0.9,1-0.9,1.8-0.7,2.3C240.2,238.5,244.3,243.5,246.8,243.9z"/>
	<path class="st14" d="M246.6,232c-2.1-0.3-6.7,2.7-6.2,4.3s4.5,6.4,6.6,6.8"/>
	<path class="st12" d="M248.5,274.3l0.6-1.7c-1.8-0.6-6-3.5-6.3-4.9c-0.1-0.7,0.9-2.6,2.4-4c0.9-0.8,1.5-1,1.7-0.9l0.6-1.7
		c-1.1-0.4-2.5,0.5-3.3,1.3c-1.3,1.2-3.3,3.8-2.9,5.7C241.6,270.7,246.8,273.7,248.5,274.3z"/>
	<path class="st14" d="M247,262c-1.7-0.6-5.6,3.9-5.2,5.9c0.4,2,5.1,4.9,6.8,5.5"/>
	<path class="st12" d="M259.4,299.6l0.3-1.7c-2.2-0.4-6.7-2.3-7-3.2c-0.1-0.2,0-0.4,0.2-0.7c0.6-0.7,1.8-1.1,2.6-1l0.3-1.7
		c-1.4-0.2-3.2,0.4-4.2,1.6c-0.6,0.7-0.8,1.6-0.6,2.4C251.8,297.5,258.2,299.4,259.4,299.6z"/>
	<path class="st14" d="M255.7,292.1c-1.7-0.3-4.3,1.2-3.8,2.8c0.5,1.6,5.9,3.5,7.6,3.8"/>
	<path class="st12" d="M276,322.9l-0.1-1.7c-1.8,0.1-6-0.9-6.4-1.7c-0.1-0.3,0.1-0.7,0.2-0.9c0.5-0.8,1.5-1.5,2.1-1.5l0-1.7
		c-1.2,0-2.8,1-3.6,2.3c-0.5,0.9-0.6,1.8-0.3,2.6C269,322.3,275,322.9,276,322.9z"/>
	<path class="st14" d="M271.8,316.2c-1.6,0-3.8,2.2-3.1,3.6c0.6,1.4,5.6,2.3,7.2,2.2"/>
	<path class="st12" d="M284.9,347.4c0.2,0,0.3,0,0.5-0.1l-0.5-1.7c-0.7,0.2-2.3-0.3-3.1-0.9c0.4-0.7,2.3-2,3.1-2.2l-0.4-1.7
		c-1.2,0.3-3.9,2.1-4.4,3.5c-0.2,0.5-0.1,1,0.3,1.4C281.3,346.7,283.4,347.5,284.9,347.4z"/>
	<path class="st14" d="M284.7,341.6c-1.1,0.3-4.4,2.6-3.7,3.5c0.8,0.9,3,1.6,4.1,1.3"/>
	<path class="st15" d="M241.2,212c-0.7,0-1,0.5-0.7,1.2c0.3,0.7,1.1,1.2,1.8,1.3"/>
	<path class="st12" d="M240.5,258.8c2-0.2,5.4-3.3,6.2-5.4c0.2-0.5,0.2-1.4-0.6-2.4c-1.2-1.6-4.3-3.2-5.9-3.1c0,0,0,0-0.1,0l0.2,1.7
		c0.9-0.1,3.4,1.1,4.4,2.4c0.2,0.3,0.3,0.6,0.3,0.7c-0.6,1.6-3.6,4.1-4.8,4.3L240.5,258.8z"/>
	<path class="st14" d="M240.4,258c1.6-0.2,4.8-3,5.5-4.9c0.7-1.9-4-4.5-5.6-4.3"/>
	<path class="st12" d="M248.8,291c0-0.3,0.1-0.9,0.2-1.6c0.8-6.1,1-9.8-0.7-10.8c-1.4-0.9-3.1-1-4.4-0.4c-0.9,0.4-1.4,1.2-1.5,2.2
		l1.7,0.2c0-0.4,0.2-0.6,0.6-0.8c0.7-0.4,1.9-0.2,2.7,0.3c0.5,0.3,0.8,2.1-0.1,9.1c-0.1,0.7-0.2,1.3-0.2,1.7L248.8,291z"/>
	<path class="st14" d="M248,290.9c0.2-1.9,1.7-10.5-0.1-11.6c-1.8-1.1-4.4-0.8-4.6,1.1"/>
	<path class="st12" d="M263.9,315.3c1.1-0.1,2.1-0.9,2.9-2.1c0.7-1.2,0.9-2.4,0.5-3.3c-0.7-1.8-2.9-3.3-4.9-3.5
		c-0.5,0-1.2-0.1-1.8,0c-0.3,0-1.4,0.1-1.9,0.9c-0.2,0.3-0.4,0.9,0,1.7c0.6,1.6,2.8,4.6,4.4,6.1l0.2,0.2l0.3,0
		C263.7,315.4,263.8,315.4,263.9,315.3L263.9,315.3z"/>
	<path class="st14" d="M266.6,310.2c-0.6-1.5-2.5-2.8-4.2-2.9c-1.7-0.1-3.5-0.1-2.9,1.4c0.6,1.5,2.7,4.4,4.1,5.8
		C265.4,314.6,267.2,311.7,266.6,310.2z"/>
	<path class="st12" d="M282.6,334.7c0,0,0.1,0,0.1,0l-0.3-1.7c-0.7,0.1-3.9-0.7-4.8-1.3c0.3-0.7,1.9-2,2.5-2.1l-0.2-1.7
		c-1.2,0.2-3.3,1.9-3.8,3.2c-0.3,0.7-0.2,1.2,0,1.5C276.9,333.7,281.2,334.8,282.6,334.7z"/>
	<path class="st14" d="M280.1,328.6c-1.1,0.2-3.7,2.5-3.2,3.4c0.5,0.9,4.7,2,5.7,1.8"/>
	<path class="st12" d="M286,358.9c0.3,0,0.5-0.1,0.8-0.2l-0.7-1.6c-0.4,0.2-1.8-0.2-2.3-1c-0.2-0.6,1.4-2.9,2.1-3.2l-0.6-1.6
		c-0.9,0.4-2.6,2.4-3.1,3.9c-0.2,0.7-0.2,1.4,0.2,1.9C283.1,358.2,284.8,359,286,358.9z"/>
	<path class="st14" d="M285.6,352c-0.9,0.3-3.3,3.3-2.5,4.5c0.7,1.1,2.5,1.8,3.4,1.3"/>
</g>
<g>
	<path class="st12" d="M138.9,333.9c-2.5-3.1-4.3-6.8-4.7-9.8c-0.1-0.8-0.1-1.1-0.2-1.8c0-0.6-0.1-1.2-0.1-1.8l0-0.3l0-2.4
		c0-0.7,0-1.3,0-2c0-4.3-1.2-7.5-3.1-11.4c-1.1-2.3-2.5-4.8-4-7.4c-1.1-2-2.3-4-3.3-6c-2.1-4-3.7-8.4-4.6-12.5
		c-0.8-3.9-1.1-7.9-0.8-11.6c0.1-0.8,0.1-1.5,0.2-2.3c0.4-4.2,0.7-8.1,0.8-13l0,0l0,0c0-0.4-0.1-0.8-0.1-1.3
		c-0.2-1.9-0.3-4.2-0.9-6.5c-0.1-0.5-0.2-1-0.3-1.5c-0.1-0.9-0.3-1.9-0.7-2.8c-0.7-1.4-1.5-2.7-2.4-4c-0.7-0.9-1.4-1.8-2.1-2.6
		c-0.8-1-1.8-1.8-2.7-2.7l-0.6-0.6c-0.5-0.5-1-1-1.6-1.5c-0.6-0.6-1-1.1-1.4-1.6c-0.2-0.3-0.6-0.6-1-0.7c-0.1,0-0.3-0.1-0.4-0.1
		c-0.6,0-1.1,0.4-1.3,0.9c-0.2,0.6,0,1.2,0.1,1.6c0.2,0.7,0.4,1.5,0.5,2.2c0.1,0.4,0.1,0.7,0.2,1.1c0.1,0.4,0.1,0.7,0.2,1.1
		c0.1,0.4,0.2,0.9,0.3,1.3c0.2,0.7,0.4,1.5,0.8,2.4c0.4,0.9,0.9,1.7,1.6,2.5c0.7,0.9,1.6,1.6,2.5,2.2c0.1,0.1,0.3,0.2,0.4,0.3
		c0.5,1.3,1.2,2.4,1.8,3.5c1,1.7,1.9,3.3,2,5.1l0.1,0.8c0.3,3,0.7,7.1,0.1,9.5l0,0l0,0c-0.1,1.2-0.1,2.3-0.2,3.4
		c-0.3,4.3-0.5,8.4,0.2,14.2c1.1,5.8,4,11.3,6.7,16.6l0.6,1.2c1,2,2.2,3.9,3.3,5.8c2.1,3.6,4.2,7,5.3,10.6c0.5,1.6,0.6,3.4,0.6,5.4
		c0.1,2.1,0.1,4.3,0.8,6.3c1.5,4.4,3.8,8.1,6.6,11L138.9,333.9z"/>
	<path class="st13" d="M133.5,317.8c0,0.7,0,1.7,0,2.4c0,0.7,0,1.4,0.1,2.1c0.1,0.8,0.1,1,0.2,1.8c0.4,3.2,2.3,7,4.8,10
		c-3.2-3.3-5.2-7.2-6.5-10.8c-1.3-3.7-0.4-8.1-1.4-11.6c-1.8-5.5-5.6-10.7-8.6-16.5c-3-5.7-6.1-11.4-7.3-17.6
		c-0.8-7.2-0.2-11.7,0-17.6c0.6-2.7,0.1-7.3-0.2-10.5c-0.3-3.1-2.6-5.6-3.9-8.9c-0.2-0.1-0.4-0.2-0.6-0.3c-0.9-0.6-1.7-1.3-2.4-2.1
		c-0.7-0.8-1.2-1.6-1.5-2.4c-0.3-0.8-0.6-1.6-0.8-2.3c-0.2-0.8-0.3-1.6-0.5-2.3c-0.2-1.1-0.4-2.2-0.7-3.3c-0.1-0.4-0.2-0.9-0.1-1.3
		c0.1-0.4,0.6-0.7,1.1-0.5c0.3,0.1,0.6,0.3,0.8,0.5c0.4,0.6,0.9,1.1,1.4,1.6c0.5,0.5,1,1,1.6,1.5c1.1,1,2.3,2.1,3.3,3.2
		c0.7,0.8,1.5,1.7,2.1,2.6c0.9,1.3,1.7,2.6,2.4,4c0.6,1.3,0.6,2.9,1,4.2c0.7,2.7,0.8,5.7,1,7.7c-0.1,5.7-0.6,10.3-1,15.3
		c-0.3,3.7-0.1,7.6,0.8,11.8c0.9,4.1,2.4,8.5,4.6,12.7c2.4,4.5,5.3,9.4,7.3,13.4c2,4.1,3.1,7.2,3.1,11.2
		C133.6,316.5,133.5,317.1,133.5,317.8z"/>
	<path class="st13" d="M105.6,226.8c0.7,0.7,1.5,1.4,2,2.3c1,1.7-0.7,3-1.4,1.2c-0.2-0.4-0.1-0.9-0.2-1.3c-0.2-0.8-0.9-1.6-1.5-2.3
		c-0.6-0.7-1.3-1.4-1.8-2.2c-0.4-0.8-0.6-1.7,0-2.3c-0.2,0.9,0.2,1.8,0.9,2.6C104.1,225.4,104.9,226,105.6,226.8z"/>
	<g>
		<path class="st12" d="M110.3,232.5c0.6,0.3,1.3,1,1.6,1.8c0.3,0.8,0.3,1.6-0.2,1.9c-0.1,0.1-0.3-0.2-0.2-0.3
			c0.1-0.2,0.3-0.3,0.3-0.6c0-0.3,0-0.6-0.2-0.9c-0.3-0.7-0.8-1.3-1.4-1.6C110.2,232.6,110.2,232.4,110.3,232.5z"/>
	</g>
	<path class="st12" d="M111.8,234.3c-0.2-0.5-0.7-0.8-1.1-0.8c-0.4,0-0.6,0.4-0.4,0.8s0.7,0.8,1.1,0.8
		C111.8,235.1,112,234.8,111.8,234.3z"/>
	<g>
		<path class="st12" d="M104.7,226.7c0.2,0.4,0.5,0.7,0.8,1.1c0.2,0.2,0.4,0.3,0.5,0.5c0.2,0.1,0.4,0.3,0.6,0.4
			c0.1,0.1,0,0.2-0.1,0.2c-0.4-0.1-0.9-0.5-1.3-0.9c-0.4-0.4-0.7-0.8-0.9-1.2C104.3,226.6,104.6,226.5,104.7,226.7z"/>
	</g>
	<path class="st12" d="M118.4,249.4l0.2-0.9c-1.2-0.3-3.9-2.5-4.1-3.4c0-0.2,0.1-0.5,0.4-0.9c0.7-0.7,1.8-1.2,2.4-1.1l0.2-0.9
		c-1-0.3-2.4,0.5-3.2,1.3c-0.5,0.6-0.8,1.2-0.7,1.8C113.9,246.7,117.1,249.1,118.4,249.4z"/>
	<path class="st14" d="M117.4,242.6c-1.2-0.3-3.6,1.3-3.3,2.6c0.3,1.2,3.3,3.5,4.4,3.8"/>
	<path class="st12" d="M118.3,258.8l0.2-0.9c-0.8-0.2-2.6-2.8-2.8-3.7c0,0,0.1-0.2,0.4-0.5c0.7-0.6,1.9-1.2,2.5-1l0.2-0.9
		c-1-0.2-2.7,0.6-3.4,1.4c-0.5,0.5-0.5,1-0.5,1.3C115.1,255.5,117,258.5,118.3,258.8z"/>
	<path class="st14" d="M118.7,252.2c-1.1-0.3-3.6,1.2-3.4,2.1c0.2,0.9,2,3.8,3.1,4"/>
	<path class="st12" d="M117.8,275.7l0.4-0.9c-0.9-0.4-2.9-2.2-3-3c0-0.4,0.6-1.4,1.4-2.1c0.5-0.4,0.8-0.5,0.9-0.4l0.4-0.9
		c-0.6-0.3-1.3,0.1-1.8,0.5c-0.7,0.6-1.9,1.9-1.8,3C114.4,273.4,116.9,275.3,117.8,275.7z"/>
	<path class="st14" d="M117.6,268.9c-0.9-0.4-3,1.9-2.9,3c0.1,1.1,2.4,3,3.3,3.4"/>
	<path class="st12" d="M122.3,290.2l0.2-0.9c-1.1-0.3-3.3-1.6-3.4-2.1c0-0.1,0-0.2,0.2-0.4c0.3-0.3,1-0.6,1.4-0.4l0.2-0.9
		c-0.7-0.2-1.7,0.1-2.2,0.7c-0.4,0.4-0.5,0.8-0.4,1.3C118.5,288.7,121.7,290,122.3,290.2z"/>
	<path class="st14" d="M120.8,285.9c-0.9-0.2-2.3,0.5-2.1,1.4c0.2,0.9,2.9,2.2,3.8,2.5"/>
	<path class="st12" d="M129.8,303.9l0-1c-0.9,0-3.1-0.8-3.2-1.2c-0.1-0.2,0.1-0.4,0.1-0.5c0.3-0.4,0.8-0.7,1.2-0.7l0.1-1
		c-0.6,0-1.5,0.4-1.9,1.1c-0.3,0.5-0.4,1-0.3,1.4C126.2,303.2,129.3,303.8,129.8,303.9z"/>
	<path class="st14" d="M128,300c-0.8-0.1-2,1-1.8,1.9c0.3,0.8,2.8,1.5,3.6,1.6"/>
	<path class="st12" d="M133.3,317.8c0.1,0,0.2,0,0.3,0l-0.2-1c-0.4,0.1-1.2-0.3-1.5-0.6c0.2-0.3,1.2-1,1.7-1.1l-0.1-1
		c-0.6,0.1-2.1,1-2.4,1.8c-0.1,0.3-0.1,0.6,0.1,0.8C131.5,317.3,132.6,317.8,133.3,317.8z"/>
	<path class="st14" d="M133.5,314.7c-0.6,0.1-2.4,1.2-2,1.8c0.4,0.5,1.5,1,2,0.9"/>
	<path class="st15" d="M116.8,240.9c-0.4,0-0.5,0.2-0.4,0.6c0.1,0.4,0.5,0.7,0.9,0.8"/>
	<path class="st12" d="M114.4,266.8c1,0,2.9-1.5,3.4-2.7c0.1-0.3,0.2-0.8-0.2-1.4c-0.6-1-2.1-2-2.9-2c0,0,0,0,0,0l0,1
		c0.4,0,1.7,0.8,2.2,1.5c0.1,0.2,0.2,0.3,0.1,0.4c-0.4,0.9-2,2.1-2.7,2.1L114.4,266.8z"/>
	<path class="st14" d="M114.3,266.3c0.9,0,2.6-1.4,3-2.4c0.4-1-1.9-2.7-2.7-2.6"/>
	<path class="st12" d="M117.2,285c0-0.2,0.1-0.5,0.2-0.9c0.7-3.3,0.9-5.4,0.1-6c-0.7-0.5-1.6-0.7-2.2-0.4c-0.5,0.2-0.8,0.6-0.9,1.1
		l0.9,0.2c0-0.2,0.1-0.3,0.3-0.4c0.4-0.2,1,0,1.4,0.3c0.2,0.2,0.3,1.2-0.5,5c-0.1,0.4-0.1,0.7-0.2,0.9L117.2,285z"/>
	<path class="st14" d="M116.8,284.9c0.2-1,1.3-5.7,0.5-6.4c-0.9-0.7-2.2-0.6-2.4,0.4"/>
	<path class="st12" d="M124,299.1c0.5,0,1.1-0.4,1.6-1.1c0.4-0.6,0.6-1.3,0.4-1.8c-0.3-1-1.3-2-2.4-2.1c-0.3,0-0.6-0.1-0.9-0.1
		c-0.2,0-0.7,0-1,0.4c-0.1,0.2-0.2,0.5-0.1,0.9c0.3,0.9,1.2,2.7,2,3.6l0.1,0.1l0.2,0C123.9,299.1,123.9,299.1,124,299.1L124,299.1z"
		/>
	<path class="st14" d="M125.6,296.4c-0.2-0.9-1.1-1.7-2-1.8c-0.9-0.2-1.8-0.2-1.5,0.6c0.2,0.9,1.2,2.6,1.9,3.4
		C124.7,298.8,125.8,297.2,125.6,296.4z"/>
	<path class="st12" d="M132.7,310.7C132.8,310.7,132.8,310.7,132.7,310.7l0-1c-0.4,0-2-0.6-2.4-1c0.2-0.3,1.1-1,1.4-1.1l0-1
		c-0.6,0-1.8,0.9-2.1,1.6c-0.2,0.4-0.1,0.7,0,0.9C129.9,309.9,132,310.7,132.7,310.7z"/>
	<path class="st14" d="M131.7,307.2c-0.6,0-2,1.2-1.8,1.7c0.2,0.5,2.3,1.3,2.9,1.3"/>
	<path class="st12" d="M133.4,324.2c0.1,0,0.3,0,0.4-0.1l-0.3-0.9c-0.2,0.1-0.9-0.2-1.1-0.7c-0.1-0.3,0.9-1.5,1.2-1.7l-0.3-0.9
		c-0.5,0.2-1.5,1.2-1.8,2c-0.1,0.4-0.1,0.7,0,1C132,323.7,132.8,324.2,133.4,324.2z"/>
	<path class="st14" d="M133.5,320.5c-0.5,0.2-1.8,1.7-1.5,2.4c0.3,0.7,1.2,1.1,1.7,0.9"/>
</g>
<g>
	<path class="st12" d="M102,145.9c2.5-2.5,4.3-5.5,4.7-7.9c0.1-0.6,0.1-0.9,0.2-1.5c0-0.5,0.1-1,0.1-1.5l0-0.2l0-2c0-0.6,0-1,0-1.6
		c0-3.4,1.2-6.1,3.1-9.2c1.1-1.8,2.5-3.9,4-6c1.1-1.6,2.3-3.2,3.3-4.8c2.1-3.3,3.7-6.7,4.6-10.1c0.8-3.2,1.1-6.3,0.8-9.3
		c-0.1-0.6-0.1-1.2-0.2-1.8c-0.4-3.4-0.7-6.6-0.8-10.5l0,0l0,0c0-0.3,0.1-0.7,0.1-1.1c0.2-1.5,0.3-3.4,0.9-5.2
		c0.1-0.4,0.2-0.8,0.3-1.2c0.1-0.7,0.3-1.5,0.7-2.2c0.7-1.1,1.5-2.2,2.4-3.3c0.7-0.7,1.4-1.5,2.1-2.1c0.8-0.8,1.8-1.5,2.7-2.2
		l0.6-0.5c0.5-0.4,1-0.8,1.6-1.2c0.6-0.4,1-0.9,1.4-1.3c0.2-0.3,0.6-0.4,1-0.5c0.1,0,0.3-0.1,0.4-0.1c0.6,0,1.1,0.3,1.3,0.7
		c0.2,0.5,0,0.9-0.1,1.3c-0.2,0.6-0.4,1.2-0.5,1.8c-0.1,0.3-0.1,0.6-0.2,0.9c-0.1,0.3-0.1,0.6-0.2,0.8c-0.1,0.3-0.2,0.7-0.3,1
		c-0.2,0.6-0.4,1.2-0.8,1.9c-0.4,0.7-0.9,1.4-1.6,2c-0.7,0.7-1.6,1.3-2.5,1.7c-0.1,0.1-0.3,0.1-0.4,0.2c-0.5,1-1.2,2-1.8,2.8
		c-1,1.4-1.9,2.7-2,4.1l-0.1,0.6c-0.3,2.4-0.7,5.7-0.1,7.6l0,0l0,0c0.1,1,0.1,1.9,0.2,2.8c0.3,3.5,0.5,6.8-0.2,11.5
		c-1.2,4.7-4,9.1-6.8,13.3l-0.6,0.9c-1,1.6-2.2,3.2-3.3,4.7c-2.1,2.9-4.2,5.7-5.3,8.5c-0.5,1.3-0.6,2.8-0.6,4.3
		c-0.1,1.7-0.1,3.4-0.8,5c-1.5,3.5-3.8,6.5-6.6,8.9L102,145.9z"/>
	<path class="st13" d="M107.3,131.4c0-3.2,1.1-5.7,3.1-9c2-3.2,4.9-7.2,7.3-10.8c2.2-3.4,3.8-6.9,4.7-10.2c0.9-3.3,1.1-6.5,0.8-9.5
		c-0.4-4-0.9-7.7-1-12.3c0.2-1.6,0.3-4,1-6.2c0.4-1.1,0.4-2.3,1-3.4c0.6-1.1,1.4-2.2,2.4-3.2c0.6-0.7,1.4-1.4,2.1-2.1
		c1-0.9,2.2-1.8,3.3-2.6c0.5-0.4,1.1-0.8,1.6-1.2c0.5-0.4,1-0.8,1.4-1.3c0.2-0.2,0.5-0.3,0.8-0.4c0.5-0.1,1,0.1,1.1,0.4
		c0.1,0.3,0,0.7-0.1,1c-0.3,0.9-0.5,1.8-0.7,2.7c-0.2,0.6-0.3,1.3-0.5,1.9c-0.2,0.6-0.5,1.2-0.8,1.9c-0.4,0.6-0.9,1.3-1.5,1.9
		c-0.6,0.6-1.4,1.2-2.4,1.7c-0.2,0.1-0.4,0.2-0.6,0.3c-1.3,2.7-3.7,4.7-3.9,7.2c-0.3,2.5-0.8,6.3-0.2,8.4c0.3,4.8,0.9,8.3,0,14.2
		c-1.2,4.9-4.3,9.5-7.3,14.1c-3,4.7-6.9,8.8-8.7,13.3c-1.1,2.9-0.2,6.4-1.5,9.4c-1.3,3-3.3,6.1-6.5,8.7c2.5-2.5,4.4-5.5,4.8-8.1
		c0.1-0.6,0.1-0.9,0.2-1.5c0.1-0.6,0.1-1.1,0.1-1.7c0-0.6,0-1.4,0-2C107.3,132.4,107.3,131.9,107.3,131.4z"/>
	<path class="st13" d="M137.4,58c0.7-0.6,1.1-1.4,0.9-2.1c0.5,0.5,0.4,1.3,0,1.9c-0.4,0.6-1.2,1.2-1.8,1.7c-0.6,0.6-1.3,1.2-1.5,1.9
		c-0.1,0.4-0.1,0.7-0.2,1.1c-0.7,1.5-2.4,0.4-1.4-0.9c0.5-0.7,1.3-1.3,2-1.8C136.1,59.2,136.8,58.6,137.4,58z"/>
	<g>
		<path class="st12" d="M130.6,64.5c-0.5,0.2-1.1,0.7-1.4,1.3c-0.1,0.3-0.2,0.5-0.2,0.7c0,0.2,0.2,0.4,0.3,0.5
			c0.1,0.1-0.1,0.3-0.2,0.3c-0.5-0.2-0.5-0.9-0.2-1.5c0.3-0.6,1-1.2,1.6-1.4C130.8,64.3,130.8,64.4,130.6,64.5z"/>
	</g>
	<path class="st12" d="M129.6,66.5c0.4,0,0.9-0.3,1.1-0.7c0.2-0.4,0-0.7-0.4-0.7c-0.4,0-0.9,0.3-1.1,0.7
		C129,66.2,129.2,66.5,129.6,66.5z"/>
	<g>
		<path class="st12" d="M136.6,59.7c-0.2,0.4-0.5,0.7-0.9,1c-0.3,0.3-0.8,0.6-1.3,0.7c-0.1,0-0.2-0.1-0.1-0.2
			c0.2-0.1,0.4-0.2,0.6-0.4c0.2-0.1,0.4-0.2,0.5-0.4c0.3-0.3,0.6-0.6,0.8-0.9C136.4,59.5,136.7,59.6,136.6,59.7z"/>
	</g>
	<path class="st12" d="M122.5,77.9l-0.2-0.8c1.2-0.3,3.9-2,4.1-2.8c0-0.2-0.1-0.4-0.4-0.7c-0.7-0.6-1.8-1-2.4-0.9l-0.2-0.8
		c1-0.2,2.4,0.4,3.2,1.1c0.5,0.5,0.8,1,0.7,1.4C127,75.8,123.8,77.7,122.5,77.9z"/>
	<path class="st14" d="M122.4,77.6c1.2-0.3,4.2-2.1,4.4-3.1c0.3-1-2.2-2.3-3.3-2.1"/>
	<path class="st12" d="M122.6,85.5l-0.2-0.8c0.8-0.2,2.6-2.3,2.8-3c0,0-0.1-0.2-0.4-0.4c-0.7-0.5-2-0.9-2.5-0.8l-0.2-0.8
		c1-0.2,2.7,0.5,3.5,1.1c0.5,0.4,0.5,0.8,0.5,1C125.8,82.8,123.9,85.2,122.6,85.5z"/>
	<path class="st14" d="M122.5,85.1c1.1-0.2,2.9-2.5,3.1-3.3s-2.3-1.9-3.4-1.7"/>
	<path class="st12" d="M123.1,99.1l-0.4-0.7c0.9-0.4,2.9-1.8,3-2.4c0-0.3-0.6-1.1-1.4-1.7c-0.5-0.3-0.8-0.4-0.9-0.3l-0.4-0.7
		c0.6-0.2,1.3,0.1,1.8,0.4c0.7,0.5,1.9,1.6,1.8,2.4C126.5,97.2,124,98.8,123.1,99.1z"/>
	<path class="st14" d="M122.9,98.8c0.9-0.3,3.2-1.8,3.3-2.7s-2.1-2.8-2.9-2.4"/>
	<path class="st12" d="M118.6,110.8l-0.2-0.8c1.1-0.3,3.3-1.3,3.4-1.7c0-0.1,0-0.2-0.2-0.3c-0.3-0.3-1-0.4-1.4-0.4l-0.2-0.8
		c0.7-0.2,1.7,0.1,2.2,0.5c0.4,0.3,0.5,0.7,0.4,1C122.4,109.5,119.2,110.6,118.6,110.8z"/>
	<path class="st14" d="M118.5,110.4c0.9-0.2,3.6-1.3,3.8-2c0.2-0.7-1.2-1.3-2.1-1.1"/>
	<path class="st12" d="M111.1,121.7l0-0.8c1,0,3.1-0.6,3.2-1c0.1-0.1-0.1-0.3-0.1-0.4c-0.3-0.3-0.8-0.6-1.2-0.6l-0.1-0.8
		c0.6,0,1.5,0.3,1.9,0.9c0.3,0.4,0.4,0.8,0.3,1.1C114.6,121.2,111.6,121.7,111.1,121.7z"/>
	<path class="st14" d="M111,121.4c0.8,0,3.3-0.6,3.6-1.3c0.3-0.7-0.9-1.5-1.8-1.5"/>
	<path class="st12" d="M107.5,133c-0.1,0-0.2,0-0.3,0l0.2-0.8c0.4,0.1,1.2-0.2,1.5-0.5c-0.2-0.3-1.3-0.8-1.7-0.9l0.1-0.8
		c0.6,0.1,2.1,0.8,2.4,1.4c0.1,0.2,0.1,0.4-0.1,0.6C109.3,132.6,108.3,133,107.5,133z"/>
	<path class="st14" d="M107.4,132.6c0.6,0.1,1.7-0.3,2-0.7c0.4-0.4-1.4-1.3-2-1.4"/>
	<path class="st15" d="M123.7,72.2c0.4,0,0.7-0.3,0.9-0.6c0.1-0.3-0.1-0.5-0.4-0.5"/>
	<path class="st12" d="M126.6,91.9c-1,0-2.9-1.2-3.4-2.2c-0.1-0.2-0.2-0.6,0.2-1.1c0.6-0.8,2.1-1.6,2.9-1.6c0,0,0,0,0,0l0,0.8
		c-0.4,0-1.7,0.6-2.2,1.2c-0.1,0.1-0.2,0.3-0.1,0.3c0.4,0.7,2,1.7,2.7,1.7L126.6,91.9z"/>
	<path class="st14" d="M126.2,87.5c-0.9,0-3.1,1.3-2.7,2.1c0.4,0.8,2.2,1.9,3.1,2"/>
	<path class="st12" d="M123.7,106.5c0-0.2-0.1-0.4-0.2-0.7c-0.7-2.7-0.9-4.3-0.1-4.8c0.7-0.4,1.6-0.6,2.2-0.3
		c0.5,0.2,0.8,0.5,0.9,0.9l-0.9,0.1c0-0.2-0.1-0.3-0.3-0.3c-0.4-0.1-1,0-1.4,0.2c-0.2,0.1-0.3,1,0.5,4.1c0.1,0.3,0.1,0.6,0.2,0.7
		L123.7,106.5z"/>
	<path class="st14" d="M126.1,101.6c-0.2-0.8-1.5-0.9-2.4-0.3c-0.9,0.6,0.3,4.3,0.5,5.2"/>
	<path class="st12" d="M116.9,117.9c-0.5,0-1.1-0.3-1.6-0.8c-0.4-0.5-0.6-1.1-0.4-1.5c0.3-0.8,1.3-1.6,2.4-1.7
		c0.3,0,0.6-0.1,0.9-0.1c0.2,0,0.7,0,1,0.3c0.1,0.1,0.2,0.4,0.1,0.8c-0.3,0.7-1.2,2.1-2,2.9l-0.1,0.1l-0.2,0
		C117,117.9,117,117.9,116.9,117.9L116.9,117.9z"/>
	<path class="st14" d="M117,117.5c0.7-0.7,1.6-2,1.9-2.7c0.2-0.7-0.7-0.6-1.5-0.5c-0.9,0.1-1.8,0.8-2,1.5
		C115.1,116.4,116.1,117.7,117,117.5z"/>
	<path class="st12" d="M108.1,127.3C108.1,127.3,108.1,127.3,108.1,127.3l0-0.8c0.4,0,2-0.5,2.4-0.8c-0.2-0.3-1.1-0.8-1.4-0.9l0-0.8
		c0.6,0,1.8,0.7,2.1,1.3c0.2,0.3,0.1,0.5,0,0.7C111,126.6,108.9,127.3,108.1,127.3z"/>
	<path class="st14" d="M108.1,126.9c0.5,0,2.6-0.6,2.9-1c0.2-0.4-1.2-1.4-1.8-1.4"/>
	<path class="st12" d="M107.4,138.1c-0.1,0-0.3,0-0.4-0.1l0.3-0.7c0.2,0.1,0.9-0.2,1.1-0.5c0.1-0.3-0.9-1.2-1.2-1.3l0.3-0.7
		c0.5,0.1,1.5,1,1.8,1.6c0.1,0.3,0.1,0.6,0,0.8C108.9,137.7,108.1,138.1,107.4,138.1z"/>
	<path class="st14" d="M107.2,137.7c0.4,0.2,1.4-0.2,1.7-0.7c0.3-0.5-1-1.8-1.5-1.9"/>
</g>
<path class="st10" d="M294.6,213.6L294.6,213.6c-0.5-0.4-0.7-1.4-0.3-2.2l34-70.1c0.4-0.8,1.1-1,1.6-0.6l0,0
	c0.5,0.4,0.7,1.4,0.3,2.2l-34,70.1C295.9,213.8,295.1,214,294.6,213.6z"/>
<path class="st11" d="M296.3,213l34-70.1c0.3-0.6,0.3-1.4-0.1-1.9c-0.2-0.1-0.5,0.1-0.7,0.4l-34.6,71.3c-0.2,0.3-0.1,0.7,0,1
	C295.4,213.9,296,213.6,296.3,213z"/>
<path class="st10" d="M302.1,219.9L302.1,219.9c0.5,0.4,1.3,0.2,1.6-0.6l34-70.1c0.4-0.8,0.2-1.8-0.3-2.2l0,0
	c-0.5-0.4-1.3-0.2-1.6,0.6l-34,70.1C301.5,218.5,301.6,219.5,302.1,219.9z"/>
<path class="st11" d="M301.9,217.7l34-70.1c0.3-0.6,0.9-0.9,1.4-0.7c0.1,0.3,0.2,0.7,0,1l-34.6,71.3c-0.2,0.3-0.4,0.5-0.7,0.4
	C301.6,219.1,301.5,218.4,301.9,217.7z"/>
<path class="st11" d="M326.4,167.9l-6.7-3.2c-0.3-0.1-0.4-0.5-0.3-0.8l0,0c0.1-0.3,0.5-0.4,0.8-0.3l6.7,3.2c0.3,0.1,0.4,0.5,0.3,0.8
	l0,0C327.1,167.9,326.7,168,326.4,167.9z"/>
<path class="st11" d="M329.9,160.7l-6.7-3.2c-0.3-0.1-0.4-0.5-0.3-0.8l0,0c0.1-0.3,0.5-0.4,0.8-0.3l6.7,3.2c0.3,0.1,0.4,0.5,0.3,0.8
	l0,0C330.6,160.7,330.2,160.8,329.9,160.7z"/>
<path class="st11" d="M332.9,153.5l-6.7-3.2c-0.3-0.1-0.4-0.5-0.3-0.8l0,0c0.1-0.3,0.5-0.4,0.8-0.3l6.7,3.2c0.3,0.1,0.4,0.5,0.3,0.8
	l0,0C333.5,153.5,333.2,153.6,332.9,153.5z"/>
<path class="st11" d="M322.3,176.3l-6.7-3.2c-0.3-0.1-0.4-0.5-0.3-0.8l0,0c0.1-0.3,0.5-0.4,0.8-0.3l6.7,3.2c0.3,0.1,0.4,0.5,0.3,0.8
	l0,0C323,176.3,322.6,176.5,322.3,176.3z"/>
<path class="st11" d="M318.2,184.8l-6.7-3.2c-0.3-0.1-0.4-0.5-0.3-0.8l0,0c0.1-0.3,0.5-0.4,0.8-0.3l6.7,3.2c0.3,0.1,0.4,0.5,0.3,0.8
	l0,0C318.9,184.8,318.5,184.9,318.2,184.8z"/>
<path class="st11" d="M314.1,193.2l-6.7-3.2c-0.3-0.1-0.4-0.5-0.3-0.8l0,0c0.1-0.3,0.5-0.4,0.8-0.3l6.7,3.2c0.3,0.1,0.4,0.5,0.3,0.8
	l0,0C314.8,193.2,314.4,193.4,314.1,193.2z"/>
<path class="st11" d="M310,201.6l-6.7-3.2c-0.3-0.1-0.4-0.5-0.3-0.8l0,0c0.1-0.3,0.5-0.4,0.8-0.3l6.7,3.2c0.3,0.1,0.4,0.5,0.3,0.8
	l0,0C310.6,201.7,310.3,201.8,310,201.6z"/>
<path class="st11" d="M305.9,210.1l-6.7-3.2c-0.3-0.1-0.4-0.5-0.3-0.8l0,0c0.1-0.3,0.5-0.4,0.8-0.3l6.7,3.2c0.3,0.1,0.4,0.5,0.3,0.8
	l0,0C306.5,210.1,306.2,210.2,305.9,210.1z"/>
</svg>
