<?xml version="1.0" encoding="utf-8"?>
<!-- Generator: Adobe Illustrator 24.3.0, SVG Export Plug-In . SVG Version: 6.00 Build 0)  -->
<svg version="1.1" id="Layer_1" xmlns="http://www.w3.org/2000/svg" xmlns:xlink="http://www.w3.org/1999/xlink" x="0px" y="0px"
	 viewBox="0 0 39.6 63.07" style="enable-background:new 0 0 39.6 63.07;" xml:space="preserve">
<style type="text/css">
	.st0{fill:#00AAD2;}
	.st1{fill:#3EE4FF;}
</style>
<g>
	<path class="st0" d="M39.31,49.69l0.02,0l-0.05-0.14c-0.07-0.22-0.16-0.43-0.25-0.65L27.47,18.96c2.07-2.01,3.36-4.81,3.36-7.92
		C30.83,4.94,25.89,0,19.8,0S8.76,4.94,8.76,11.04c0,3.11,1.29,5.91,3.35,7.91L0.48,49l0.02,0c-1.46,3.73,0.31,7.81,5.33,10.71
		c7.75,4.48,20.33,4.48,28.04,0C38.55,56.99,40.35,53.22,39.31,49.69z"/>
	<path class="st1" d="M23.27,7.88c0,3.41-2.77,6.18-6.18,6.18c-3.41,0-6.18-2.77-6.18-6.18c0-3.41,2.77-6.18,6.18-6.18
		C20.5,1.7,23.27,4.46,23.27,7.88z"/>
	<path class="st1" d="M14.19,18.75L2.72,49.78c0,0,3.02,8.07,17.08,9V19.59L14.19,18.75z"/>
</g>
</svg>
